<svg xmlns="http://www.w3.org/2000/svg" width="27" height="27" viewBox="0 0 27 27">
  <defs>
    <style>
      .cls-1 {
        fill: #98a6b5;
        fill-rule: evenodd;
      }
    </style>
  </defs>
  <path class="cls-1" d="M25.115,14.122c-0.014-.4-0.013-0.81,0-1.214,0.006-.17-0.048-0.209-0.212-0.207-0.684.009-1.369-.005-2.053,0.009a0.225,0.225,0,0,1-.284-0.244,7.341,7.341,0,0,0-.471-2.04,9.039,9.039,0,0,0-7.607-6,0.182,0.182,0,0,1-.2-0.228c0.007-.7,0-1.4.007-2.1,0-.161-0.032-0.218-0.205-0.212-0.4.015-.811,0.014-1.215,0C12.7,1.878,12.668,1.933,12.67,2.1c0.009,0.7,0,1.4.007,2.105a0.179,0.179,0,0,1-.195.228,8.62,8.62,0,0,0-3.132.93A9.01,9.01,0,0,0,4.4,12.464a0.23,0.23,0,0,1-.284.246c-0.684-.014-1.369,0-2.053-0.009-0.161,0-.22.034-0.213,0.207,0.013,0.4.013,0.81,0,1.214-0.006.172,0.049,0.208,0.213,0.206,0.666-.009,1.332.009,2-0.009a0.273,0.273,0,0,1,.345.3,7.382,7.382,0,0,0,.52,2.138A9.046,9.046,0,0,0,12.481,22.6a0.18,0.18,0,0,1,.2.228c-0.007.7,0,1.4-.007,2.105,0,0.162.033,0.218,0.206,0.213,0.4-.014.81-0.009,1.215,0,0.138,0,.214-0.013.207-0.183-0.013-.35,0-0.7,0-1.052s0.006-.72,0-1.079a0.178,0.178,0,0,1,.194-0.229,8.152,8.152,0,0,0,2.321-.568,9.008,9.008,0,0,0,5.758-7.467,0.23,0.23,0,0,1,.284-0.246c0.684,0.013,1.369,0,2.053.008C25.061,14.329,25.121,14.295,25.115,14.122Zm-11.7,6.544a7.151,7.151,0,1,1,7.223-7.129A7.147,7.147,0,0,1,13.41,20.665ZM13.521,10.2a3.317,3.317,0,1,0,3.275,3.32A3.324,3.324,0,0,0,13.521,10.2Z"/>
</svg>
