<?xml version="1.0" encoding="utf-8"?>
<!-- Generator: Adobe Illustrator 24.0.2, SVG Export Plug-In . SVG Version: 6.00 Build 0)  -->
<svg version="1.1" id="Dummy_Logo" xmlns="http://www.w3.org/2000/svg" xmlns:xlink="http://www.w3.org/1999/xlink" x="0px" y="0px"
	 viewBox="0 0 219.1 39" style="enable-background:new 0 0 219.1 39;" xml:space="preserve">
<style type="text/css">
	.st0{fill-rule:evenodd;clip-rule:evenodd;fill:#8CC83B;}
</style>
<path id="_420_Kingdom" class="st0" d="M44.3,29.2h2.3c0.4,0,0.8-0.3,0.8-0.8V25h2.4c0.4,0,0.8-0.3,0.8-0.8v-2
	c0-0.4-0.3-0.8-0.8-0.8h-2.4V10.3c0-0.4-0.3-0.8-0.8-0.8h-2.1c-0.5,0-0.9,0.3-1.1,0.7L34.7,21c-0.2,0.2-0.3,0.5-0.5,0.7
	c-0.1,0.2-0.1,0.4-0.1,0.6v2c0,0.4,0.3,0.8,0.8,0.8h8.7v3.4C43.5,28.8,43.9,29.2,44.3,29.2L44.3,29.2L44.3,29.2z M43.5,21.5h-4.8
	l4.8-6V21.5L43.5,21.5z M61.7,18.2l-8.3,7.2c-0.4,0.3-0.7,0.8-0.8,1.3v1.7c0,0.4,0.3,0.8,0.8,0.8h13.1c0.4,0,0.8-0.3,0.8-0.8v-2
	c0-0.4-0.3-0.8-0.8-0.8h-7.8l5.2-4.7c0.7-0.6,1.3-1.2,1.9-1.9c0.4-0.5,0.7-1,0.8-1.6c0.1-0.6,0.2-1.2,0.2-1.8c0-1-0.3-2.1-0.8-3
	c-0.5-1-1.3-1.8-2.3-2.4c-1.1-0.6-2.4-1-3.8-0.9c-1.2,0-2.4,0.3-3.5,0.8c-1,0.5-1.9,1.3-2.5,2.2c-0.6,0.9-1,2-1.1,3.1
	c0,0.2,0,0.4,0.2,0.5c0.2,0.1,0.4,0.2,0.6,0.2h2.2c0.2,0,0.4-0.1,0.5-0.2c0.2-0.1,0.3-0.3,0.3-0.5c0.2-0.8,0.5-1.4,1.1-2
	c1.3-1,3.1-0.9,4.5,0.1c0.5,0.5,0.8,1.3,0.7,2C63,16.6,62.5,17.6,61.7,18.2L61.7,18.2L61.7,18.2z M85.2,21.9c0-0.9,0.1-1.8,0.1-2.5
	s0-1.6-0.1-2.5c0-2-0.7-4-1.9-5.6c-1.2-1.3-3-2-5.6-2c-4.8,0-7.3,2.6-7.5,7.7c0,0.5,0,1.3,0,2.4c0,1.2,0,2,0,2.4c0,2,0.7,4,1.9,5.6
	c1.2,1.3,3,2,5.6,2s4.4-0.7,5.6-2C84.5,25.8,85.2,23.9,85.2,21.9L85.2,21.9L85.2,21.9z M77.6,25.9c-1,0.1-2-0.3-2.7-1.1
	c-0.7-0.9-1-2-1-3.2c0-0.9-0.1-1.7-0.1-2.4c0-0.6,0-1.4,0.1-2.4c0-1.1,0.4-2.2,1-3.2c1.6-1.4,3.9-1.4,5.5,0c0.7,0.9,1,2,1,3.2
	c0,0.5,0.1,1.3,0.1,2.4s0,1.9-0.1,2.4c0,1.1-0.4,2.2-1,3.2C79.7,25.6,78.7,26,77.6,25.9C77.6,25.9,77.6,25.9,77.6,25.9z M110.2,28
	l-8.1-9l7.5-8.2c0.1-0.1,0.2-0.3,0.2-0.4c0-0.4-0.3-0.8-0.8-0.8h-2.6c-0.2,0-0.5,0-0.7,0.2c-0.2,0.1-0.4,0.3-0.6,0.5l-6.1,6.7v-6.6
	c0-0.4-0.3-0.8-0.8-0.8h-2.3c-0.4,0-0.8,0.3-0.8,0.8v18.1c0,0.4,0.3,0.8,0.8,0.8h2.3c0.4,0,0.8-0.3,0.8-0.8v-7.3l6.6,7.4
	c0.2,0.2,0.4,0.3,0.5,0.5c0.2,0.1,0.5,0.2,0.7,0.2h2.7c0.4,0,0.8-0.3,0.8-0.8C110.4,28.3,110.3,28.1,110.2,28L110.2,28L110.2,28z
	 M113.7,29.2h2.3c0.4,0,0.8-0.3,0.8-0.8V10.3c0-0.4-0.3-0.8-0.8-0.8h-2.3c-0.4,0-0.8,0.3-0.8,0.8v18.1
	C112.9,28.8,113.3,29.2,113.7,29.2L113.7,29.2z M133.8,29.2h2c0.4,0,0.8-0.3,0.8-0.8V10.3c0-0.4-0.3-0.8-0.8-0.8h-2.3
	c-0.4,0-0.8,0.3-0.8,0.8v11.5l-7.8-11.6c-0.2-0.4-0.6-0.6-1.1-0.6h-2c-0.4,0-0.8,0.3-0.8,0.8v18.1c0,0.4,0.3,0.8,0.8,0.8h2.3
	c0.4,0,0.8-0.3,0.8-0.8V16.9l7.8,11.6C132.9,28.9,133.3,29.2,133.8,29.2L133.8,29.2L133.8,29.2z M148.6,9.3c-2.3-0.2-4.5,0.6-6.2,2
	c-1.5,1.4-2.3,3.4-2.3,5.5c0,0.5,0,1.3,0,2.5c0,1.2,0,2,0,2.5c0,2.1,0.8,4.1,2.3,5.6c1.4,1.4,3.5,2.1,6.2,2.1c1.6,0,3.2-0.3,4.7-1
	c1.2-0.6,2.2-1.5,2.9-2.7c0.7-1.2,1-2.6,1-4v-3.1c0-0.4-0.3-0.8-0.8-0.8H150c-0.4,0-0.8,0.3-0.8,0.8v2c0,0.4,0.3,0.8,0.8,0.8h3.4
	v0.2c0,2.9-1.6,4.3-4.7,4.3c-1.2,0.1-2.4-0.3-3.4-1.1c-0.9-0.9-1.4-2.1-1.3-3.3c0-0.5,0-1.2,0-2.3c0-1,0-1.8,0-2.3
	c0-1.2,0.5-2.3,1.4-3c0.9-0.8,2.1-1.2,3.3-1.1c2.2,0,3.7,0.8,4.5,2.3c0.1,0.3,0.4,0.5,0.8,0.5h2.3c0.2,0,0.4-0.1,0.6-0.2
	c0.2-0.1,0.2-0.3,0.2-0.5c-0.1-0.8-0.4-1.7-0.9-2.4c-0.7-1-1.6-1.7-2.6-2.2C152,9.5,150.3,9.2,148.6,9.3L148.6,9.3L148.6,9.3z
	 M176.7,17.3c0-2.1-0.8-4.2-2.3-5.7c-1.4-1.4-3.4-2-6.1-2h-6.9c-0.4,0-0.8,0.3-0.8,0.8v18.1c0,0.4,0.3,0.8,0.8,0.8h7.1
	c2.2,0.2,4.3-0.6,6-2c1.4-1.5,2.3-3.6,2.3-5.7c0-0.5,0.1-1.2,0.1-2.1C176.8,18.5,176.8,17.8,176.7,17.3L176.7,17.3z M168.2,13.1
	c1.3-0.1,2.5,0.3,3.5,1.1c0.8,0.8,1.3,1.9,1.3,3.1c0,0.5,0.1,1.2,0.1,2.1c0,0.9,0,1.6-0.1,2.1c0,1.1-0.5,2.2-1.2,3.1
	c-0.9,0.8-2.1,1.2-3.3,1.1h-3.9V13.1H168.2z M188,9.3c-2.2-0.2-4.4,0.6-6,2.1c-1.4,1.5-2.2,3.4-2.2,5.5c0,0.9-0.1,1.6-0.1,2.2
	c0,0.8,0,1.8,0.1,2.8c0,2,0.8,4,2.2,5.5c3.5,2.8,8.5,2.8,12,0c1.4-1.5,2.2-3.4,2.2-5.5c0-1,0.1-1.9,0.1-2.8c0-0.6,0-1.4-0.1-2.2
	c0-2-0.8-4-2.2-5.5C192.3,9.9,190.2,9.1,188,9.3L188,9.3L188,9.3z M188,12.8c2.3-0.2,4.3,1.6,4.4,3.8c0,0.1,0,0.3,0,0.4
	c0,0.5,0.1,1.3,0.1,2.4c0,1.1,0,1.9-0.1,2.4c0,1.2-0.5,2.3-1.3,3.1c-1.8,1.5-4.5,1.5-6.3,0c-0.8-0.8-1.3-1.9-1.3-3.1
	c0-0.9-0.1-1.7-0.1-2.4c0-0.6,0-1.4,0.1-2.4c0-2.3,1.8-4.2,4.1-4.2C187.7,12.8,187.8,12.8,188,12.8L188,12.8L188,12.8z M209.1,19.6
	l-5.3-9.2c-0.1-0.2-0.3-0.4-0.5-0.5c-0.2-0.2-0.5-0.2-0.7-0.2h-1.9c-0.4,0-0.8,0.3-0.8,0.8v18.1c0,0.4,0.3,0.8,0.8,0.8h2.3
	c0.4,0,0.8-0.3,0.8-0.8V17.5l3.6,6.3c0.2,0.4,0.6,0.7,1,0.7h1.5c0.4,0,0.8-0.3,1-0.7l3.6-6.3v10.9c0,0.4,0.3,0.8,0.8,0.8h2.3
	c0.4,0,0.8-0.3,0.8-0.8V10.3c0-0.4-0.3-0.8-0.8-0.8h-1.9c-0.3,0-0.5,0.1-0.7,0.2c-0.2,0.2-0.3,0.3-0.5,0.5L209.1,19.6z"/>
<path class="st0" d="M5.5,26.6c1-0.7,2.1-1.2,3.2-1.5c0,0.3,0,0.6,0,0.9C7.6,26.1,6.6,26.3,5.5,26.6L5.5,26.6L5.5,26.6z M21.8,26.6
	c-2.7-1.9-7.8-3.1-9.6-2.9c0.3-2.5,2.9-8.9,8.1-10.7c-4-3.7-5.7-9.7-6.5-12.3c-0.9,2.7-3.6,9.9-5.9,12.4c1.2,0.5,5.2-4.3,6.1-5.6
	c0.4,1,1.6,4.8,2.5,5.1c-3.8,3.5-7,7.6-7.2,13.4c1.5-0.2,2.9-0.2,4.4-0.2C16.4,25.7,19.2,26,21.8,26.6L21.8,26.6L21.8,26.6z
	 M4.2,14.1c0.8,1,1.6,2,2.2,3.1c-0.4,0.1-0.7,0.1-1.1,0.3C5.1,16.3,4.7,15.2,4.2,14.1L4.2,14.1z M7.5,18.8c0.5,1.7,0.9,3.3,1.2,5
	c0.2-1.6,0.7-3.2,1.4-4.7c-0.2-0.5-0.5-1-0.8-1.4c0.3-0.1,0.7-0.2,1-0.2c-0.4-0.5-1-0.8-1.6-0.7c-2.1-3.2-5.4-6.6-8.3-7.9
	c1.4,2.8,3,8.7,2.9,11.6C4.5,19.8,6.3,19.3,7.5,18.8L7.5,18.8L7.5,18.8z M19.1,21.9c0.5-2.9,2-5.6,4.1-7.7c-1.1,2.7-1.7,5.5-1.8,8.4
	C20.7,22.2,19.9,22,19.1,21.9L19.1,21.9L19.1,21.9z M23.6,26.5c-0.8-4.1,2-14.9,3.4-17.6c-2.4,0.7-10.4,8.3-10.9,14.4
	C18.9,23.6,21.5,24.7,23.6,26.5L23.6,26.5z M3.7,21.6c1.2,2.3,1.9,2.3,3.8,2.4c-1.4,0.5-2.7,1.3-3.8,2.3C4,24.7,4,23.2,3.7,21.6
	L3.7,21.6L3.7,21.6z M13.7,26.8c4.2-0.1,8.4,0.5,12.5,1.6c-3.8-0.3-8-0.5-12.5-0.5s-8.7,0.2-12.4,0.5C5.3,27.2,9.5,26.7,13.7,26.8
	L13.7,26.8z M13.7,38.4c-4.2,0.1-8.4-0.5-12.4-1.6c3.8,0.3,8,0.5,12.4,0.5s8.7-0.2,12.5-0.5C22.1,37.9,17.9,38.5,13.7,38.4
	C13.7,38.4,13.7,38.4,13.7,38.4z M5.6,29v2.9c0,0.4-0.1,0.8-0.4,1c0.1,0.4,0.1,0.9,0.2,1.3s0.1,0.9,0.2,1.4l-0.9-0.1
	c0-0.4-0.1-0.8-0.1-1.1s-0.1-0.8-0.1-1.1H4.3c-0.1,0-0.3,0-0.4,0v2.2L3,35.4v-6.2l0.9-0.1v3.3h0.4c0.1,0,0.2-0.1,0.3-0.2
	c0.1-0.1,0.1-0.2,0.1-0.4V29L5.6,29L5.6,29L5.6,29z M24.5,35.4c-0.3,0-0.6,0.1-0.9,0.1v-3.7c-0.3,0.4-0.6,0.8-0.9,1.2
	c-0.3-0.4-0.6-0.8-0.9-1.3v3.9c-0.3,0-0.6,0-0.9,0.1v-6.9c0.3,0.5,0.6,0.9,0.9,1.3c0.3,0.4,0.6,0.9,0.9,1.3c0.3-0.4,0.6-0.8,0.9-1.2
	s0.6-0.8,0.9-1.1L24.5,35.4C24.5,35.4,24.5,35.4,24.5,35.4z M17.8,30.3c0-0.4,0.1-0.8,0.4-1.1c0.2-0.3,0.6-0.4,0.9-0.4
	c0.4,0,0.7,0.2,0.9,0.5c0.3,0.3,0.4,0.7,0.4,1.1v4.1c0,0.4-0.1,0.8-0.4,1.1c-0.2,0.3-0.6,0.5-0.9,0.5c-0.4,0-0.7-0.1-0.9-0.4
	c-0.3-0.3-0.4-0.7-0.4-1.1V30.3L17.8,30.3L17.8,30.3z M18.7,30.3v4.2c0,0.1,0,0.3,0.1,0.4C18.9,35,19,35,19.1,35
	c0.1,0,0.2-0.1,0.3-0.2c0.1-0.1,0.1-0.3,0.1-0.4v-4.1c0-0.1,0-0.3-0.1-0.4c-0.1-0.1-0.2-0.2-0.3-0.2c-0.1,0-0.2,0.1-0.3,0.2
	C18.7,30,18.7,30.1,18.7,30.3L18.7,30.3L18.7,30.3z M15.5,29.8V35l0.4,0c0.1,0,0.2-0.1,0.3-0.2c0.1-0.1,0.1-0.3,0.1-0.4v-4
	c0-0.1,0-0.3-0.1-0.4c-0.1-0.1-0.2-0.2-0.3-0.2L15.5,29.8C15.5,29.8,15.5,29.8,15.5,29.8z M16,28.8L16,28.8z M16,28.8
	c0.4,0,0.7,0.2,0.9,0.5c0.2,0.3,0.4,0.7,0.4,1.1v4c0,0.4-0.1,0.8-0.4,1.1c-0.2,0.3-0.6,0.5-0.9,0.5h0c-0.4,0-0.8,0-1.3,0v-7.2
	C15.1,28.8,15.5,28.8,16,28.8L16,28.8L16,28.8z M12.5,32.8L12.5,32.8c0.2,0,0.4,0,0.5,0.1c0.1,0.1,0.3,0.2,0.4,0.3
	c0.1,0.1,0.2,0.2,0.3,0.3c0.1,0.1,0.2,0.2,0.3,0.3c0.1,0.1,0.2,0.2,0.3,0.2V35c-0.2,0-0.3-0.1-0.4-0.2c0,0.4-0.2,0.7-0.4,1
	c-0.2,0.2-0.5,0.4-0.8,0.4c-0.4,0-0.7-0.2-0.9-0.5c-0.3-0.3-0.4-0.7-0.4-1.1v-4.3c0-0.4,0.1-0.8,0.4-1.1c0.2-0.3,0.6-0.5,0.9-0.5
	c0.4,0,0.7,0.2,0.9,0.5c0.3,0.3,0.4,0.7,0.4,1.1v0.6h-0.9v-0.6c0-0.1,0-0.3-0.1-0.4c-0.1-0.2-0.3-0.2-0.5-0.1c0,0-0.1,0.1-0.1,0.1
	c-0.1,0.1-0.1,0.3-0.1,0.4v4.3c0,0.1,0,0.3,0.1,0.4c0.1,0.2,0.3,0.2,0.5,0.1c0,0,0.1-0.1,0.1-0.1c0.1-0.1,0.1-0.3,0.1-0.4v-0.7
	c-0.1-0.1-0.2-0.2-0.4-0.2c0,0,0,0,0,0L12.5,32.8L12.5,32.8L12.5,32.8z M8,28.7c0.3,0.4,0.6,0.9,0.9,1.3s0.6,0.9,0.9,1.4v-2.6l0.9,0
	V36c-0.3,0-0.6,0-0.9,0v-2.8c-0.3-0.5-0.6-0.9-0.9-1.4v4.2c-0.3,0-0.6,0-0.9,0V28.7C8,28.7,8,28.7,8,28.7z M6.4,29
	c0.3,0,0.6,0,0.9-0.1v6.9c-0.3,0-0.6,0-0.9-0.1V29L6.4,29z"/>
</svg>
