<svg xmlns="http://www.w3.org/2000/svg" width="15" height="17.593" viewBox="0 0 15 17.593">
  <defs>
    <style>
      .cls-1 {
        fill: #2d2e30;
        fill-rule: evenodd;
      }
    </style>
  </defs>
  <path id="icon" class="cls-1" d="M108.5,351.052h1.666a0.835,0.835,0,0,1,.833.838v10.056a0.836,0.836,0,0,1-.833.838H96.831A0.836,0.836,0,0,1,96,361.946V351.89a0.836,0.836,0,0,1,.833-0.838H98.5v-0.838a5,5,0,1,1,10,0v0.838Zm-10.834,1.676v8.379h11.667v-8.379H97.665Zm5,3.352h1.667v1.676h-1.667V356.08Zm-3.334,0H101v1.676H99.331V356.08Zm6.667,0h1.667v1.676H106V356.08Zm0.834-5.028v-0.838a3.334,3.334,0,1,0-6.667,0v0.838h6.667Z" transform="translate(-96 -345.188)"/>
</svg>
