<svg xmlns="http://www.w3.org/2000/svg" width="16.5" height="16.5" viewBox="0 0 16.5 16.5">
  <defs>
    <style>
      .cls-1 {
        fill: #2d2e30;
        fill-rule: evenodd;
      }
    </style>
  </defs>
  <path id="icon" class="cls-1" d="M101.085,426.292a9.672,9.672,0,0,0,3.622,3.622l0.81-1.135a0.918,0.918,0,0,1,1.187-.271,10.464,10.464,0,0,0,4.2,1.25,0.918,0.918,0,0,1,.845.915v4.089a0.917,0.917,0,0,1-.823.913,14.217,14.217,0,0,1-15.6-15.6,0.917,0.917,0,0,1,.912-0.823h4.09a0.915,0.915,0,0,1,.914.844,10.465,10.465,0,0,0,1.251,4.2,0.916,0.916,0,0,1-.272,1.186Zm-2.312-.6,1.742-1.244a12.252,12.252,0,0,1-1.006-3.362H97.092c-0.006.152-.008,0.3-0.008,0.458a12.373,12.373,0,0,0,12.374,12.375c0.154,0,.306,0,0.458-0.009V431.49a12.323,12.323,0,0,1-3.362-1l-1.244,1.741a11.432,11.432,0,0,1-1.455-.687l-0.054-.031a11.51,11.51,0,0,1-4.31-4.31l-0.03-.053A11.316,11.316,0,0,1,98.773,425.689Z" transform="translate(-95.25 -419.25)"/>
</svg>
