<svg xmlns="http://www.w3.org/2000/svg" width="16.626" height="16.188" viewBox="0 0 16.626 16.188">
  <defs>
    <style>
      .cls-1 {
        fill: #2d2e30;
        fill-rule: evenodd;
      }
    </style>
  </defs>
  <path id="icon" class="cls-1" d="M98.321,795.029h11.818V785.06H96.857v11.12Zm0.574,1.662L95.2,799.6v-15.37a0.83,0.83,0,0,1,.83-0.831h14.942a0.831,0.831,0,0,1,.83.831V795.86a0.831,0.831,0,0,1-.83.831H98.9Zm3.772-4.154h1.661V794.2h-1.661v-1.661Zm-2.019-4.31a2.906,2.906,0,1,1,2.849,3.479h-0.83v-1.661h0.83a1.247,1.247,0,1,0-1.22-1.491Z" transform="translate(-95.188 -783.406)"/>
</svg>
