<svg xmlns="http://www.w3.org/2000/svg" width="16.626" height="16.625" viewBox="0 0 16.626 16.625">
  <defs>
    <style>
      .cls-1 {
        fill: #2d2e30;
        fill-rule: evenodd;
      }
    </style>
  </defs>
  <path id="icon" class="cls-1" d="M104.5,726.8a8.3,8.3,0,1,1,8.3-8.3A8.3,8.3,0,0,1,104.5,726.8Zm0-1.661a6.641,6.641,0,1,0-6.641-6.641A6.64,6.64,0,0,0,104.5,725.138Zm-0.83-4.15h1.66v1.66h-1.66v-1.66Zm1.66-1.366v0.535h-1.66v-1.245a0.83,0.83,0,0,1,.83-0.83,1.245,1.245,0,1,0-1.222-1.489l-1.628-.326A2.906,2.906,0,1,1,105.327,719.622Z" transform="translate(-96.188 -710.188)"/>
</svg>
