<svg id="pin" xmlns="http://www.w3.org/2000/svg" width="64" height="75" viewBox="0 0 64 75">
  <defs>
    <style>
      .cls-1 {
        fill: #ffc000;
        stroke: #fff;
        stroke-linejoin: round;
        stroke-width: 3px;
      }

      .cls-1, .cls-2 {
        fill-rule: evenodd;
      }

      .cls-2 {
        fill: #fff;
      }
    </style>
  </defs>
  <path class="cls-1" d="M33.2,5.333A27.99,27.99,0,0,1,61.535,30.6c0.99,9.425-2.391,17.218-9.159,23.742-5.821,5.611-11.483,11.388-17.216,17.09C33.5,73.087,33.478,73.1,31.8,71.393c-6.52-6.66-13.544-12.852-19.616-19.919-7-8.152-8.683-17.673-4.95-27.746C11.043,13.463,18.686,7.5,29.492,5.635A20.487,20.487,0,0,1,33.2,5.333Z" transform="translate(-1.5 -1.5)"/>
  <path id="Shape_4_copy" data-name="Shape 4 copy" class="cls-2" d="M29.535,21.872H40.629a1.072,1.072,0,0,1,1.135,1.118q0,2.582,0,5.163a0.7,0.7,0,0,0,.693.5c1.05,0,1.594,0,2.644,0a8.179,8.179,0,0,1,4.627,1.322,8.274,8.274,0,0,1,1.983,1.983,6.023,6.023,0,0,1,1.322,1.983c0.023,0.591,0,1.4,0,1.983-0.015,1.609,0,3.018,0,4.627,0,0.7-.015,1.281,0,1.983a1.476,1.476,0,0,1-1.207,1.306c-0.386-.029-0.776,0-1.164-0.008a0.222,0.222,0,0,0-.242.159,3.149,3.149,0,0,1-2.089,1.89,3.38,3.38,0,0,1-2.538-.2A3.458,3.458,0,0,1,44.469,44.5a1.878,1.878,0,0,1-.235-0.446,0.318,0.318,0,0,0-.35-0.224c-1.427.007-2.853,0-4.28,0q-5.5,0-10.991-.006a0.47,0.47,0,0,0-.513.311,2.777,2.777,0,0,1-.7.987,3.684,3.684,0,0,1-1.3.753,3.4,3.4,0,0,1-1.754.089,3.088,3.088,0,0,1-1.7-.934,3.642,3.642,0,0,1-.676-1.007,0.3,0.3,0,0,0-.315-0.2c-1.1.006-2.2,0-3.3,0a1.034,1.034,0,0,1-1.085-1.074q0-6.166,0-12.334c0-2.479.009-4.96-.006-7.44a1.1,1.1,0,0,1,1.137-1.119C22.106,21.878,25.821,21.872,29.535,21.872Zm-0.3,2.154h0c-1.86,0-3.427,0-5.288,0-1.392,0-2.574,0-3.966,0a0.612,0.612,0,0,0-.661.661v1.322c0,2.065,0,4.545,0,6.61,0,3.026,0,5.567,0,8.593a0.526,0.526,0,0,0,.661.661c0.588,0,.734-0.015,1.322,0a0.671,0.671,0,0,0,.687-0.537,4.216,4.216,0,0,1,1.3-1.446,2.346,2.346,0,0,1,1.384-.467,3.364,3.364,0,0,1,1.2.073,3.4,3.4,0,0,1,1.382.706,2.361,2.361,0,0,1,.657,1.01,0.588,0.588,0,0,0,.661.661c0.79-.006,1.208,0,1.983,0h8.593a0.557,0.557,0,0,0,.661-0.661c0-5.658,0-10.867,0-16.525a0.618,0.618,0,0,0-.661-0.661c-1.261-.029-2.705,0-3.966,0H29.238ZM46.425,35.263H49.73c0.583,0.062.636-.012,0.717-0.507a5.294,5.294,0,0,0-.426-1.08,5.476,5.476,0,0,0-2.167-2.253A5.7,5.7,0,0,0,44.9,30.67c-0.953.006-1.905,0-2.858,0-0.24,0-.241,0-0.241.231q0,1.949,0,3.9c0,0.481.279,0.463,0.661,0.463h3.966Zm-0.2,2.021q-2,0-4,0c-0.46,0-.419-0.061-0.419.416,0,0.911,0,1.822,0,2.733,0,0.342-.031,1.1-0.005,1.44,0.008,0.1-.09,0,0,0,0.634,0,1.35-.016,1.983,0a0.647,0.647,0,0,0,.661-0.661,2.388,2.388,0,0,1,.867-1.167,3.132,3.132,0,0,1,1.482-.606,3.589,3.589,0,0,1,1.587.126,2.368,2.368,0,0,1,1.353.985,3.789,3.789,0,0,1,.661.661,3.2,3.2,0,0,0,0,.661,2.732,2.732,0,0,0,.661,0,4.008,4.008,0,0,1,0-.661c0-1.164,0-2.141,0-3.305a0.9,0.9,0,0,0-.687-0.623H46.222Zm0.046,5.491a0.883,0.883,0,0,0,.109.473,1.1,1.1,0,0,0,.981.562,1.16,1.16,0,0,0,1.061-1.057,1.071,1.071,0,0,0-.657-0.975,1.026,1.026,0,0,0-1.218.3A1.158,1.158,0,0,0,46.267,42.775ZM23.98,42.717A1.086,1.086,0,0,0,26.112,43a1.1,1.1,0,0,0-.643-1.258A1.137,1.137,0,0,0,23.98,42.717Z" transform="translate(-1.5 -1.5)"/>
</svg>
