<svg xmlns="http://www.w3.org/2000/svg" width="15" height="16.625" viewBox="0 0 15 16.625">
  <defs>
    <style>
      .cls-1 {
        fill: #2d2e30;
        fill-rule: evenodd;
      }
    </style>
  </defs>
  <path class="cls-1" d="M110.165,653.8H96.831A0.831,0.831,0,0,1,96,652.969V638.027a0.831,0.831,0,0,1,.833-0.83h13.334a0.831,0.831,0,0,1,.833.83v14.942A0.831,0.831,0,0,1,110.165,653.8Zm-0.833-1.66V638.857H97.665v13.281h11.667Zm-9.167-10.791h6.667v1.66h-6.667v-1.66Zm0,3.32h6.667v1.661h-6.667v-1.661Zm0,3.321h6.667v1.66h-6.667v-1.66Z" transform="translate(-96 -637.188)"/>
</svg>
