<?xml version="1.0" encoding="utf-8"?>
<!-- Generator: Adobe Illustrator 23.0.6, SVG Export Plug-In . SVG Version: 6.00 Build 0)  -->
<svg version="1.1" id="Layer_1" xmlns="http://www.w3.org/2000/svg" xmlns:xlink="http://www.w3.org/1999/xlink" x="0px" y="0px"
	 viewBox="0 0 200 33" style="enable-background:new 0 0 200 33;" xml:space="preserve">
<style type="text/css">
	.st0{enable-background:new    ;}
	.st1{fill:#8CC83B;}
	.st2{fill-rule:evenodd;clip-rule:evenodd;fill:#8CC83B;}
</style>
<g id="_420_Kingdom" class="st0">
	<path class="st1" d="M51,25.5c-0.1-0.1-0.2-0.3-0.2-0.4v-3.2H43c-0.2,0-0.3-0.1-0.4-0.2c-0.1-0.1-0.2-0.3-0.2-0.4v-1.7
		c0-0.3,0.1-0.5,0.3-0.7L50,8.7c0.1-0.1,0.2-0.2,0.4-0.3c0.2-0.1,0.3-0.1,0.5-0.1h2.7c0.2,0,0.3,0.1,0.4,0.2
		c0.1,0.1,0.2,0.3,0.2,0.4v10.1h2.2c0.2,0,0.3,0.1,0.4,0.2c0.1,0.1,0.2,0.3,0.2,0.4v1.7c0,0.2-0.1,0.3-0.2,0.4
		c-0.1,0.1-0.3,0.2-0.4,0.2h-2.2V25c0,0.2-0.1,0.3-0.2,0.4c-0.1,0.1-0.3,0.2-0.4,0.2h-2.2C51.3,25.6,51.2,25.6,51,25.5z M50.9,19
		v-7.2L45.8,19H50.9z"/>
	<path class="st1" d="M59.1,25.5C59,25.3,59,25.2,59,25v-1.3c0-0.4,0.2-0.8,0.6-1.2l3.9-3.9c1.7-1.3,2.9-2.4,3.6-3.1
		c0.7-0.8,1-1.5,1-2.2c0-0.8-0.2-1.4-0.6-1.8c-0.4-0.4-1.1-0.7-1.9-0.7c-0.8,0-1.5,0.2-2,0.7c-0.5,0.5-0.8,1.1-0.9,1.9
		c0,0.2-0.1,0.3-0.3,0.4C62.3,14,62.1,14,62,14h-2.2c-0.1,0-0.3,0-0.4-0.1c-0.1-0.1-0.1-0.2-0.1-0.3c0-1,0.3-1.9,0.8-2.7
		c0.5-0.9,1.2-1.5,2.2-2.1C63.1,8.2,64.2,8,65.5,8c1.3,0,2.4,0.2,3.4,0.7c0.9,0.5,1.6,1.1,2.1,1.9c0.5,0.8,0.7,1.7,0.7,2.7
		c0,1.1-0.3,2.1-0.9,3c-0.6,0.9-1.6,1.9-2.8,2.9l-3.5,3.6h7.1c0.2,0,0.3,0.1,0.4,0.2c0.1,0.1,0.2,0.3,0.2,0.4V25
		c0,0.2-0.1,0.3-0.2,0.4c-0.1,0.1-0.3,0.2-0.4,0.2H59.6C59.4,25.6,59.2,25.6,59.1,25.5z"/>
	<path class="st1" d="M76.4,24c-1.1-1.2-1.7-2.8-1.8-4.8c0-0.4,0-1.2,0-2.3c0-1.1,0-1.9,0-2.3c0.1-2,0.7-3.5,1.8-4.8
		C77.5,8.6,79.2,8,81.3,8c2.2,0,3.8,0.6,4.9,1.8c1.1,1.2,1.7,2.8,1.8,4.8c0,0.5,0,1.2,0,2.3c0,1.1,0,1.8,0,2.3
		c-0.1,2-0.7,3.6-1.8,4.8c-1.1,1.2-2.7,1.8-5,1.8C79.1,25.9,77.5,25.3,76.4,24z M83.7,22c0.5-0.7,0.8-1.7,0.8-2.9c0-1,0-1.7,0-2.2
		c0-0.5,0-1.3,0-2.2c0-1.2-0.3-2.2-0.8-2.9s-1.3-1-2.3-1c-1,0-1.8,0.3-2.3,1c-0.5,0.7-0.8,1.7-0.8,2.9c0,0.4,0,1.2,0,2.2
		c0,1,0,1.7,0,2.2c0,1.2,0.3,2.2,0.8,2.9c0.5,0.7,1.3,1,2.3,1C82.4,23,83.2,22.7,83.7,22z"/>
	<path class="st1" d="M97.3,25.5c-0.1-0.1-0.2-0.3-0.2-0.4V8.9c0-0.2,0.1-0.3,0.2-0.4c0.1-0.1,0.3-0.2,0.4-0.2h2.2
		c0.2,0,0.3,0.1,0.4,0.2c0.1,0.1,0.2,0.3,0.2,0.4v5.8l5.6-6c0.2-0.3,0.5-0.4,1-0.4h2.5c0.1,0,0.3,0,0.4,0.1c0.1,0.1,0.2,0.2,0.2,0.4
		c0,0.1,0,0.2-0.1,0.3l-6.8,7.5l7.3,8.2c0.1,0.1,0.1,0.2,0.1,0.3c0,0.1-0.1,0.3-0.2,0.4c-0.1,0.1-0.2,0.1-0.4,0.1h-2.6
		c-0.4,0-0.7-0.1-1-0.4l-6-6.6V25c0,0.2-0.1,0.3-0.2,0.4c-0.1,0.1-0.3,0.2-0.4,0.2h-2.2C97.6,25.6,97.4,25.6,97.3,25.5z"/>
	<path class="st1" d="M112.6,10.4c-0.1-0.1-0.2-0.3-0.2-0.4V8.2c0-0.2,0.1-0.3,0.2-0.4c0.1-0.1,0.3-0.2,0.4-0.2h2.3
		c0.2,0,0.3,0.1,0.4,0.2c0.1,0.1,0.2,0.3,0.2,0.4V10c0,0.2-0.1,0.3-0.2,0.4c-0.1,0.1-0.3,0.2-0.4,0.2H113
		C112.9,10.6,112.7,10.5,112.6,10.4z M112.7,25.5c-0.1-0.1-0.2-0.3-0.2-0.4V13.3c0-0.2,0.1-0.3,0.2-0.4c0.1-0.1,0.3-0.2,0.4-0.2h2.1
		c0.2,0,0.3,0.1,0.4,0.2c0.1,0.1,0.2,0.3,0.2,0.4V25c0,0.2-0.1,0.3-0.2,0.4c-0.1,0.1-0.3,0.2-0.4,0.2h-2.1
		C113,25.6,112.8,25.6,112.7,25.5z"/>
	<path class="st1" d="M119.2,25.5c-0.1-0.1-0.2-0.3-0.2-0.4V13.3c0-0.2,0.1-0.3,0.2-0.4c0.1-0.1,0.3-0.2,0.4-0.2h2
		c0.2,0,0.3,0.1,0.4,0.2c0.1,0.1,0.2,0.3,0.2,0.4v1c1-1.2,2.4-1.9,4.1-1.9c1.5,0,2.7,0.5,3.6,1.5c0.9,1,1.3,2.4,1.3,4.1v7
		c0,0.2-0.1,0.3-0.2,0.4c-0.1,0.1-0.3,0.2-0.4,0.2h-2.2c-0.2,0-0.3-0.1-0.4-0.2c-0.1-0.1-0.2-0.3-0.2-0.4v-6.8c0-1-0.2-1.7-0.7-2.3
		c-0.5-0.5-1.2-0.8-2-0.8c-0.9,0-1.6,0.3-2.1,0.8c-0.5,0.5-0.8,1.3-0.8,2.3V25c0,0.2-0.1,0.3-0.2,0.4c-0.1,0.1-0.3,0.2-0.4,0.2h-2.2
		C119.5,25.6,119.4,25.6,119.2,25.5z"/>
	<path class="st1" d="M136.8,30.4c-0.9-0.5-1.6-1-1.9-1.7c-0.4-0.6-0.6-1.2-0.6-1.6c0-0.1,0.1-0.3,0.2-0.4c0.1-0.1,0.3-0.2,0.4-0.2
		h2.2c0.1,0,0.3,0,0.4,0.1c0.1,0.1,0.2,0.2,0.3,0.4c0.2,0.4,0.4,0.8,0.8,1.1c0.4,0.3,1,0.5,1.7,0.5c1,0,1.7-0.2,2.2-0.7
		c0.5-0.4,0.7-1.2,0.7-2.3v-1.7c-0.9,1.1-2.2,1.6-3.8,1.6c-1.7,0-3-0.5-3.9-1.6c-0.9-1.1-1.3-2.5-1.4-4.3l0-0.7l0-0.7
		c0.1-1.8,0.5-3.2,1.4-4.3s2.2-1.6,3.9-1.6c0.9,0,1.6,0.2,2.3,0.5c0.7,0.3,1.2,0.8,1.7,1.4v-1c0-0.2,0.1-0.3,0.2-0.4
		c0.1-0.1,0.3-0.2,0.4-0.2h2c0.2,0,0.3,0.1,0.4,0.2c0.1,0.1,0.2,0.3,0.2,0.4l0,12c0,1.8-0.5,3.3-1.5,4.3c-1,1-2.6,1.5-4.6,1.5
		C138.9,31.1,137.7,30.8,136.8,30.4z M142.4,22c0.5-0.6,0.7-1.3,0.8-2.2c0-0.1,0-0.4,0-0.8c0-0.4,0-0.7,0-0.8
		c-0.1-0.9-0.3-1.6-0.8-2.2c-0.5-0.6-1.2-0.9-2.1-0.9c-1.8,0-2.7,1.1-2.8,3.3l0,0.6c0,1.2,0.2,2.1,0.6,2.8c0.4,0.7,1.2,1.1,2.2,1.1
		C141.2,22.9,141.9,22.6,142.4,22z"/>
	<path class="st1" d="M150.8,24.3c-0.9-1.1-1.4-2.5-1.4-4.3l0-0.8l0-0.8c0-1.7,0.5-3.2,1.4-4.2c0.9-1.1,2.2-1.6,3.9-1.6
		c1.6,0,2.9,0.5,3.8,1.6V8.6c0-0.2,0.1-0.3,0.2-0.4c0.1-0.1,0.3-0.2,0.4-0.2h2.1c0.2,0,0.3,0.1,0.4,0.2c0.1,0.1,0.2,0.3,0.2,0.4V25
		c0,0.2-0.1,0.3-0.2,0.4c-0.1,0.1-0.3,0.2-0.4,0.2h-2c-0.2,0-0.3-0.1-0.4-0.2c-0.1-0.1-0.2-0.3-0.2-0.4v-0.9c-0.9,1.2-2.3,1.8-4,1.8
		C153,25.9,151.7,25.3,150.8,24.3z M157.7,22.3c0.5-0.6,0.7-1.4,0.8-2.3c0-0.2,0-0.5,0-1c0-0.4,0-0.7,0-0.9c0-0.8-0.3-1.5-0.8-2.1
		c-0.5-0.6-1.2-0.9-2.1-0.9c-1.8,0-2.7,1.1-2.9,3.3l0,0.7l0,0.7c0.1,2.2,1.1,3.3,2.9,3.3C156.5,23.2,157.2,22.9,157.7,22.3z"/>
	<path class="st1" d="M166.3,24.4c-1.1-1-1.6-2.4-1.7-4.1l0-1.1l0-1.1c0.1-1.7,0.7-3.1,1.7-4.1c1.1-1,2.6-1.5,4.5-1.5
		c1.9,0,3.4,0.5,4.5,1.5c1.1,1,1.7,2.4,1.7,4.1c0,0.2,0,0.6,0,1.1c0,0.5,0,0.9,0,1.1c-0.1,1.7-0.7,3.1-1.7,4.1
		c-1.1,1-2.6,1.5-4.5,1.5C168.8,25.9,167.3,25.4,166.3,24.4z M172.8,22.6c0.5-0.6,0.7-1.4,0.8-2.4c0-0.2,0-0.5,0-1c0-0.5,0-0.8,0-1
		c-0.1-1.1-0.3-1.9-0.8-2.4c-0.5-0.6-1.2-0.8-2-0.8c-0.9,0-1.6,0.3-2,0.8c-0.5,0.6-0.7,1.4-0.8,2.4l0,1l0,1c0.1,1.1,0.3,1.9,0.8,2.4
		c0.5,0.6,1.2,0.8,2,0.8C171.7,23.4,172.3,23.1,172.8,22.6z"/>
	<path class="st1" d="M179.9,25.5c-0.1-0.1-0.2-0.3-0.2-0.4V13.3c0-0.2,0.1-0.3,0.2-0.4c0.1-0.1,0.3-0.2,0.4-0.2h1.9
		c0.2,0,0.3,0.1,0.4,0.2c0.1,0.1,0.2,0.3,0.2,0.4v0.8c0.9-1.1,2.1-1.7,3.6-1.7c1.8,0,3.1,0.7,3.8,2.2c0.4-0.7,1-1.2,1.7-1.6
		c0.7-0.4,1.5-0.6,2.4-0.6c1.4,0,2.5,0.5,3.3,1.4c0.9,0.9,1.3,2.3,1.3,4V25c0,0.2-0.1,0.3-0.2,0.4c-0.1,0.1-0.3,0.2-0.4,0.2h-2
		c-0.2,0-0.3-0.1-0.4-0.2c-0.1-0.1-0.2-0.3-0.2-0.4v-6.9c0-1-0.2-1.8-0.7-2.3c-0.4-0.5-1-0.7-1.7-0.7c-0.6,0-1.2,0.2-1.7,0.7
		c-0.5,0.5-0.7,1.2-0.7,2.3V25c0,0.2-0.1,0.3-0.2,0.4c-0.1,0.1-0.3,0.2-0.4,0.2h-2c-0.2,0-0.3-0.1-0.4-0.2c-0.1-0.1-0.2-0.3-0.2-0.4
		v-6.9c0-1-0.2-1.8-0.7-2.3c-0.5-0.5-1-0.7-1.7-0.7c-0.7,0-1.2,0.2-1.7,0.7c-0.5,0.5-0.7,1.2-0.7,2.3V25c0,0.2-0.1,0.3-0.2,0.4
		c-0.1,0.1-0.3,0.2-0.4,0.2h-2.1C180.2,25.6,180.1,25.6,179.9,25.5z"/>
</g>
<path class="st2" d="M17.5,30.7c0-0.5,0-1.1-0.1-1.6c0-0.5-0.4-1-1-1c-0.1,0-0.2,0-0.3,0c-0.6,0.1-1.2,0.2-1.8,0.3
	c-1.7,0.4-3.4,0.7-5,1.1c-0.1,0.1-0.2,0.1-0.3,0c0-0.1,0-0.2,0-0.3c0.2-0.6,0.5-1.3,0.7-1.9c0.3-0.7,0.1-1.6-0.6-2
	c-1.6-1.3-3.2-2.6-4.8-3.8c-1-0.8-2-1.5-2.9-2.3c-0.3-0.2-0.2-0.3,0.1-0.4c0.3-0.1,0.7-0.2,1-0.3c1-0.3,1.2-0.7,0.9-1.7
	c-0.4-1.4-0.9-2.8-1.3-4.1c0-0.1,0-0.1-0.1-0.2c-0.1-0.2,0-0.3,0.2-0.2c0.2,0.1,0.4,0.1,0.6,0.2C4,12.7,5.1,13,6.3,13.2
	c0.5,0.2,1.2,0,1.4-0.5c0-0.1,0-0.1,0.1-0.2C8,12,8.2,11.5,8.4,11.1c0.1-0.3,0.2-0.3,0.4-0.1c0.9,1,1.8,2,2.6,3
	c0.2,0.3,0.5,0.6,0.9,0.8c0.2,0.2,0.4,0.1,0.6,0c0.1-0.1,0.1-0.2,0.1-0.4c0-0.8-0.1-1.6-0.3-2.3c-0.4-2.3-0.8-4.6-1.3-6.8
	c-0.1-0.3,0-0.4,0.3-0.2c0.7,0.3,1.4,0.7,2.1,1.1c1,0.6,1.2,0.5,1.7-0.5c0.9-1.6,1.7-3.3,2.6-4.9c0-0.1,0.1-0.2,0.2-0.3
	c0.2,0,0.2,0.2,0.2,0.3c0.9,1.7,1.8,3.4,2.6,5c0,0,0,0,0,0c0.4,0.8,0.7,0.9,1.4,0.4c0.7-0.5,1.5-0.9,2.3-1.2C25,5,25.1,5,25.2,5
	c0.1,0.1,0,0.2,0,0.3c-0.5,2.6-1,5.3-1.5,7.9c-0.1,0.4-0.1,0.8-0.1,1.2c0,0.2,0,0.4,0.2,0.5c0.2,0.1,0.4,0,0.6-0.1
	c0.4-0.3,0.8-0.7,1.1-1.1c0.7-0.9,1.5-1.8,2.3-2.6c0.2-0.2,0.3-0.2,0.4,0.1c0.2,0.6,0.5,1.1,0.8,1.7c0.1,0.3,0.5,0.5,0.8,0.5
	c0.9-0.1,1.8-0.3,2.6-0.5c0.6-0.1,1.2-0.3,1.8-0.4c0.1-0.1,0.2-0.1,0.3,0c0,0.1,0,0.2,0,0.3c-0.4,1.3-0.8,2.6-1.3,4
	c-0.1,0.3-0.1,0.5-0.2,0.8c-0.1,0.4,0.1,0.9,0.6,1c0.5,0.2,0.9,0.4,1.4,0.5c0.1,0,0.2,0.1,0.3,0.2c0,0.1-0.1,0.2-0.2,0.2
	c-2.4,1.9-4.8,3.8-7.1,5.6c-0.4,0.3-0.7,0.6-1,0.9c-0.3,0.4-0.4,0.8-0.3,1.3c0.2,0.7,0.5,1.4,0.8,2.1c0.1,0.1,0.1,0.2,0.1,0.3
	c-0.1,0.1-0.2,0.1-0.3,0.1c0,0,0,0-0.1-0.1c-2-0.4-4.1-0.9-6.1-1.3c-0.1,0-0.1,0-0.2,0c-1.2-0.1-1.7,0.3-1.8,1.5c0,0.8,0,1.6,0,2.5
	c0,0.3-0.1,0.4-0.3,0.4c-0.3,0-0.6,0-0.9,0c-0.2,0-0.4-0.1-0.4-0.2c0-0.1,0-0.1,0-0.2C17.5,31.8,17.5,31.3,17.5,30.7z M16.2,15
	c0,2.2,0.6,4.4,1.8,6.2c0.3,0.4,0.3,0.4,0.6,0c1.6-2.5,2.2-5.4,1.7-8.3c-0.4-2.2-1-4.4-1.9-6.5c0-0.1-0.1-0.2-0.1-0.2
	c-0.1,0-0.1,0.1-0.2,0.2c-0.2,0.5-0.4,1-0.6,1.5C16.7,10.3,16.2,12.6,16.2,15z M16.4,22.5c-1.5-2.5-8-6.9-10.7-7.1
	c1.1,2,2.6,3.7,4.3,5C11.9,21.7,14.1,22.4,16.4,22.5L16.4,22.5z M30.7,15.4c-4.2,1.2-7.8,3.7-10.6,7.1c2-0.1,4-0.6,5.8-1.7
	C28,19.4,29.6,17.6,30.7,15.4z M11.3,27.7c0.1,0,0.1,0,0.1,0c1.4-0.2,2.7-0.7,3.8-1.4c0.8-0.4,1.4-1.1,1.7-1.9
	c0.1-0.1,0.1-0.2,0-0.3c-0.1-0.1-0.2-0.1-0.3,0c-0.9,0.2-1.7,0.5-2.5,0.9c-1.1,0.6-2.2,1.4-3,2.5c-0.1,0.1-0.1,0.1-0.1,0.2
	C11.2,27.7,11.2,27.7,11.3,27.7z M25.1,27.7c0.2,0,0.3,0,0.3,0c0-0.1,0-0.1-0.1-0.2c-1.4-1.7-3.3-2.9-5.5-3.4
	c-0.1-0.1-0.2-0.1-0.3,0c-0.1,0.1-0.1,0.2,0,0.3c0,0,0,0,0,0c0.2,0.4,0.4,0.8,0.7,1.1C21.7,26.7,23.3,27.5,25.1,27.7z"/>
</svg>
