<?xml version="1.0" encoding="utf-8"?>
<!-- Generator: Adobe Illustrator 23.0.6, SVG Export Plug-In . SVG Version: 6.00 Build 0)  -->
<svg version="1.1" id="Layer_1" xmlns="http://www.w3.org/2000/svg" xmlns:xlink="http://www.w3.org/1999/xlink" x="0px" y="0px"
	 viewBox="0 0 200 179" style="enable-background:new 0 0 200 179;" xml:space="preserve">
<style type="text/css">
	.st0{fill-rule:evenodd;clip-rule:evenodd;fill:#FFFFFF;}
</style>
<path class="st0" d="M181,100.2v59.8h9v17.7H10v-17.7h9v-59.8C7.8,92.9,1,80.5,1,67.1c0-7.2,2-14.3,5.7-20.4L31.1,5.1
	c1.6-2.7,4.6-4.4,7.8-4.4h122.2c3.2,0,6.2,1.7,7.8,4.4l24.3,41.5C204.4,64.8,198.9,88.6,181,100.2z M163,106.7
	c-17.9-16.2-45.2-16.1-63,0.3c-17.8-16.4-45.1-16.5-63-0.3v53.4H163V106.7L163,106.7L163,106.7z M44.1,18.4L22.2,55.7
	C17.6,67,23.1,79.9,34.4,84.4c0.1,0,0.2,0.1,0.2,0.1c10.3,4.1,22,0.2,27.8-9.2c1.9-4.6,7.2-6.8,11.9-4.8c2.2,0.9,3.9,2.7,4.8,4.8
	c4.7,11.4,17.7,16.9,29.2,12.4c5.7-2.2,10.3-6.7,12.6-12.4c1.9-4.6,7.2-6.8,11.9-4.8c2.2,0.9,3.9,2.7,4.8,4.8
	c4.8,11.4,17.9,16.8,29.3,12.2c11.3-4.4,16.9-17.2,12.5-28.6c0-0.1-0.1-0.2-0.1-0.3c-0.4-1.1-1-2.1-1.6-3.1l-21.8-37.2H44.1z"/>
</svg>
