<svg xmlns="http://www.w3.org/2000/svg" width="51.406" height="60.438" viewBox="0 0 51.406 60.438">
  <defs>
    <style>
      .cls-1 {
        fill: #fff;
        fill-rule: evenodd;
      }
    </style>
  </defs>
  <path class="cls-1" d="M9.289,41.166c-2.654-.758-4.682-2.36-7.008-3.374A3.153,3.153,0,0,1,.1,34.506a3.21,3.21,0,0,1,2.9-2.871,27.071,27.071,0,0,1,5.79-.5A2.359,2.359,0,0,0,10.077,31c-0.8-1.046-1.58-2.055-2.347-3.073a25.007,25.007,0,0,1-2.922-4.936A23.393,23.393,0,0,0,2.944,19.5a4.441,4.441,0,0,1-.8-1.894,3.068,3.068,0,0,1,4.367-3.341,40.2,40.2,0,0,1,10.551,6.807c0.471,0.415.934,0.839,1.4,1.253a2.436,2.436,0,0,0,.346.192c0.079-1.23.173-2.4,0.225-3.57a47.833,47.833,0,0,1,2.845-13.8c0.271-.771.53-1.547,0.839-2.3A3.234,3.234,0,0,1,26.255.8a3.11,3.11,0,0,1,2.691,2.953,18.392,18.392,0,0,0,1.095,4.756,31.924,31.924,0,0,1,1.719,9.231c0.125,1.748.244,3.5,0.38,5.444,0.961-.872,1.775-1.628,2.608-2.362a40.443,40.443,0,0,1,10.195-6.5,3.091,3.091,0,0,1,3.755.747,3.053,3.053,0,0,1,.237,3.769c-1.427,1.954-2.148,4.259-3.334,6.325-1.175,2.046-2.7,3.852-4.069,5.831a1.363,1.363,0,0,0,.984.143,28.416,28.416,0,0,1,6.347.573,3.183,3.183,0,0,1,2.6,2.745,3.1,3.1,0,0,1-1.868,3.2c-2.284,1.032-4.358,2.5-6.757,3.289-0.6.2-.483,0.444-0.048,0.726a21.394,21.394,0,0,1,2.82,2.195,3.126,3.126,0,0,1-2.13,5.531,26.566,26.566,0,0,1-5.051-.35c-0.588-.1-0.78.043-0.668,0.685a2.974,2.974,0,0,1-1.315,3.2,3.064,3.064,0,0,1-3.537-.029L30.62,51.5a9.166,9.166,0,0,0,1.133,2.871A6.569,6.569,0,0,1,32.9,58a3.09,3.09,0,0,1-1.6,2.711,3.876,3.876,0,0,1-5.473-1.821,35.853,35.853,0,0,1-2.9-8.138c-0.119-.538-0.33-0.584-0.749-0.221a23.648,23.648,0,0,1-3.713,2.561,3.032,3.032,0,0,1-3.534-.108,2.923,2.923,0,0,1-1.184-3.323c0.214-.776-0.25-0.694-0.707-0.61a25.657,25.657,0,0,1-5.052.339,3.138,3.138,0,0,1-2.048-5.583C6.973,42.941,8.052,42.138,9.289,41.166ZM8.546,46A26.075,26.075,0,0,0,21.4,43.026c-0.822,1.117-1.734,2.1-2.459,3.226a16.164,16.164,0,0,0-1.889,3.843,18.437,18.437,0,0,0,7.8-8.147,0.835,0.835,0,0,1,.285.861,27.081,27.081,0,0,0,.634,5.7c0.622,2.919,1.176,5.872,2.841,8.432,0.223,0.341.259,1.217,0.813,0.911s0.02-.953-0.211-1.376c-2.549-4.652-3.251-9.72-3.367-14.921-0.006-.263-0.1-0.67.242-0.73s0.373,0.357.477,0.6A17.584,17.584,0,0,0,31.5,47.994,20.452,20.452,0,0,0,34.5,50.055a22.3,22.3,0,0,0-4.1-6.863,25.935,25.935,0,0,0,12.521,2.791,21.808,21.808,0,0,0-5.656-3.762,37.159,37.159,0,0,0-6.4-2.069,40.735,40.735,0,0,0,8.7-1.5,46.2,46.2,0,0,0,8.252-3.827,30.538,30.538,0,0,0-18.274,2.579,41.914,41.914,0,0,0,16.145-19.86,38.1,38.1,0,0,0-18.9,19.665,0.844,0.844,0,0,1-.051-0.929,54.744,54.744,0,0,0,2.012-16.19C28.5,14.7,26.93,9.654,25.6,4.47a45.924,45.924,0,0,0-1.3,31.392A46.535,46.535,0,0,0,16.6,25.069c-3.142-3.239-9.3-7.262-11.037-7.389,1.612,2.044,2.219,4.515,3.583,6.6A42.72,42.72,0,0,0,20.863,36.5a1.341,1.341,0,0,1,.741.838,28.593,28.593,0,0,0-8.746-2.674c-4.1-.478-7.851-0.316-8.787.257a32.853,32.853,0,0,0,16.8,5.238A24.206,24.206,0,0,0,8.546,46Z" transform="translate(-0.094 -0.781)"/>
</svg>
