<svg id="_-e-ic_homeproduct_ph" data-name="-e-ic_homeproduct_ph" xmlns="http://www.w3.org/2000/svg" width="60" height="47" viewBox="0 0 60 47">
  <defs>
    <style>
      .cls-1 {
        fill: #ccd0d4;
        fill-rule: evenodd;
      }
    </style>
  </defs>
  <path class="cls-1" d="M2.3,7.794V6.838a1.968,1.968,0,0,1,1.4-.863q9.627-1.93,19.248-3.886a1.828,1.828,0,0,1,1.673.4C27.1,4.572,29.6,6.629,32.078,8.721a0.763,0.763,0,0,0,1.07.067c1.938-1.242,3.9-2.451,5.838-3.686A1.791,1.791,0,0,1,40.5,4.869c2.428,0.646,4.861,1.273,7.292,1.908Q51.285,7.689,54.778,8.6a1.355,1.355,0,0,1,1.081,1.111A1.279,1.279,0,0,1,55.2,11.1c-0.164.105-.326,0.214-0.49,0.319-1.878,1.2-3.754,2.411-5.638,3.605-0.368.233-.419,0.4-0.043,0.691,1.386,1.072,2.768,2.151,4.124,3.261A31.154,31.154,0,0,1,56.7,21.929v0.956a1.614,1.614,0,0,1-1.205.935c-2.393.568-4.777,1.173-7.175,1.722a0.786,0.786,0,0,0-.73.931c0.025,3.684.015,7.368,0.013,11.052a1.356,1.356,0,0,1-1.218,1.591c-1.338.338-2.681,0.656-4.023,0.981q-7.327,1.773-14.653,3.545a2.439,2.439,0,0,1-1.36.014q-6.695-2.16-13.391-4.318a1.373,1.373,0,0,1-1.129-1.569c-0.005-3.046-.013-6.093,0-9.139a0.784,0.784,0,0,0-.585-0.862c-2.1-.8-4.19-1.63-6.285-2.445-1.272-.495-1.516-1.467-0.593-2.48q3.218-3.536,6.46-7.049c0.3-.325.3-0.5-0.053-0.787C8.154,12.87,5.551,10.711,2.939,8.562A2.026,2.026,0,0,1,2.3,7.794Zm23.244,15.7a1.277,1.277,0,0,0-.421.384q-2.747,2.991-5.493,5.983a1.438,1.438,0,0,1-1.942.432q-1.312-.507-2.621-1.019c-0.569-.221-0.617-0.195-0.618.4,0,2.23.015,4.461-.011,6.69a0.794,0.794,0,0,0,.662.9c3.255,1.028,6.5,2.084,9.75,3.129,0.756,0.243.784,0.224,0.784-.546q0-7.912,0-15.824A0.684,0.684,0,0,0,25.548,23.492Zm-11.42-9.482c0.041-.009.179-0.037,0.317-0.069q7.37-1.7,14.739-3.4a0.506,0.506,0,0,0,.5-0.232,0.525,0.525,0,0,0-.347-0.427c-1.86-1.557-3.732-3.1-5.579-4.671A1.313,1.313,0,0,0,22.5,4.88c-1.676.366-3.36,0.7-5.042,1.038Q12.386,6.943,7.314,7.97a0.469,0.469,0,0,0-.494.223,0.377,0.377,0,0,0,.24.323q3.2,2.634,6.4,5.264A0.8,0.8,0,0,0,14.127,14.009Zm15.424,6.275c2.279,1.8,4.434,3.5,6.583,5.2a0.845,0.845,0,0,0,.8.092q7.4-1.794,14.806-3.59a0.566,0.566,0,0,0,.51-0.212c0.057-.213-0.216-0.293-0.358-0.406-1.857-1.477-3.736-2.926-5.571-4.429a1.625,1.625,0,0,0-1.591-.349c-4.1,1.017-8.218,2-12.329,2.995C31.5,19.8,30.593,20.028,29.552,20.284Zm-4.853.073a0.392,0.392,0,0,0-.354-0.286Q19.271,18.346,14.2,16.625a0.587,0.587,0,0,0-.706.177q-2.845,3.116-5.7,6.221c-0.277.3-.231,0.456,0.146,0.6q4.872,1.891,9.734,3.8a0.6,0.6,0,0,0,.753-0.16q3-3.3,6.016-6.581C24.532,20.585,24.611,20.468,24.7,20.357ZM40.266,7.574a0.716,0.716,0,0,0-.464.153q-2.068,1.3-4.134,2.6a0.354,0.354,0,0,0-.256.243c0.005,0.186.2,0.174,0.323,0.214q4.771,1.548,9.544,3.092a0.913,0.913,0,0,0,.848-0.121c1.5-.974,3.008-1.933,4.509-2.905,0.152-.1.426-0.156,0.379-0.384a0.518,0.518,0,0,0-.5-0.234q-4.954-1.3-9.91-2.592C40.49,7.612,40.367,7.594,40.266,7.574Z"/>
</svg>
