<svg xmlns="http://www.w3.org/2000/svg" width="43" height="42" viewBox="0 0 43 42">
  <defs>
    <style>
      .cls-1 {
        fill: #d4d9dd;
        fill-rule: evenodd;
      }
    </style>
  </defs>
  <path id="ic_homeshop_ph" class="cls-1" d="M2.24,18.721v-0.5c0.415-1.205.893-2.393,1.227-3.62,0.412-1.512,1.285-2.884,1.24-4.541C4.664,8.474,5.282,7.9,6.872,7.9q14.235-.017,28.47-0.009a1.722,1.722,0,0,1,1.972,1.925,5.887,5.887,0,0,0,.162,1.729c0.771,2.168,1.524,4.342,2.284,6.514v0.833a1.237,1.237,0,0,1-1.506.881c-0.882-.179-0.943.249-0.941,0.945,0.014,5.054,0,10.109-.007,15.163,0,0.472,0,.945-0.037,1.415a1.5,1.5,0,0,1-1.733,1.658c-0.472.011-.945,0-1.417,0-1.4,0-1.4,0-1.407-1.373q-0.01-5.915-.016-11.83c0-1.367,0-1.368-1.408-1.371-1.25,0-2.5-.017-3.751,0-2.169.023-1.952-.394-1.957,1.921-0.008,3.777,0,7.554,0,11.331,0,1.295-.034,1.322-1.29,1.326-1.139,0-2.279,0-3.418,0q-7.086,0-14.171-.005c-1.479,0-1.878-.388-1.948-1.867C4.7,36.138,4.7,35.193,4.7,34.249,4.692,29.723,4.682,25.2,4.7,20.669c0-.617-0.038-1.024-0.839-0.9A1.5,1.5,0,0,1,2.24,18.721ZM15.087,34.348c0,0.007,0,.013,0,0.02,1.637,0,3.275-.013,4.912.006a0.753,0.753,0,0,0,.9-0.886q-0.023-4.16,0-8.32a0.678,0.678,0,0,0-.828-0.815q-4.87.039-9.74,0.014A0.853,0.853,0,0,0,9.3,25.382q0.052,3.993.008,7.987a0.832,0.832,0,0,0,1.039.99C11.923,34.323,13.506,34.348,15.087,34.348ZM22.92,16.032H22.843c0-.831-0.007-1.663,0-2.494a0.8,0.8,0,0,0-.939-0.96c-0.581.025-1.165,0.027-1.746,0a0.783,0.783,0,0,0-.926.879c-0.126,1.688-.155,3.377-0.119,5.066a1.817,1.817,0,0,0,1.9,1.8,1.85,1.85,0,0,0,1.9-1.8C22.95,17.7,22.92,16.863,22.92,16.032Zm10.547-3.451v0c-0.3,0-.611.017-0.915,0-0.62-.043-0.852.166-0.706,0.825,0.385,1.73.708,3.474,1.084,5.207a1.887,1.887,0,0,0,2.336,1.659,1.86,1.86,0,0,0,1.36-2.516c-0.367-1.421-.838-2.815-1.2-4.237a1.056,1.056,0,0,0-1.295-.941A5.693,5.693,0,0,1,33.466,12.581Zm-24.9,0a3.466,3.466,0,0,1-.5,0,1.2,1.2,0,0,0-1.518,1.1c-0.327,1.372-.8,2.709-1.156,4.074A1.821,1.821,0,0,0,6.72,20.266,1.879,1.879,0,0,0,9.067,18.63c0.318-1.433.6-2.874,0.9-4.309C10.375,12.422,10.525,12.592,8.571,12.58Zm5.478,7.731a1.849,1.849,0,0,0,1.958-1.933c0.191-1.65.325-3.306,0.5-4.958a0.633,0.633,0,0,0-.719-0.838c-0.637.013-1.275,0.019-1.912,0a0.809,0.809,0,0,0-.945.8C12.7,15,12.406,16.61,12.189,18.229A1.85,1.85,0,0,0,14.05,20.311Zm13.164-7.717H26.132a0.527,0.527,0,0,0-.613.667c0.178,1.736.307,3.478,0.522,5.209a1.839,1.839,0,0,0,2.2,1.813,1.893,1.893,0,0,0,1.571-2.4c-0.18-1.178-.38-2.353-0.577-3.528C28.908,12.395,29.178,12.626,27.214,12.594ZM21.09,2.051c4.721,0,9.443.007,14.164-.006a1.716,1.716,0,0,1,1.907,1A3.51,3.51,0,0,1,36.75,6.2a1.986,1.986,0,0,1-1.481.411q-10.5,0-21,.012-3.791,0-7.582-.017A1.73,1.73,0,0,1,4.7,4.624,6.254,6.254,0,0,1,4.75,3.545,1.5,1.5,0,0,1,6.426,2.067C7.62,2.04,8.815,2.052,10.009,2.051Q15.55,2.049,21.09,2.051Z"/>
</svg>
