<?xml version="1.0" encoding="utf-8"?>
<!-- Generator: Adobe Illustrator 23.1.0, SVG Export Plug-In . SVG Version: 6.00 Build 0)  -->
<svg version="1.1" id="Layer_1" xmlns="http://www.w3.org/2000/svg" xmlns:xlink="http://www.w3.org/1999/xlink" x="0px" y="0px"
	 viewBox="0 0 827 795" style="enable-background:new 0 0 827 795;" xml:space="preserve">
<style type="text/css">
	.st0{fill:#A5E154;}
	.st1{fill:#447401;}
	.st2{fill:#FEFEFE;}
	.st3{fill:#C8EF89;}
	.st4{fill:#90CC3F;}
	.st5{fill:#D6DFDC;}
	.st6{fill:#68CEB2;}
	.st7{fill:#64CDAF;}
	.st8{fill:#D7DFDC;}
	.st9{fill:#CDFF88;}
	.st10{fill:#FDFDFE;}
</style>
<g>
	<path class="st0" d="M706.1,675.7c-38.8-0.1-77.6,0-116.5,0c-152.6,0-305.2,0-457.8,0c-2.5,0-5,0.2-7.5-0.3c-1.4-0.3-2.5-1-2.7-2.6
		c-0.2-1.8,0.9-2.8,2.4-3.3c1.6-0.6,3.3-0.6,4.9-0.6c3.8-0.1,5.2-1.9,5.1-5.7c-0.3-6.2-0.1-12.3-0.1-18.5c0.1-9.2-0.4-18.3,0.2-27.5
		c0.4-5.7,1.2-6.7,6.7-7.2c4.5-0.4,6-2.8,6-6.9c0-8.5,0-17,0-25.5c0-60.8,0-121.6,0-182.4c0-8.1-0.4-8.6-8.1-10.7
		c-9.7-2.7-17.9-7.8-25.6-14.1c-3.7-3.1-5.4-6.7-5.4-11.7c0.2-13.8,0.2-27.7,0-41.5c0-4.2,1-7.8,3.2-11.3
		c7.7-12.1,14.7-24.6,20.9-37.5c1-2.2,2.8-4.3,1.2-7c-1.8-0.1-3.1,1.1-4.5,1.9c-17.5,9.6-33.4,21.4-48.4,34.6
		c-11.1,9.8-21.8,20-30.8,31.7c-11.5,15-20.8,31.4-26.8,49.5c-3.5,10.5-6.1,21.3-8,32.2c-1.2,6.9-1.4,13.9-2.1,20.8
		c-1.1,12.2-0.6,24.5,1,36.6c2.4,17.9,5.8,35.7,11.2,53.2c4.1,13.2,8.9,26.1,14.3,38.6c9,20.8,19.6,40.8,32.6,59.6
		c10.5,15.3,20.9,30.6,34.3,43.6c1.1,1,2.3,1.9,2.2,3.7c2,1.8,3.4,4.1,5.2,6c1.9-0.2,2.8,1,4.1,2.2c16.1,15.3,33.6,28.9,52.3,41
		c8.9,5.8,18.1,11,27.3,16.3c13.9,8.1,28.6,14.6,43.4,20.8c10.4,4.3,21.2,8,32,11.5c19.4,6.2,38.9,11.4,58.8,15.4
		c21.5,4.4,43.2,6.6,65,8.5c24.7,2.1,49.5,1,74.2-1.1c22.9-2,45.7-5.6,68-11.4c15.1-3.9,29.9-8.3,44.6-13.6
		c12.7-4.6,25-10.2,37.2-16.1c13-6.3,25.5-13.3,37.5-21.1c13.9-9,27.1-19,39.4-30.1c6.1-5.5,12.5-10.9,17.1-17.9
		C712.2,674.8,709,675.7,706.1,675.7z"/>
	<path class="st0" d="M817.4,324.5c-0.3-17.3-1.7-34.6-4.3-51.7c-2.6-17.2-5.7-34.4-10.4-51.3c-4-14.2-8-28.4-14-41.9
		c-5.8-13-12.2-25.9-19.9-38c-12.1-19-26.5-36.1-43.1-51.1c-13.7-12.4-28.5-23.6-44.3-33.2c-14.5-8.8-29.6-16.3-45.1-22.8
		c-20-8.3-40.9-14.1-62.1-18.8c-20.2-4.4-40.5-7.1-61-8.3c-23.8-1.3-47.4,1.4-70.5,7.4c-27,7-52.1,18.2-75.5,33.4
		c-23.8,15.6-45.2,34-63.7,55.7c0.9,1.2,2.2,1.5,3.5,1.5c10.3,0.2,20.7,0.2,31,0c3.6-0.1,5.4-2.1,6-5.5c0.8-5.3,2.3-10.4,4.1-15.4
		c11.2-30.7,43.4-53.5,80.5-48.4c33.6,4.6,57.5,27.9,64.4,61.1c1.7,8.3,1.8,8.4,10.6,8.4c29,0,58,0,87,0c2.3,0,4.7-0.1,7,0.3
		c7.2,1.2,11.9,6.3,12.3,13.6c0.1,1.8,0.1,3.7,0.1,5.5c0,22.7,0,45.3,0,68c0,6.6,1,7.4,7.6,7.6c1.7,0,3.3,0,5,0
		c17.8,0,35.7,0,53.5,0c8,0,8.7,0.7,10.2,8.4c1.5,8.2,3,16.4,5.5,24.4c7.9,25.5,19.6,49.2,34.2,71.4c2.8,4.3,4,8.7,4,13.6
		c0,13-0.1,26,0,39c0,4.7-1.6,8.3-5,11.5c-7.6,7.3-16.4,12.5-26.6,15.2c-3.9,1-5.6,3.2-5.5,7.1c0.1,1.8,0,3.7,0,5.5
		c0,49.3,0,98.6,0,148c0,19.2-0.1,38.3,0,57.5c0,6,0.7,6.7,6.3,7.4c5.1,0.7,6.3,1.9,6.6,7c0.1,1.7,0.1,3.3,0.1,5
		c0,13.8,0,27.7,0,41.5c0,1.9-0.5,4.6,2.1,4.9c5.9,0.7,11.8,1.9,17.5-0.9c10.5-14.4,22.3-27.8,30.9-43.7
		c5.6-10.3,11.7-20.4,16.8-30.9c5.6-11.5,10.7-23.4,14.6-35.6c5.1-15.5,11-30.7,13.9-46.9c2.1-11.9,5.8-23.5,7.5-35.6
		c2-14,4.7-28,5.9-42.1c1.6-19.5,2.5-39.1,2.9-58.7C818.5,357.2,817.7,340.9,817.4,324.5z"/>
</g>
<path class="st1" d="M303.4,104c11.7,0.1,23.3,0.1,35,0.2c2.8,0,3.6-1.1,4.1-3.7c5.7-35.9,32.2-61.7,67.7-66.1
	c39-4.9,77.1,23.2,84.2,62c1.4,7.8,1.4,7.8,9.4,7.8c29.8,0,59.7,0.3,89.5-0.1c10.6-0.1,18.5,6.8,18.2,18.1c-0.6,24-0.1,48-0.2,72
	c0,3.9,1,5.1,5,5.1c21-0.2,42,0.1,63-0.1c4.9,0,7.4,1.8,8,6.7c3.2,24.4,11.8,47,22.8,68.8c5.6,11.2,12.1,21.8,18.9,32.3
	c1.5,2.3,2.2,4.5,2.1,7.4c-0.1,14.8-0.1,29.7,0.1,44.5c0.1,4.7-1.5,8.2-5,11.4c-8,7.3-17,13-27.6,15.5c-4.1,1-4.3,2.8-4.3,6.1
	c0.1,55,0,110,0,165c0,15.5,0.1,31-0.1,46.5c0,3.5,0.5,5.1,4.6,5c7-0.3,8.3,1.3,8.3,8.5c0,15.7,0.1,31.3-0.1,47
	c0,2.9,0.8,3.7,3.6,3.6c5-0.2,10-0.1,15-0.1c3,0.8,6.1,2.2,5.5,5.8c-0.6,3.7-3.7,4.5-7.2,4.3c-3.1-0.1-6.3,0.2-9.4,0.3
	c-16.8-0.1-33.6-0.1-50.5-0.2c-3.7,0-7.3-0.1-11-0.1c-175.4,0-350.9,0-526.3,0c-2.3,0-4.7,0.5-6.5-1.6c-1.3-1.6-1.4-3.4-0.7-5.2
	c0.8-2.1,2.6-2.7,4.7-3.1c2.8-0.5,6.6,1.7,8.2-1.2c1.2-2.2,0.2-5.5,0.2-8.4c0-13.5-0.1-27,0-40.5c0.1-8.6,0.5-9.1,9-9.1
	c4.3,0,3.9-2.4,3.9-5.1c0-56,0-112,0-167.9c0-14.3-0.2-28.7,0.1-43c0.1-3.8-1.2-5.2-4.7-5.9c-12.5-2.5-22.7-9.1-31.8-17.7
	c-2.2-2.1-3-4.5-3-7.6c0.1-15.7,0.1-31.3,0-47c0-2.6,0.7-4.7,2.1-6.9c9.4-14.7,18.5-29.6,25-45.9c7.5-14.2,11.8-29.5,15.2-45.1
	c0.8-3.6,1.5-7.1,1.9-10.8c0.5-4.5,2.9-6.2,7.3-6.2c20.8,0.1,41.6,0.1,62.4,0c1.8,0,3.6-0.2,5.5-0.2c0.5-13.6,1-27.3,0-40.9
	c-1-12.5-0.6-24.9-0.7-37.3c-0.1-11.8,6.4-18,18.3-18.2c5-0.1,10,0,15,0c2.2,0,4.4-0.1,6.2,1.4C277.4,104,290.4,104,303.4,104z"/>
<path class="st0" d="M264.4,104.1c-7.2,0.1-14.3,0.1-21.5,0.2c-10.7,0.1-16.8,5.9-16.8,16.7c0,24.5,0.2,48.9,0.2,73.4
	c0,1.6,0.8,3.3-0.7,4.7c0-12.7-0.2-25.3,0-38c0.1-3.9-1-4.9-4.8-3.8c-13,3.9-25.8,3.4-38.4-1.8c-23.1-9.5-34.8-32.2-24.8-55.9
	c10.7-25.3,31.7-38.9,58.9-40.9c18.7-1.4,34,6.9,43.1,23.7C263.1,88.8,264,96.6,264.4,104.1z"/>
<path class="st0" d="M118.5,202.4c-3.3,0.2-8.4-2.1-12.8-6.4c-5.1-5.1-5.7-12.8-2.3-19.1c5.4-9.9,13.7-15.3,24.6-17
	c9.2-1.4,16,1.7,20.2,8.9c2.9,5.1,1.4,15.4-3,21.1C139.1,197.9,131.3,202.1,118.5,202.4z"/>
<path class="st1" d="M108.5,667.2c3.4,0.5,5.6,2.2,5.2,6c-0.9,3-3,4.1-6,4c-3.2-0.1-6.3,0-9.5,0c-3.2,0-5.3-1.9-5.4-4.7
	c-0.1-3,2.3-4.7,5.2-5C101.5,667.2,105,667.3,108.5,667.2z"/>
<path class="st1" d="M743.1,677.2c-3.2,0.3-6.2-0.6-6.6-4.6c-0.3-3.4,2.2-5,5.4-5.2c3.8-0.2,7.9-0.3,9.3,4.4
	C752,674.8,748.3,677.2,743.1,677.2z"/>
<path class="st2" d="M683.3,400.2c0,20,0.1,40,0.1,60c0,47.5-0.1,95,0.1,142.4c0,4.3-0.9,5.7-5.4,5.5c-9.5-0.4-19-0.3-28.5,0
	c-3.5,0.1-4.5-0.9-4.5-4.4c0.1-39,0.1-78,0.1-117c0-17.3,0.1-34.7-0.1-52c-0.1-9.8-7.5-16.5-17.3-16.5c-51.6,0.1-103.3,0-154.9,0.1
	c-2.5,0-5,0.1-7.4,0.6c-7.7,1.5-13,7.6-13,15.5c0,28.5,0.2,57,0.2,85.5c0,27.8-0.2,55.6-0.2,83.5c0,3.3-1.3,4.5-4.3,4.6
	c-0.7,0-1.3,0.1-2,0.1c-58.3,0-116.6,0-174.9,0c-36.8,0-73.6-0.1-110.4,0.2c-4.4,0-5.6-1.1-5.5-5.5c0.3-22.1,0.2-44.3,0.2-66.4
	c0.7-1.8,0.3-3.6,0.3-5.4c0-41.8,0-83.6,0-125.4c0-5.6,0-5.8,5.8-5.5c16.4,0.8,30.9-3.5,42.9-15.2c3.2-3.2,5.5-2.9,9.5,0.9
	c6.8,6.4,14.6,11,23.9,12.8c18,3.6,34.4,1.1,48.4-11.7c5.9-5.4,6.2-5.4,12.4-0.1c11,9.5,23.8,13.7,38.2,13.2
	c12.9-0.4,23.9-5.1,33.6-13.4c5.7-4.9,6.5-5.2,11.7-0.4c15.4,14,33.3,16.5,52.7,11.4c7.7-2,14-7,20.2-11.7c5.2-4,5.4-4.4,10.5,0
	c7.9,6.8,16.6,11.7,26.9,13.3c14.9,2.3,28.8-0.2,41.3-9.1c10.7-7.6,10.7-7.6,21.1,0c13.9,10.1,29.5,12.1,45.7,8.5
	c8.4-1.8,16-6.4,22.4-12.6c4.6-4.4,5.4-4.5,10-0.5c13,11.6,28.2,15.8,45.3,14.1C680.2,399.5,681.9,398.9,683.3,400.2z"/>
<path class="st2" d="M620.8,554.6c0,35.6-0.1,71.3,0.1,106.9c0,4.1-1.1,5.3-5.3,5.3c-44.5-0.2-89-0.2-133.4-0.1
	c-4.4,0-5.9-1-5.9-5.7c0.2-70.9,0.2-141.9,0-212.8c0-4.8,1.5-5.7,5.9-5.7c44.5,0.1,89,0.1,133.4,0c4,0,5.3,0.9,5.3,5.1
	C620.8,483.3,620.8,519,620.8,554.6z"/>
<path class="st0" d="M453.3,629.1c0,11.5,0,23,0.2,34.5c0,2.9-0.9,4-3.7,3.6c-0.8-0.1-1.7,0-2.5,0c-99.6,0-199.1,0-298.7,0.1
	c-5,0-6.5-1.1-6.3-6.2c0.5-10.6,0.2-21.3,0.3-32c2.7-2.3,6-1.5,9.1-1.5c68,0,136,0,203.9,0c29.8,0,59.6,0,89.5,0
	C447.9,627.6,450.9,627,453.3,629.1z"/>
<path class="st2" d="M431.5,187.3c12.9-3.1,25.1-7.8,35.4-16.4c16.7-13.8,26.5-31.2,28.2-52.9c0.2-2.8,1.1-3.9,4.2-3.9
	c31.8,0.1,63.6,0.1,95.5,0c4.6,0,6.8,2,6.8,6.6c0,19.2-0.1,38.3-0.1,57.5c-1,2.1-0.6,4.3-0.4,6.4c0.4,3.8-1.6,5.1-4.9,5.2
	c-1.3,0-2.7,0.1-4,0.1c-50.8,0-101.5,0-152.3-0.1C436.9,189.8,433.4,191.1,431.5,187.3z"/>
<path class="st2" d="M236.3,118c1-3,3.2-3.9,6.2-3.8c31.9,0,63.9,0.1,95.8-0.1c4,0,3.5,2.4,3.8,4.7c3.7,29.3,19.1,50.1,45.7,62.6
	c6.5,3.1,13.4,4.7,20.5,5.9c-0.4,2.2-2.3,2.1-3.9,2.3c-2.1,0.3-4.3,0.2-6.5,0.2c-52,0-104,0-156,0c-6.1,0-6.1,0-6.1-5.9
	c0-20.3,0-40.7,0-61C236,121.3,235.6,119.6,236.3,118z"/>
<path class="st3" d="M683.3,400.2c-12.6,2.1-24.7,1.3-36.5-4c-5.9-2.6-10.7-6.6-15.4-10.8c-2.2-1.9-3.4-2.4-5.7-0.1
	c-21.2,22-55.6,20.9-77.1,1.2c-2.6-2.3-4.2-2.2-6.8-0.3c-9.1,6.8-18.5,12.9-30.1,14.4c-16,2.1-30.7-0.7-43.4-11.2
	c-0.4-0.3-0.7-0.7-1.1-1c-6-5.1-6-5-12.4-0.1c-16.4,12.6-34.5,16.2-54.4,10.3c-8.3-2.5-14.9-7.9-21.3-13.4c-2.1-1.8-3.3-1.9-5.3,0.1
	c-17.8,17-38.5,20-61.2,11.8c-6.6-2.4-12.1-6.9-17.2-11.6c-2.6-2.4-3.9-1.8-6.1,0.3c-3,2.8-6.2,5.5-9.7,7.8c-13.3,8.9-27.9,9.3-43,6
	c-9.1-2-16.7-6.3-23.2-12.8c-3.3-3.3-5.5-3.7-9.3,0c-11.8,11.7-26.7,15.6-42.9,14.4c-4.3-0.3-5,0.9-5,4.9c0.2,41.5,0.1,83,0.1,124.4
	c0,1.9,0.7,4-0.8,5.8c-0.1-18.8-0.2-37.6-0.2-56.5c0-28.8,0.1-57.7,0.1-86.5c0-3.5,0.4-5.3,4.6-5.6c13.7-0.9,25.9-6.1,36.2-15
	c2.5-2.2,3.9-1.2,5.8,0.5c12,10,25.8,15.2,41.4,14.9c14.9-0.3,28.5-4.9,39.9-14.7c2.5-2.1,4-2.2,6.7-0.1c25.6,20.1,56.1,20,81.7-0.2
	c2.3-1.8,3.6-1.8,5.8,0c25.7,20.4,55.9,20.4,82-0.1c2.3-1.8,3.6-1.8,5.8,0.1c24.3,20,56.1,20.4,80.8,0.8c3.5-2.7,5.1-2.3,8.2,0.2
	c24.2,19.3,56.6,19,80.4-0.7c2.7-2.2,4.1-2.1,6.6,0.1c10.9,9.3,23.7,14.1,37.9,14.8c3.4,0.2,4.3,1.2,4,4.3
	C683.2,394.9,683.3,397.6,683.3,400.2z"/>
<path class="st2" d="M418.4,306.6c-11.2,0-22.3-0.2-33.5,0.1c-4,0.1-4.6-1.2-4.4-4.9c1.6-20.1,3.1-40.2,4.3-60.3
	c0.6-9.6,0.7-19.2,0.9-28.8c0-2.8,0.8-3.7,3.7-3.7c19.5,0.1,39,0.1,58.5,0c3,0,3.6,1.2,3.6,3.8c0.7,30.5,3,60.8,5.1,91.2
	c0.3,3.9-2.3,2.7-3.8,2.7c-11.5,0.1-23,0.1-34.5,0.1C418.4,306.7,418.4,306.7,418.4,306.6z"/>
<path class="st2" d="M268,209c9.2,0,18.3,0.3,27.5-0.1c4.8-0.2,5.3,1.5,4.9,5.7c-2.1,21.5-5.1,42.9-10.2,64
	c-1.9,8.1-4,16.1-5.8,24.2c-0.7,3-2.1,3.9-5.1,3.9c-22.4-0.1-44.9-0.1-67.3,0c-4.1,0-4.8-0.8-3.1-4.7c11.2-25.2,19.7-51.2,24.2-78.4
	c0.6-3.4,1.3-6.9,1.4-10.4c0.1-3.6,1.7-4.3,5-4.3C249,209.2,258.5,209,268,209z"/>
<path class="st2" d="M591.9,306.4c-11.3,0-22.6-0.1-33.9,0.1c-2.8,0-4.1-0.8-4.8-3.6c-7.7-28.5-13.2-57.4-15.8-86.8
	c-0.6-7-0.6-7,6.2-7c18,0,36,0.1,54-0.1c3.4,0,5,0.7,5.4,4.4c3.7,30.5,12.8,59.4,25,87.5c2.5,5.8,2.5,5.8-4.1,5.8
	c-10.7,0-21.3,0-32,0C591.9,306.6,591.9,306.5,591.9,306.4z"/>
<path class="st0" d="M526.5,209.4c1.8,7.1,1.5,14.4,2.4,21.6c2.9,24,7.7,47.6,13.8,70.9c1,3.8,0.6,4.8-3.7,4.7
	c-17.8-0.3-35.6,0-53.4,0c-5.3,0-10.6-0.4-16-0.2c-3,0.1-2.7-1.8-2.9-3.5c-0.7-7.3-1.3-14.6-1.8-21.9c-1.6-23.6-3.2-47.1-3.4-70.7
	c0.2,0,0.5,0,0.5,0c1.5,5.8,6.1,4.3,10.1,4.3c15.1,0,30.2-0.2,45.3,0.1C522,214.9,525.4,214.6,526.5,209.4z"/>
<path class="st0" d="M375.5,217.3c-0.2,23.3-1.7,46.5-3.7,69.6c-0.5,5.5-0.9,10.9-1.2,16.4c-0.1,2.4-0.9,3.5-3.6,3.5
	c-22.6-0.2-45.2-0.4-67.9-0.3c-4.7,0-5.4-1-4.3-5.5c7.4-27.9,13.1-56.2,14.9-85.1c0-0.6,0.4-1.3,0.6-1.9c19.1,1.1,38.1,0.2,57.2,0.5
	C370.4,214.7,373.6,214.1,375.5,217.3z"/>
<path class="st0" d="M224.3,215.3c-4.2,30.6-14,59.4-26.5,87.5c-1.6,3.5-4,4.1-7,4.1c-21.6-0.6-43.2-0.6-64.9-0.4
	c-1.4,0-3.3,0.8-4.1-0.8c-0.7-1.5,0.8-2.7,1.6-3.9c16.4-27.2,29.7-55.6,35.1-87.3c0.1-0.5,0.4-0.9,0.6-1.3c2.2,1.4,4.6,1.6,7.2,1.6
	c16.8-0.1,33.6-0.1,50.5,0C219.4,214.7,221.9,214.6,224.3,215.3z"/>
<path class="st0" d="M678.5,215.2c3.2,14.6,7.3,28.9,13,42.7c6.3,15.3,14,29.8,22.4,44c0.7,1.2,1.9,2.3,1.9,4
	c-1.2,1-2.5,0.6-3.8,0.6c-22.5,0.1-45,0.2-67.4,0.4c-2.8,0-3.8-1.6-4.7-3.6c-9.2-21-17.6-42.4-22.5-64.9c-1.6-7.3-3.5-14.6-3.9-22.1
	c1.6-1.4,3.6-1.6,5.6-1.6c18.7-0.1,37.4,0,56.1,0C676.3,214.6,677.4,214.9,678.5,215.2z"/>
<path class="st3" d="M236.3,118c0.1,21.8,0.2,43.6,0.1,65.4c0,4.1,0.8,5,5,5c53.7-0.2,107.5-0.1,161.2-0.2c1.9,0,4,0.7,5.7-0.8
	c7.7,0.9,15.4,1,23.1,0c1.4,1.4,3.1,0.9,4.7,0.9c53.1,0,106.1,0,159.2,0.1c4.4,0,5.5-1.5,5.1-5.5c-0.2-1.5-0.7-3.4,0.9-4.7
	c0,5.7-0.1,11.3,0.1,17c0.1,3.2-1.2,4.2-4.1,4c-2.2-0.1-4.3,0-6.5,0c-93.5,0-187,0-280.5,0c-23.3,0-46.7-0.1-70,0.1c-4,0-5-1.1-5-5
	c0.1-23.7,0-47.3,0-71C235.6,121.6,235.1,119.7,236.3,118z"/>
<path class="st3" d="M453.3,629.1c-103.6,0-207.1,0-310.7,0c-0.5-11.9-0.5-11.9,11-11.9c97.5,0,195.1,0,292.6,0c7.2,0,7.2,0,7.2,7
	C453.4,625.8,453.3,627.5,453.3,629.1z"/>
<path class="st2" d="M555.5,352.2c-0.1-10.5-0.1-20.9-0.4-31.4c-0.1-3.1,1.2-3.9,4.1-3.9c24.4,0.2,48.8,0.2,73.2,0.3
	c1.1,11.6,0.3,23.2,0.4,34.8c0,1.8-1.3,3-2.6,4c-11.9,9.6-25.7,13.3-40.6,12.1c-11-0.9-21.6-4-30.3-11.5
	C557.8,355.4,556.4,354,555.5,352.2z"/>
<path class="st2" d="M204.3,353.2c-1.3-1.2-0.1-2.5-0.1-3.7c-0.6-9.7-0.1-19.5-0.3-29.2c0-1.9,0.8-2.6,2.7-2.6
	c3-0.1,5.9,0.4,8.9-0.4c21.1-0.1,42.2-0.2,63.3-0.3c2.1,0,3,0.6,3,2.8c-0.1,11.5-0.2,22.9-0.3,34.4
	C258.5,372.9,227.1,374,204.3,353.2z"/>
<path class="st2" d="M380.5,317.3c15.7-0.1,31.3-0.2,47-0.3c9.7,0,19.3,0.1,29,0.2c1.1,11.8,0.2,23.6,0.5,35.4c0,1.9-1.2,3-2.6,4
	c-20.9,15.1-49.7,16.5-71.2-0.1c-1.5-1.1-3.1-2.3-3.1-4.3C380.2,340.6,379.3,328.9,380.5,317.3z"/>
<path class="st0" d="M635.5,550.1c0,37.2,0,74.3,0,111.5c0,1.3,0,2.7-0.1,4c0,1.7-1.3,1.6-2.5,1.6c-1.2,0-2.4,0.1-2.5-1.6
	c0-1.5,0-3,0-4.5c0-73.5,0-147,0-220.5c0-6.5-0.7-7.4-7-7.4c-50.2,0-100.3,0-150.5-0.1c-5,0-5.6,2.6-5.6,6.7
	c0.1,74.2,0.1,148.3,0,222.5c0,1.6,1.6,4.2-1.7,4.9c-3.7,0.7-4.3-1-4.3-4.4c0.1-44.8,0.1-89.6,0.1-134.5c0-29.8,0-59.7,0-89.5
	c0-8.1,2.3-10.6,10.2-10.6c51.5,0,103,0,154.5,0c6.9,0,9.3,2.5,9.3,9.9C635.5,475.4,635.5,512.8,635.5,550.1
	C635.5,550.1,635.5,550.1,635.5,550.1z"/>
<path class="st0" d="M643.5,354.2c0-10,0-20-0.1-30c1.1-2,3.1-1.7,4.9-1.7c22.7,0,45.4,0.3,68.1-0.2c1.3,0,2.7,0,3.7,1
	c1.2,1.4,0.8,3.2,0.8,4.8c0,6.8-0.3,13.6,0.1,20.4c0.3,4.4-1.3,6.9-5,9.2C691.4,373.3,666.2,372.1,643.5,354.2z"/>
<path class="st0" d="M369.4,323.2c0,9.7,0,19.3,0,29c-2.4,6.1-8.3,8.1-13.3,10.5c-21.5,10.1-42,7.1-61.3-6.2
	c-1.7-1.2-2.9-2.4-2.9-4.8c0.1-8.5,0-17,0.1-25.4c0-1,0-2,1-2.7c1.8-1,3.9-0.9,5.9-0.9c22.3-0.1,44.5,0.2,66.8-0.1
	C366.9,322.5,368.2,322.5,369.4,323.2z"/>
<path class="st0" d="M193.6,349.4c-1.1,1.5,0.5,3.1,0,4.6c-5.9,4.3-11.9,8.6-19,10.7c-19.6,5.9-38.1,4.1-54.9-8.3
	c-2-1.5-3.6-3-3.6-5.6c-0.1-8.5-0.1-17,0-25.4c0-0.9,0.4-1.6,1.2-2c2-0.9,4.2-0.8,6.4-0.8c20.9,0,41.8,0,62.7,0c2.5,0,5-0.3,7.2,1.4
	C194.3,332.4,194.1,340.9,193.6,349.4z"/>
<path class="st0" d="M544.6,337.4c0,1.5,0,3.1,0,4.6c0.8,2.9,0.1,6,0.4,8.9c0.4,3.6-1.8,5.5-4.5,7.1c-13.7,8-28.2,12.8-44.3,9.5
	c-9.8-2-18.7-5.7-26.6-12c-1.1-0.9-1.7-2-1.7-3.4c0-9-0.1-18,0.1-27c0-0.7,0.4-1.3,1-1.7c2-1.1,4.2-0.9,6.4-0.9
	c21.6-0.2,43.2,0.3,64.9-0.2c1.7,0,3.4,0,4.4,1.6C545.1,328.5,545.1,332.9,544.6,337.4z"/>
<path class="st0" d="M485.6,109.2c1.8,35.8-28.2,68.5-66.1,68.8c-37.2,0.3-67.8-29.7-68-66.1c-0.1-37.2,29.6-67.2,66.1-68
	C453.4,43.1,486.1,73.7,485.6,109.2z"/>
<path class="st0" d="M696.4,618.4c1.6,4.5,0.8,9.2,0.9,13.7c0.3,10.5,0.1,21,0.2,31.4c0,2.8-0.7,3.8-3.6,3.7c-15-0.1-30-0.1-44.9,0
	c-2.8,0-3.7-0.8-3.7-3.6c0.2-14.1,0.1-28.3,0.1-42.4c0-2.3,0.3-3.7,3.2-3.7c15.5,0.1,30.9,0.1,46.4,0.1
	C695.4,617.6,695.9,618,696.4,618.4c-2.2,1.8-4.8,1.4-7.2,1.4c-11,0.1-21.9,0-32.9,0c-1.5,0-3,0-4.5,0.1c-2.8,0.1-3.7,1.7-3.7,4.3
	c0,2.6,1.6,3.4,3.9,3.5c12.8,0.1,25.6,0.1,38.4,0c2.7,0,4.4-1.1,4.5-4.1C694.9,621.7,694.9,619.8,696.4,618.4z"/>
<path class="st3" d="M380.5,317.3c0,10.5,0.1,20.9,0,31.4c0,2.6,0.6,4.4,2.9,6.2c21,16.6,49.8,15.4,70.7,0.2
	c2.1-1.5,2.4-3.3,2.4-5.5c-0.1-10.8,0-21.6,0-32.4c2.1,1,1.1,2.9,1.1,4.4c0,12.1-0.1,24.3-0.1,36.4c0,2.6-0.9,4.3-2.8,6
	c-20.5,18.9-52.6,18.7-72.9-0.6c-1.2-1.2-2.2-2.2-2.2-4.2c0-13.3,0-26.6-0.1-39.9C379.5,318.6,379.4,317.7,380.5,317.3z"/>
<path class="st4" d="M116.6,324.1c0,8.3-0.1,16.7-0.1,25c0,2.8,1.2,4.4,3.5,6.1c6.5,4.7,13.7,8.5,21.4,10.3
	c8.2,1.9,16.9,1.5,25.2,0.1c7.9-1.3,15.2-4.6,21.6-9.5c1.6-1.2,3.6-1.3,5.4-1.9c1.4,4,0.7,7.3-2.6,10.1
	c-21.7,18.9-51.1,18.7-72.8-0.8c-2.1-1.9-2.1-4-2.3-6.6c-0.7-11.8,0-23.6-0.3-35.4c0-1.4-0.6-3,0.9-4.2
	C118.1,319.5,118.2,321.8,116.6,324.1z"/>
<path class="st4" d="M468.5,324.1c0,8.2,0.1,16.3-0.1,24.5c-0.1,3.3,1.1,5.1,3.8,7.1c10.9,8,23.1,11.7,36.3,11.3
	c8.8-0.2,17.5-2.1,25-7.2c0.5-0.4,1.1-0.8,1.8-0.9c7.4-2,10.6-6.6,9.2-14.3c-0.2-0.8,0.1-1.7,0.1-2.5c1.5,5.7,0.7,11.5,0.6,17.3
	c-0.1,2.1-1.6,3.6-3.1,5c-14.1,13.7-38.9,17.8-56.7,9.4c-1.9-0.9-3.9-1.8-5.8-2.8c-8.6-4.7-13.8-10.9-12.4-21.8
	c1.1-8.9,0.3-18,0.4-26.9C468.9,322.3,469.1,323,468.5,324.1z"/>
<path class="st4" d="M643.5,354.2c1.8-1.1,2.6,0.4,3.8,1.2c10.4,7.9,22.2,11.7,35.1,11.7c13.7,0,25.8-5.3,36.8-13
	c1.6-1.1,1.2-2.6,1.2-4c0-8.7,0-17.3,0-26c-1.4-2.3-1.8-4.6,0.2-6.9c1.5,1.1,0.9,2.8,0.9,4.1c0,12.1-0.1,24.3,0,36.4
	c0,2.3-0.6,3.9-2.4,5.6c-21.1,19.4-51.4,19.8-72.9,0.9C642.6,361.2,643.3,357.8,643.5,354.2z"/>
<path class="st4" d="M292.5,324.1c0,8.2,0,16.3-0.1,24.5c0,3,0.6,4.8,3.4,6.8c11.2,8,23.5,12.1,37.1,11.7c13.9-0.4,26-5.7,36.5-14.9
	c1.7,7.6-1.9,12.2-8.1,16.3c-22,14.5-48.1,12.7-67.3-5.1c-1.2-1.1-2.4-2-2.4-4c0.1-13.5,0-26.9,0-40.4c0-0.6,0.5-1.1,0.8-1.7
	C294.1,319.5,294.2,321.8,292.5,324.1z"/>
<path class="st3" d="M555.5,352.2c6.9,5.5,14.1,10.2,22.9,12.6c19.3,5.1,36.6,1.5,52.3-10.7c1.8-1.4,1.7-3.1,1.7-4.9
	c0-10.6,0-21.3,0-31.9c1.6,0.6,1,1.9,1,3c0,12.5-0.1,25-0.1,37.5c0,2.6-1.1,4.4-2.9,6c-11.4,9.9-24.1,15.2-39.7,13.8
	c-10.1-0.9-19-4.2-27.5-9.4C557.1,364.3,553.7,359.6,555.5,352.2z"/>
<path class="st3" d="M204.3,353.2c5.3,0.6,8.3,5.2,12.7,7.4c13.9,7.2,28.3,8.4,43.1,3.7c6.2-2,12-4.8,17.2-8.7
	c1.3-0.9,2.5-1.6,4.1-1.4c1.5,5.4-0.8,8.9-5.2,12.2c-21,15.9-47.4,15.7-67.7-0.7C204.3,362.2,202.6,358.4,204.3,353.2z"/>
<path class="st3" d="M116.6,324.1c0-2.3-0.1-4.5-0.1-6.8c25.7-0.4,51.3-0.5,77,0c0.7,2.3,0.9,4.6-0.1,6.8
	C167.8,324.1,142.2,324.1,116.6,324.1z"/>
<path class="st3" d="M292.5,324.1c0-2.3-0.1-4.6-0.2-6.9c24.7-0.1,49.4-0.1,74.1-0.2c5.2,0,2.5,3.9,2.9,6.1
	c-2.3,0.3-4.5,0.9-6.8,0.9C339.3,324.2,315.9,324.1,292.5,324.1z"/>
<path class="st3" d="M720.5,317.2c-0.1,2.3-0.1,4.6-0.2,6.9c-2.8-1.3-5.5,0.2-8.3,0.2c-22.6-0.2-45.2-0.3-67.7-0.3
	c-0.3,0-0.6,0.2-0.9,0.3c-0.4-7.2-0.4-7.2,6.8-7.2C673.7,317.1,697.1,317.2,720.5,317.2z"/>
<path class="st3" d="M468.5,324.1c-0.3-0.7-0.6-1.3-1-2c-0.6-3.7,0.2-5.1,4.6-5c24.1,0.3,48.2,0.1,72.4,0.1c0.5,2.3,0.8,4.6-0.2,6.9
	c-2.3-1.5-4.5,0.2-6.8,0.1C514.6,324.1,491.5,324.1,468.5,324.1z"/>
<path class="st3" d="M678.5,215.2c-1.5,1.7-3.4,1-5.2,1c-20,0-40,0-59.9,0c-0.3-1.3-0.5-2.6-0.8-3.9c-0.5-2.3,0.3-3.3,2.8-3.3
	c19.8,0.1,39.6,0.1,59.4,0C679.5,209,677.8,212.8,678.5,215.2z"/>
<path class="st3" d="M375.5,217.3c-1.9-1.3-4.1-1.1-6.3-1.1c-17.9,0-35.8,0-53.7,0c-1.9,0-4.5,1.1-5.3-2.1c-0.4-3.7,0.7-5.2,4.9-5.1
	c17.6,0.3,35.3,0.1,52.9,0.1C376.2,209.1,376.2,209.1,375.5,217.3z"/>
<path class="st3" d="M224.3,215.3c-0.8,0.4-1.2,1.3-2.5,1.3c-20-0.2-39.9-0.3-59.9-0.1c-3.3,0-2.3-1.8-2.7-3.3
	c-0.2-3.3,1.3-4.1,4.5-4.1c18.5,0.1,36.9,0.1,55.4,0.1C225.1,209.1,225.1,209.1,224.3,215.3z"/>
<path class="st3" d="M526.5,209.4c-0.1,6.8-0.1,6.8-6.9,6.8c-17.4,0-34.8-0.2-52.2,0.1c-4,0.1-5.8-0.6-5.1-4.8
	c0.1-0.4-0.5-0.8-0.7-1.2c0.4-1.6,1.8-1.2,2.8-1.2c20.2,0,40.4,0,60.7,0C525.5,209.1,526,209.3,526.5,209.4z"/>
<path class="st5" d="M215.4,317.3c-1.2,1.2-2.8,0.8-4.2,0.9c-7.3,0.1-6.7-0.9-6.7,7.1c-0.1,8.1-0.2,16.2-0.2,24.2
	c-1.4-10-0.3-20-0.7-30.1c-0.1-2.2,1.3-2.3,2.9-2.3C209.5,317.2,212.5,317.3,215.4,317.3z"/>
<path class="st6" d="M193.3,324.2c0-2.3,0.1-4.5,0.1-6.8c1.5,1.1,1,2.7,0.9,4.1c-0.6,9.3,1.1,18.7-0.7,28
	C193.5,341,193.4,332.6,193.3,324.2z"/>
<path class="st7" d="M544.4,324.1c0.1-2.3,0.1-4.6,0.2-6.9c1.8,6.7,1.2,13.5,0.1,20.2C544.5,333,544.4,328.5,544.4,324.1z"/>
<path class="st1" d="M202.5,578.1c-5.3-5.2-6-11.9-6-18.8c0.1-39.8,0.1-79.6,0.2-119.4c0-15.7,5.8-21.5,21.3-21.5
	c54.1,0,108.3,0,162.4,0c5.3,0,10.7-0.3,16,0c11.6,0.7,17.5,7.1,17.5,18.7c0,41.5-0.1,83,0.1,124.4c0,6.3-1.3,11.8-5.7,16.5
	c-1.5,3-4.2,4.1-7.3,4.6c-2,0.3-4,0.3-6,0.3c-59.7,0-119.4,0-179.1,0C210.9,582.8,205.8,583,202.5,578.1z"/>
<path class="st8" d="M202.5,578.1c4.5,2.8,9.5,3.3,14.8,3.3c58.9-0.1,117.8-0.1,176.8,0c5.2,0,9.9-0.7,14.2-3.5c0,4.9-3.6,6.7-7.4,8
	c-1.4,0.5-3,0.4-4.4,0.4c-60.9,0-121.9,0-182.8,0C206.8,586.2,203.5,583.7,202.5,578.1z"/>
<path class="st1" d="M548.9,452.1c19.3,0,38.6,0,58,0c6.3,0,7.3,1,7.3,7.2c0,29.1,0,58.3,0,87.4c0,5.9-1.4,7.4-7.4,7.4
	c-35.3-0.1-70.6-0.1-105.9-0.2c-3.7,0-7.3,0.1-11,0.2c-4.4,0.2-6.5-1.8-6.4-6.2c0-29.6,0-59.2,0-88.8c0-6,1-7,7-7
	C509.9,452,529.4,452,548.9,452.1C548.9,452,548.9,452,548.9,452.1z"/>
<path class="st1" d="M609.2,587.2c0,4.5,0,9,0,13.5c0.1,4-1.5,7.2-5.8,7.3c-4.2,0.1-6-2.9-6-7c0-9.3,0-18.6,0-27.9
	c0-4,1.5-6.9,5.8-7.2c3.7-0.3,5.9,2.6,6,7.5C609.3,577.9,609.3,582.5,609.2,587.2C609.3,587.2,609.3,587.2,609.2,587.2z"/>
<path class="st1" d="M527.2,148.2c5.8,0,11.7,0.1,17.5,0c3.9-0.1,5.6,2,5.6,5.4c-0.1,3.3-2.4,4.5-5.5,4.5c-12,0-24,0-36,0
	c-3.1,0-5.3-1.4-5.4-4.6c-0.1-3.4,1.9-5.2,5.3-5.2C514.8,148.2,521,148.2,527.2,148.2z"/>
<path class="st1" d="M568,157.9c-1.8,0-3.6,0.1-5.5,0c-3-0.2-4.4-1.8-4.2-4.9c0.1-3,1.2-4.8,4.4-4.8c3.3,0,6.6,0,9.9,0
	c3.4,0,5.5,1.9,5.3,5.2c-0.1,3.1-2.3,4.6-5.5,4.5C571,157.9,569.5,157.9,568,157.9z"/>
<path class="st1" d="M310.5,148.2c6,0,12,0,18,0c3.4,0,5.5,1.5,5.6,4.9c0,3.5-2.2,4.9-5.5,4.9c-11.3,0-22.6,0-33.9-0.1
	c-1.3,0-2.7-0.3-3.9-0.7c-2.1-0.8-4.1-2-3.7-4.6c0.4-2.8,2.2-4.5,5.1-4.5C298.2,148.2,304.4,148.2,310.5,148.2z"/>
<path class="st1" d="M269.9,148.2c1.8,0,3.7-0.1,5.5,0c2.7,0.3,4.2,2,4.3,4.6c0.1,2.7-1.2,4.7-3.9,4.9c-3.8,0.3-7.7,0.5-11.4,0.1
	c-2.8-0.3-5-2.3-4.7-5.5c0.3-2.9,2.4-4.2,5.2-4.2C266.5,148.2,268.2,148.2,269.9,148.2C269.9,148.2,269.9,148.2,269.9,148.2z"/>
<path class="st1" d="M357.4,111.2c-0.1-34.1,27.3-61.6,61.4-61.7c33.6-0.1,61,27.6,61.3,61.9c0.3,32.1-27.6,60.1-59.3,60.8
	C385.4,173.2,357.1,144.6,357.4,111.2z"/>
<path class="st3" d="M696.4,618.4c-0.1,12.4,1.5,10.7-10.9,10.8c-11.3,0.1-22.6-0.2-34,0.1c-4.4,0.1-5.2-1.6-5.2-5.5
	c0.1-3.7,0.3-5.8,5-5.7C666.3,618.5,681.3,618.3,696.4,618.4C696.3,618.3,696.4,618.4,696.4,618.4z"/>
<path class="st0" d="M403.5,436.2c0,25.1,1.3,50.2,0.4,75.4c-0.6,16.6-0.2,33.3-0.1,50c0.1,8.4-1.7,10.3-10.6,10.3
	c-48.1,0-96.3,0-144.4,0c-10.8,0-21.6,0.3-32.5,0.2c-7.4,0-9.7-2.3-9.7-9.5c0-42.3,0-84.6,0-126.9c0-1-0.2-2,0.6-2.8
	c2.4,0.5,4.8,1.1,5.4,4c0.5,2.8,0.4,5.7,0.4,8.5c0,37,0,74,0,110.9c0,8.5,0.6,9.2,9,9.2c55.5,0,110.9,0,166.4,0c8.4,0,9.4-0.9,9.3-9
	c-0.1-24.8,0.1-49.6-0.2-74.5c-0.1-14,0.1-28,0.2-42c0-1.3,0.1-2.7,0.5-3.9C400.1,433.2,401.8,432.6,403.5,436.2z"/>
<path class="st0" d="M403.5,436.2c-1.2-1.5-2.6-2.4-4.4-0.9c-59.9-1.3-119.8-0.2-179.7-0.6c-2.7,0-5.2,1.1-7.9,0.4
	c-1.1-1.5-4,0.5-4.3-2.3c1.3-3.8,4.3-4.6,7.9-4.6c58.4,0,116.7,0,175.1,0.1c2,0,4-0.1,6,0C401.4,428.6,403.5,430.9,403.5,436.2z"/>
<path class="st9" d="M547.4,544c-13.6,0-27.2,0-40.8,0c-0.5-2.4,1.4-3.6,2.8-4.9c24.6-23.3,48.4-47.3,72.2-71.4
	c6.5-6.6,13.9-6.5,21.9-5.6l0.1,0.1c0.8,7.8,0.1,15.6,0.3,23.4c0.1,2.8-2,4.5-3.7,6.2c-15.2,15.2-30.3,30.4-45.5,45.5
	C552.3,539.6,550.5,542.5,547.4,544z"/>
<path class="st0" d="M493.4,524.1c0-19.5-0.1-39-0.2-58.5c0-2.8,0.9-3.8,3.7-3.8c17.2,0.1,34.3,0.1,51.5,0.2c1.7,2.1,1,4.2-0.7,5.7
	c-2.7,2.2-4.5,5.3-7.3,7.4c-2.5,1.9-4,4.3-5.1,7.1c-0.9,1.8-2.1,3.4-3.5,4.8c-11.9,12.1-24.2,23.8-35.9,36
	C495.3,523.7,494.6,524.7,493.4,524.1z"/>
<path class="st9" d="M493.4,524.1c12-12.1,24-24.3,36-36.5c1.7-1.8,3.3-3.7,5-5.5c4.8-7.1,11.7-12.2,17.4-18.5c1.6-1.7,3.7-2,5.9-2
	c5.2,0.1,10.3,0,15.5,0.1c1.5,0,3.6-1,4.5,1c0.7,1.8-0.9,3-2.1,4.2c-6.7,7.2-13.8,14-20.7,20.9c-15.5,15.3-30.8,30.9-46.2,46.3
	c-3.5,3.5-7.2,6.9-11.3,9.8c-2.8,0.5-4.4,0.1-4.2-3.4C493.5,535.1,493.4,529.6,493.4,524.1z"/>
<path class="st0" d="M547.4,544c1.5-3,3.9-5.2,6.3-7.6c15.5-15.5,31-31.1,46.6-46.5c2.3-2.3,3.4-4.6,3.3-7.9
	c-0.2-6.6,0-13.3,0.1-19.9c1.4,1.2,0.8,2.8,0.8,4.2c0,24.5-0.1,49-0.1,73.4c0,2.5,0.2,4.5-3.5,4.5
	C583.1,544.1,565.2,544.1,547.4,544z"/>
<path class="st0" d="M497.4,544c0.2-1.7,1.4-2.6,2.5-3.6c8.9-7.8,16.9-16.4,25.1-24.9c11.1-11.6,22.8-22.6,34.2-33.8
	c5.5-5.5,11.1-11,16.6-16.5c0.5-0.5,1.3-1.4,1.2-2c-0.2-1.3-1.5-1-2.5-1c-5.7,0-11.3,0.1-17-0.1c-2.3,0-3.6,1.2-5.1,2.6
	c-6,5.7-11.4,12.1-17.9,17.3c0.8-6.8,7.3-9.3,11.1-13.8c1.7-2,3.2-3.6,2.9-6.3c16.7-1.7,33.5,0.3,50.2-0.6c1.6-0.1,3.3-0.6,4.8,0.6
	c-0.5,0-1,0.2-1.5,0.1c-10.1-2-16.7,3.4-23.2,10.1c-13,13.3-26.3,26.3-39.4,39.5c-10.8,10.9-22.5,20.8-32.8,32.3
	C503.5,544,500.4,544,497.4,544z"/>
<path class="st10" d="M418.6,162.4c-28.4,0-51.5-23.2-51.5-51.5c0-27.6,23.7-51.6,50.7-51.4c30.1,0.2,52.4,23.8,52.3,52.1
	C470.1,139.5,446.8,162.4,418.6,162.4z"/>
<path class="st1" d="M211.5,435.2c1.5-1.8,3.5-2.2,5.8-2.2c58.7,0,117.4,0,176,0c2.3,0,4.2,0.6,5.7,2.3c0.1,2.2,0.3,4.3,0.3,6.5
	c0,35.8,0,71.5,0,107.3c0,3.7,0,7.3,0,11c-0.1,5.6-1.5,7-7.2,7c-56.8,0-113.6,0-170.4,0c-2.2,0-4.3,0-6.5-0.3
	c-2.6-0.4-4.1-1.8-4.1-4.7C211.4,519.8,211.4,477.5,211.5,435.2z"/>
<path class="st1" d="M383.2,129.9c6-7,12.9-10.6,21.8-12.8c-10.7-6.2-18-14.4-22.4-26.1c12.7,2.3,22.5,7.9,30.4,17.5
	c-3-14.5-1.1-28,5.4-42.3c6.9,14.2,8.4,28,4.9,43.5c4.9-5.1,8.8-9.7,14.2-12.6c5.3-2.8,10.6-5.3,17.2-6c-4.5,11.5-11.5,20-22.5,25.9
	c8.5,2.2,15.5,5.8,21.4,12.7c-9,1.5-17.1,0.7-25.9-4.1c2.5,5.6,4.3,10.3,3.9,15.9c-5.2-2.1-7.6-6.4-11.1-11.8c0,7.1,0.1,12.8,0,18.5
	c0,1.9,0.7,4.6-2.1,4.8c-3.2,0.2-2.8-2.6-2.9-4.7c0-5.1,0-10.2,0-16.7c-3.4,4.1-5.7,7.8-10.1,9.9c-0.8-5.7,1.1-10.3,3.8-15.9
	C400.8,130.3,392.6,131.1,383.2,129.9z"/>
<path class="st0" d="M221.4,535.2c-0.1-29.6-0.2-59.3-0.2-88.9c0-1.4-0.4-3.2,2-3.2c1.8-0.8,3.6-0.4,5.4-0.4c27.7,0,55.3,0,83,0
	c3.1,0,2.1,1.8,1.1,3.1c-2.2,3.2-4.5,6.4-8.4,8c-5.1-0.5-9.1,1-11.4,6c-0.9,1.9-3,2.5-4.8,3.4c-8.1,4.3-16.4,7.9-24.7,11.8
	c-2.1,1-4.4,1.3-6.7,1.8c-8.4,1.8-11.4,6.5-10.5,15.1c0.6,5.9,2.8,11.6,1.9,17.7c-1.6,3.2-4.4,5.4-6.9,7.7
	c-5.4,5.1-10,11.1-15.8,15.8C224.4,534.2,223.4,535.9,221.4,535.2z"/>
<path class="st0" d="M389.4,477.2c0.1,25.5,0.1,50.9,0.3,76.4c0,2.9-1,3.7-3.8,3.7c-25.5-0.1-50.9-0.2-76.4-0.2
	c-1.4-2.4,0.8-3.2,2-4.3c4.2-4.2,9-7.9,12.3-12.9c9.7-2.4,19.6-2.9,29.4-4.8c10.2-1.9,13.1-5.9,12.2-16.1c-0.5-5.6-2.3-11-2-16.7
	c0.3-1.3,0.8-2.6,1.8-3.5c7.4-6.5,13.9-13.8,21.1-20.5C387.1,477.5,388.1,476.7,389.4,477.2z"/>
<path class="st9" d="M389.4,477.2c-8.3,8-16.6,16-24.9,24.1c-1.9-0.7-2.2-2.4-2.3-4c-0.7-6.9-2.4-13.8-3.2-20.7
	c-0.7-5.9-2.9-10.5-8.9-12.7c-0.8-0.3-1.4-0.9-1.9-1.6c-0.2-2,1.3-2.9,2.5-4c4.4-4.2,9.1-8.1,12.3-13.5c0.7-1.2,1.6-2.1,3.2-2
	c7.7,0.3,15.5-0.6,23.2,0.5C390,454.5,389.7,465.9,389.4,477.2z"/>
<path class="st9" d="M221.4,535.2c8.7-6.7,15.3-15.5,23.4-22.8c0.9-0.8,1.8-1.5,2.6-2.2c2.2,1,2,3.1,2.4,5c1.5,6.6,1.9,13.3,2.6,20
	c0.7,4.2-0.8,7.4-3.9,10.2c-4.2,3.8-7.7,8.3-12.3,11.7c-1.6,0.1-3.3,0.2-4.9,0.2c-11.4-0.3-10.8,2.7-10.8-10.6
	C220.7,542.8,221.2,539,221.4,535.2z"/>
<path class="st9" d="M323.5,541.1c-2.3,5.6-7.5,8.5-11.4,12.6c-1,1-2.6,1.5-2.6,3.3c-20,0-39.9,0-59.9,0c1.9-4.7,5.2-8,10-9.7
	c8.7,1.3,17.2-0.9,25.7-2.1c10.5-1.5,21.1-3,31.5-4.8C319.1,539.9,321.4,539.3,323.5,541.1z"/>
<path class="st0" d="M389.3,443.2c-1,0-2,0-3,0c-6.2,0-12.5-0.9-18.4,0.2c-6.3,1.1-7.2,9.2-12.4,12.4c-2.6,1.6-4.7,4.1-7,6.2
	c-5.5,3-10.8,2.9-14.5-0.4c0.8-6.8,7.8-15.4,13.7-17.1c-9.3,0.4-18.7,0.1-28,0.1c-2.1,0-4.4,0.4-6.2-1.3
	c-30.1-0.1-60.2-0.1-90.3-0.2c1.5-1,3.2-0.7,4.9-0.7c52,0,104-0.1,155.9-0.1C385.8,442.4,387.7,441.7,389.3,443.2z"/>
<path class="st0" d="M258.5,548.1c-3,3-6,5.9-9,8.9c-4.4,0-8.8,0-13.2,0c2.6-5.4,7.6-8.6,11.6-12.7c2.3-2.4,3.9-4.8,3.6-8.2
	c0.8,0,1.4,0.3,1.5,1C253.7,541.4,256.9,544.4,258.5,548.1z"/>
<path class="st1" d="M258.5,548.1c-4.5-2.7-6-7.2-7-11.9c-1-6.9-2-13.8-3-20.8c-0.3-1.8-0.7-3.5-1.1-5.3c-0.8-6.2-1.6-12.5-2.5-18.7
	c-1.2-7.9,2.4-14.2,10.2-15.6c7.4-1.3,13.6-4.9,20.3-7.8c3.8-1.7,7.5-3.5,11.2-5.4c2.9-1.5,5.5-2.7,7.1-6.3
	c1.9-4.3,6.3-4.9,10.7-3.2c7.7,5.1,16.9,4.6,25.4,6.4c1.6,0.3,3.3,0.2,4.5,1.6c4.5,3.2,9.4,0.5,14.1,0.7c7.5,1.6,11,6.3,12,13.8
	c1.1,8.5,2.7,17,4.1,25.5c0.8,6.3,1.5,12.5,2.5,18.8c1.3,8.8-3.2,14.9-12.1,16.2c-10.5,1.5-21,3.3-31.4,4.9
	c-17.4,2.6-34.8,5.1-52.2,7.7C267,549.4,262.7,549.8,258.5,548.1z"/>
<path class="st9" d="M334.4,461.3c-8.5-0.1-16.6-2.5-25-3.4c-2.4-0.3-3-3.4-4.9-4.6c3-3.3,6.1-6.6,9.1-9.9c11.6,0,23.2,0,35.3,0
	C343.2,449.1,337,453.8,334.4,461.3z"/>
<path class="st2" d="M266.8,539.3c-3.2,1-4.1-1.7-5-4.3c-2.6-7.6-2.3-15.7-3.7-23.5c-1.2-6.9-2-13.8-3.1-20.7
	c-0.6-3.5,0.5-5.2,4.2-5.7c28.3-4.2,56.5-8.5,84.8-12.8c4.4-0.7,6.2,0.8,6.8,5.3c1.9,14.2,4.1,28.3,6.4,42.4
	c0.5,3.2,0.2,5.7-3.6,6.2C324.7,530.3,296.2,536.5,266.8,539.3z"/>
<path class="st9" d="M314.7,466.8c-4.6,0.6-7.8,1.1-11.7,1.6C306.4,464,309.8,465,314.7,466.8z"/>
<path class="st9" d="M300.8,469.1c-3.8-0.2-7.2,1.7-11.3,0.8C293.4,467.1,296.8,465.9,300.8,469.1z"/>
</svg>
