<?xml version="1.0" encoding="utf-8"?>
<!-- Generator: Adobe Illustrator 24.0.2, SVG Export Plug-In . SVG Version: 6.00 Build 0)  -->
<svg version="1.1" id="pin" xmlns="http://www.w3.org/2000/svg" xmlns:xlink="http://www.w3.org/1999/xlink" x="0px" y="0px"
	 viewBox="0 0 45.3 55.2" style="enable-background:new 0 0 45.3 55.2;" xml:space="preserve">
<style type="text/css">
	.st0{fill-rule:evenodd;clip-rule:evenodd;fill:#FF8338;stroke:#FFFFFF;stroke-width:2;stroke-linejoin:round;}
	.st1{fill-rule:evenodd;clip-rule:evenodd;fill:#FFFFFF;}
	.st0{
		width:25px;
	}
</style>
<path class="st0" d="M43.8,22.2c0,4.8-1.7,9.5-4.8,13.3c-4.3,5.6-8.6,11.2-12.9,16.7c-1.3,2.1-4.1,2.6-6.1,1.3
	c-0.5-0.3-1-0.8-1.3-1.3c-0.3-0.4-0.6-0.7-0.9-1.1c-4.1-5.4-8.3-10.8-12.4-16.2c-3-3.9-4.5-8.7-4.2-13.5c0.5-7.5,4.1-13.2,10.5-17
	c3.4-2,7.2-3,11.1-2.9c9.8,0,18.2,6.8,20.5,16.3c0.1,0.6,0.2,1.1,0.3,1.7C43.8,20.4,43.8,21.3,43.8,22.2z"/>
<path id="Shape_8_copy_2" class="st1" d="M28.6,32.5H16.4c-1,0.1-1.8-0.6-1.9-1.6c0-0.1,0-0.2,0-0.3c0-2.5,0-5.2,0-7.8
	c0-0.1,0-0.2-0.1-0.2c-0.8-0.8-1.2-1.8-1.2-2.9c0-0.3,0.1-0.5,0.2-0.7c0.2-0.5,0.4-1.1,0.7-1.6c0.1-0.2,0.2-0.4,0.2-0.5
	c0.2-0.4,0.3-0.7,0.5-1.1c0.1-0.2,0.2-0.5,0.3-0.7c0.3-0.7,1-1.1,1.7-1.1h11.4c0.7,0,1.4,0.4,1.7,1c0.5,1.1,1.1,2.5,1.7,3.8
	c0.3,0.8,0.2,1.7-0.1,2.5c-0.2,0.5-0.5,1-0.9,1.4c0,0-0.1,0.1-0.1,0.2c0,2.9,0,5.7,0,7.9C30.5,31.6,30,32.5,28.6,32.5L28.6,32.5
	L28.6,32.5z M28.4,30.4c0-2.2,0-4.5,0-6.7c-0.3,0.1-0.6,0.1-0.9,0.1c-0.9,0-1.8-0.3-2.5-0.8c-1.5,1.1-3.5,1.1-5,0
	c-0.7,0.5-1.6,0.8-2.5,0.8c-0.3,0-0.6,0-0.9-0.1v6.7L28.4,30.4L28.4,30.4z M16.9,16c-0.2,0.5-0.4,0.9-0.6,1.4
	c-0.3,0.7-0.6,1.4-0.9,2.1c-0.1,0.1-0.1,0.3,0,0.5c0.1,0.8,0.7,1.5,1.5,1.7c0.3,0.1,0.5,0.1,0.8,0.1c0.6,0,1.1-0.2,1.5-0.7
	c0.2-0.3,0.6-0.5,0.9-0.5c0.4,0,0.7,0.2,0.9,0.5c0.4,0.4,0.9,0.7,1.5,0.6c0.1,0,0.3,0,0.4,0c0.5-0.1,0.9-0.3,1.3-0.7
	c0.2-0.2,0.5-0.4,0.8-0.4c0.1,0,0.1,0,0.2,0c0.3,0.1,0.5,0.2,0.7,0.4l0,0c0.4,0.4,1,0.7,1.6,0.7c1,0,1.9-0.6,2.1-1.6
	c0.1-0.3,0.1-0.6,0-0.8c-0.5-1.1-1-2.3-1.5-3.4l0,0l0,0c-1.1,0-2.2,0-3.1,0L16.9,16L16.9,16z M21.3,29.6c0-0.4,0-0.7,0-1.1
	c0-0.1,0-0.3,0-0.4v-0.4c0-0.3,0-0.7,0-1c-0.1-0.6,0.3-1.2,0.9-1.3c0.1,0,0.3,0,0.4,0l0,0c0.2,0,0.3,0,0.5,0.1
	c0.4,0.2,0.6,0.5,0.6,1c0,0.7,0,1.4,0,2c0,0.4,0,0.7,0,1.1C23.6,29.6,21.3,29.6,21.3,29.6z"/>
</svg>
