<?xml version="1.0" encoding="utf-8"?>
<!-- Generator: Adobe Illustrator 23.0.6, SVG Export Plug-In . SVG Version: 6.00 Build 0)  -->
<svg version="1.1" id="Layer_1" xmlns="http://www.w3.org/2000/svg" xmlns:xlink="http://www.w3.org/1999/xlink" x="0px" y="0px"
	 viewBox="0 0 38.6 37" style="enable-background:new 0 0 38.6 37;" xml:space="preserve">
<style type="text/css">
	.st0{fill-rule:evenodd;clip-rule:evenodd;fill:#8CC83B;}
</style>
<path class="st0" d="M18.3,34.4c0-0.6,0-1.2-0.1-1.8c0-0.6-0.5-1.1-1.1-1.1c-0.1,0-0.2,0-0.4,0.1c-0.7,0.1-1.4,0.2-2.1,0.3
	c-1.9,0.4-3.8,0.8-5.7,1.2c-0.1,0.1-0.2,0.1-0.3,0c-0.1-0.1,0-0.2,0-0.3c0.3-0.7,0.6-1.4,0.8-2.1c0.4-0.8,0.1-1.8-0.7-2.3
	c-1.8-1.5-3.6-2.9-5.4-4.3c-1.1-0.9-2.2-1.7-3.3-2.6c-0.3-0.2-0.3-0.3,0.1-0.4c0.4-0.1,0.7-0.3,1.1-0.4c1.1-0.4,1.4-0.8,1-2
	c-0.5-1.6-1-3.1-1.5-4.7c0-0.1-0.1-0.2-0.1-0.2c-0.1-0.2,0-0.3,0.2-0.2c0.2,0.1,0.4,0.1,0.7,0.2c1.3,0.3,2.6,0.6,3.9,0.9
	c0.6,0.3,1.3,0,1.6-0.6c0-0.1,0.1-0.1,0.1-0.2c0.3-0.5,0.5-1.1,0.8-1.6c0.1-0.3,0.2-0.3,0.5-0.1c1,1.1,2,2.2,2.9,3.4
	c0.3,0.4,0.6,0.7,1,0.9c0.2,0.2,0.5,0.2,0.6,0c0.1-0.1,0.1-0.3,0.1-0.4c0-0.9-0.1-1.8-0.4-2.6c-0.5-2.6-1-5.1-1.4-7.7
	c-0.1-0.4,0-0.4,0.3-0.3c0.8,0.4,1.6,0.8,2.4,1.3c1.1,0.7,1.3,0.6,1.9-0.5c1-1.8,1.9-3.7,2.9-5.5c0-0.2,0.1-0.3,0.2-0.3
	c0.2,0,0.2,0.2,0.3,0.4c1,1.9,2,3.8,3,5.7l0,0c0.5,0.9,0.8,1,1.6,0.4c0.8-0.5,1.7-1,2.6-1.4c0.1-0.1,0.2-0.1,0.3-0.1
	c0.1,0.1,0,0.2,0,0.3c-0.6,3-1.1,5.9-1.7,8.9c-0.1,0.4-0.1,0.9-0.1,1.3c0,0.2,0,0.4,0.2,0.6c0.2,0.1,0.5,0,0.6-0.1
	c0.5-0.4,0.9-0.8,1.2-1.3c0.8-1,1.7-2,2.6-3c0.3-0.3,0.4-0.2,0.5,0.1c0.3,0.7,0.6,1.3,0.9,1.9c0.2,0.4,0.5,0.6,0.9,0.5
	c1-0.1,2-0.3,3-0.6c0.7-0.1,1.3-0.3,2-0.5c0.1-0.1,0.2-0.1,0.3,0c0.1,0.1,0,0.2,0,0.3c-0.5,1.5-1,3-1.4,4.5
	c-0.1,0.3-0.2,0.6-0.2,0.9c-0.1,0.5,0.1,1,0.6,1.1c0.5,0.2,1.1,0.4,1.6,0.6c0.1,0,0.2,0.1,0.3,0.2c0,0.1-0.1,0.2-0.2,0.2
	c-2.7,2.1-5.4,4.2-8.1,6.4c-0.4,0.3-0.8,0.6-1.1,1c-0.3,0.4-0.4,1-0.3,1.5c0.3,0.8,0.6,1.6,0.9,2.4c0.1,0.1,0.1,0.2,0.1,0.3
	c-0.1,0.1-0.2,0.1-0.3,0.1c0,0-0.1,0-0.1-0.1c-2.3-0.5-4.6-1.1-6.9-1.4c-0.1,0-0.2,0-0.2,0c-1.4-0.1-2,0.4-2,1.7c0,0.9,0,1.9,0,2.8
	c0,0.3-0.1,0.4-0.4,0.4c-0.3,0-0.7,0-1,0c-0.2,0.1-0.4-0.1-0.5-0.3c0-0.1,0-0.1,0-0.2C18.3,35.6,18.3,35,18.3,34.4z M16.8,16.7
	c0,2.5,0.7,5,2.1,7c0.3,0.5,0.3,0.5,0.6,0c1.8-2.8,2.5-6.1,1.9-9.4c-0.4-2.5-1.1-5-2.1-7.3c0-0.1-0.1-0.2-0.2-0.2
	C19,6.8,19,7,19,7.1c-0.2,0.6-0.4,1.1-0.6,1.7C17.4,11.3,16.8,14,16.8,16.7z M17,25.1c-1.7-2.8-9.1-7.8-12-8
	c1.2,2.2,2.9,4.1,4.9,5.7C12,24.2,14.5,25,17,25.1L17,25.1z M33.2,17.1c-4.7,1.4-8.8,4.2-11.9,8c2.3-0.1,4.5-0.7,6.5-1.9
	C30.1,21.6,31.9,19.5,33.2,17.1z M11.3,31c0.1,0,0.1,0,0.1,0c1.5-0.2,3-0.8,4.3-1.6c0.9-0.5,1.5-1.3,1.9-2.2c0.1-0.1,0.1-0.2,0-0.3
	c-0.1-0.1-0.2-0.1-0.3,0c-1,0.2-1.9,0.6-2.8,1c-1.3,0.7-2.4,1.6-3.3,2.8c-0.1,0.1-0.2,0.1-0.1,0.2C11.2,31,11.2,31,11.3,31z
	 M26.8,31c0.2,0,0.3,0.1,0.3,0c0-0.1,0-0.2-0.1-0.2c-1.6-1.9-3.7-3.3-6.2-3.8c-0.1,0-0.2,0-0.3,0c-0.1,0.1-0.1,0.2,0,0.3
	c0.2,0.5,0.5,0.9,0.8,1.3C23,29.9,24.8,30.7,26.8,31z"/>
</svg>
