<?xml version="1.0" encoding="iso-8859-1"?>
<!-- Generator: Adobe Illustrator 19.0.0, SVG Export Plug-In . SVG Version: 6.00 Build 0)  -->
<svg version="1.1" id="Capa_1" xmlns="http://www.w3.org/2000/svg" xmlns:xlink="http://www.w3.org/1999/xlink" x="0px" y="0px"
	 viewBox="0 0 432 432" style="enable-background:new 0 0 432 432;" xml:space="preserve" fill="#fff">
<g>
	<g>
		<rect x="66" y="266" width="47" height="43"/>
	</g>
</g>
<g>
	<g>
		<rect x="168" y="262" width="96" height="140"/>
	</g>
</g>
<g>
	<g>
		<rect x="318" y="266" width="47" height="43"/>
	</g>
</g>
<g>
	<g>
		<path d="M370.079,160.673c-12.529,29.564-46.652,43.374-76.216,30.846c-11.692-4.955-21.44-13.601-27.755-24.618
			c-15.935,27.825-51.41,37.463-79.235,21.528c-8.723-4.996-16-12.171-21.118-20.823c-16.188,27.566-51.657,36.791-79.224,20.603
			c-10.85-6.371-19.328-16.105-24.151-27.726c-7.728,8.178-18.175,13.255-29.38,14.277V402h119V254.094
			c-0.099-4.37,3.363-7.993,7.733-8.093c0.022,0,0.045-0.001,0.067-0.001h111.84c4.508,0.015,8.199,3.589,8.36,8.094V402h119
			V174.715C387.929,173.867,377.593,168.848,370.079,160.673z M129,317c0,4.418-3.582,8-8,8H58c-4.418,0-8-3.582-8-8v-59
			c0-4.418,3.582-8,8-8h63c4.418,0,8,3.582,8,8V317z M381,317c0,4.418-3.582,8-8,8h-63c-4.418,0-8-3.582-8-8v-59
			c0-4.418,3.582-8,8-8h63c4.418,0,8,3.582,8,8V317z"/>
	</g>
</g>
<g>
	<g>
		<path d="M430.363,104.085l-40.251-68.197c-2.167-3.646-6.091-5.882-10.332-5.888H60.12c-3.914-0.001-7.581,1.913-9.82,5.123
			L2.129,104.142c-1.4,2.015-2.144,4.414-2.129,6.868v18.7c-0.018,16.112,13.028,29.188,29.14,29.206
			c14.531,0.016,26.859-10.664,28.913-25.049l0.313-4.689c0.296-4.408,4.11-7.742,8.518-7.446c4.199,0.282,7.461,3.769,7.464,7.978
			c0,1.931-0.122,3.86-0.367,5.776l-0.187,2.809c0.071,23.183,18.921,41.919,42.104,41.848s41.919-18.921,41.848-42.104
			c0-4.418,3.582-8,8-8s8,3.582,8,8c-0.108,23.183,18.597,42.064,41.78,42.173c23.183,0.108,42.064-18.597,42.173-41.78
			c0.001-0.136,0.001-0.273,0-0.409c-0.001-4.422,3.578-8.01,8-8.019h0.818c4.422,0.009,8.001,3.597,8,8.019
			c-0.074,23.183,18.66,42.035,41.843,42.109c23.133,0.073,41.965-18.583,42.108-41.716l-0.027-0.261
			c-0.527-2.783-0.792-5.61-0.791-8.443c0.03-4.418,3.636-7.976,8.054-7.946c4.074,0.028,7.476,3.112,7.902,7.164l0.665,6.853
			c3.339,15.767,18.826,25.842,34.593,22.503c13.498-2.858,23.15-14.78,23.136-28.577v-19.523
			C432.011,108.042,431.446,105.935,430.363,104.085z"/>
	</g>
</g>
<g>
</g>
<g>
</g>
<g>
</g>
<g>
</g>
<g>
</g>
<g>
</g>
<g>
</g>
<g>
</g>
<g>
</g>
<g>
</g>
<g>
</g>
<g>
</g>
<g>
</g>
<g>
</g>
<g>
</g>
</svg>
