<svg xmlns="http://www.w3.org/2000/svg" width="16.91" height="18.68" viewBox="0 0 16.91 18.68">
  <defs>
    <style>
      .cls-1 {
        fill: #fff;
        fill-rule: evenodd;
      }
    </style>
  </defs>
  <path id="cannabis_copy_3" data-name="cannabis copy 3" class="cls-1" d="M1237.55,1805.67a18.632,18.632,0,0,1,.83,2.02,16.531,16.531,0,0,1,.86,3.93,14.9,14.9,0,0,1-.09,3.53c0.12-.23.24-0.46,0.36-0.68a14.511,14.511,0,0,1,3.91-4.45,10.466,10.466,0,0,1,1.11-.77,0.1,0.1,0,0,1,.13-0.04c0.04,0.02.01,0.08,0.01,0.12a15.392,15.392,0,0,1-.84,3.73,13.01,13.01,0,0,1-2.3,4.11,0.21,0.21,0,0,0-.07.14c0.33-.12.65-0.24,0.99-0.33a11.3,11.3,0,0,1,3.37-.43,0.138,0.138,0,0,1,.14.03,0.136,0.136,0,0,1-.07.13,10.815,10.815,0,0,1-1.45,1.34,9.861,9.861,0,0,1-4.13,1.89l-0.38.07c0.26,0.05.48,0.09,0.69,0.13a7.419,7.419,0,0,1,2.94,1.37,0.19,0.19,0,0,1,.12.13,0.156,0.156,0,0,1-.16.07,7.277,7.277,0,0,1-5.26-1.04,0.351,0.351,0,0,0-.08-0.05c-0.04-.02-0.08-0.08-0.12-0.04a0.106,0.106,0,0,0-.02.13c0.08,0.62.15,1.23,0.23,1.84,0.05,0.39.1,0.77,0.14,1.16a0.527,0.527,0,0,1-.57.62h-0.65a0.532,0.532,0,0,1-.57-0.62c0.08-.67.16-1.34,0.25-2l0.12-.96c0.01-.06.04-0.14-0.02-0.17s-0.1.03-.15,0.06a7.216,7.216,0,0,1-2.35,1.01,7.963,7.963,0,0,1-2.96.06,0.156,0.156,0,0,1-.16-0.07,0.19,0.19,0,0,1,.12-0.13,7.548,7.548,0,0,1,3.59-1.5c-0.26-.06-0.52-0.11-0.78-0.17a9.942,9.942,0,0,1-4.02-2.06,10.186,10.186,0,0,1-1.11-1.07,0.11,0.11,0,0,1-.07-0.13c0.02-.06.09-0.03,0.15-0.03a11.238,11.238,0,0,1,4.18.7c0.04,0.02.08,0.03,0.12,0.05a0.433,0.433,0,0,1,.05-0.01c-0.2-.27-0.4-0.52-0.59-0.78a13.945,13.945,0,0,1-2.22-4.88,13.317,13.317,0,0,1-.4-2.27,0.134,0.134,0,0,1,.01-0.15c0.06-.04.11,0.02,0.16,0.06a14.559,14.559,0,0,1,5.28,5.78c0.02,0.03.04,0.07,0.08,0.14-0.04-.36-0.08-0.68-0.11-0.99a12.882,12.882,0,0,1,0-2.56,17.007,17.007,0,0,1,1.22-4.91c0.14-.36.31-0.71,0.47-1.06h0.07Z" transform="translate(-1229.06 -1805.66)"/>
</svg>
