<?xml version="1.0" encoding="utf-8"?>
<!-- Generator: Adobe Illustrator 22.1.0, SVG Export Plug-In . SVG Version: 6.00 Build 0)  -->
<svg version="1.1" xmlns="http://www.w3.org/2000/svg" xmlns:xlink="http://www.w3.org/1999/xlink" x="0px" y="0px"
	 viewBox="0 0 100 100" style="enable-background:new 0 0 100 100;" xml:space="preserve">
<style type="text/css">
	.st0{display:none;}
	.st1{display:inline;}
	.st2{fill:none;stroke:#266300;stroke-width:2;stroke-miterlimit:10;}
</style>
<g id="Layer_1" class="st0">
	<g class="st1">
		<path fill="#266300" d="M83.2,59.3c-2.5-2.6-5.3-4.8-8.4-6.7c9.5-13.7,6.1-32.5-7.6-42s-32.5-6.1-42,7.6c-7.2,10.3-7.2,24,0,34.4
			C11.4,61.1,3,76.2,3,92.5c0,1.9,1.5,3.4,3.4,3.4h87.3c1.9,0,3.4-1.5,3.4-3.4C97,80,92.1,68.1,83.2,59.3z M50,11.9
			c13,0,23.5,10.5,23.5,23.5S63,58.9,50,58.9S26.5,48.4,26.5,35.4S37,11.9,50,11.9z M9.7,89.1c1.2-13.1,8.7-24.9,20.1-31.4
			c11.5,10.6,29.1,10.6,40.6,0c11.3,6.6,18.7,18.4,19.8,31.4H9.7z"/>
	</g>
</g>
<g id="Layer_2" class="st0">
	<g transform="translate(0,-952.36218)" class="st1">
		<path fill="#266300" d="M10,957.4c-2.7,0-5,2.3-5,5v29c0,2.7,2.3,5,5,5h30c2.7,0,5-2.3,5-5v-29c0-2.7-2.3-5-5-5H10z M60,957.4c-2.7,0-5,2.3-5,5
			v29c0,2.7,2.3,5,5,5h30c2.7,0,5-2.3,5-5v-29c0-2.7-2.3-5-5-5C79.7,957.4,70.3,957.4,60,957.4z M11,963.4h28v27H11V963.4z
			 M61,963.4c9.6,0,18.4,0,28,0v27H61V963.4z M10,1008.4c-2.7,0-5,2.3-5,5v29c0,2.7,2.3,5,5,5h30c2.7,0,5-2.3,5-5v-29
			c0-2.7-2.3-5-5-5H10z M60,1008.4c-2.7,0-5,2.3-5,5v29c0,2.7,2.3,5,5,5h30c2.7,0,5-2.3,5-5v-29c0-2.7-2.3-5-5-5H60z M11,1014.4h28
			v27H11V1014.4z M61,1014.4h28v27H61V1014.4z"/>
	</g>
</g>
<g id="Layer_3" class="st0">
	<g class="st1">
		<g>
			<path fill="#266300" d="M86.3,62.9h-2.6v-2.6c0-4.3-3.5-7.7-7.7-7.7H52.6v-5.2c2.4,0,5.3,0,7.7,0c1.4,0,2.6-1.2,2.6-2.6s-1.2-2.6-2.6-2.6h-2.6
				v-5.2h7.7c4.3,0,7.7-3.5,7.7-7.7V13.7c0-4.3-3.5-7.7-7.7-7.7H34.5c-4.3,0-7.7,3.5-7.7,7.7v15.6c0,4.3,3.5,7.7,7.7,7.7h7.7v5.2
				h-2.6c-1.4,0-2.6,1.2-2.6,2.6s1.2,2.6,2.6,2.6c2.4,0,5.3,0,7.7,0v5.2H24c-4.3,0-7.7,3.5-7.7,7.7v2.6h-2.6c-4.3,0-7.7,3.5-7.7,7.7
				v5.2c0,4.3,3.5,7.7,7.7,7.7h2.6v5.3h-2.6c-1.4,0-2.6,1.2-2.6,2.6s1.2,2.6,2.6,2.6H24c1.4,0,2.6-1.2,2.6-2.6s-1.2-2.6-2.6-2.6
				h-2.6v-5.3H24c4.3,0,7.7-3.5,7.7-7.7v-5.2c0-4.3-3.5-7.7-7.7-7.7h-2.6v-2.6c0-1.4,1.2-2.6,2.6-2.6h23.4v5.2h-2.6
				c-4.3,0-7.7,3.5-7.7,7.7v5.2c0,4.3,3.5,7.7,7.7,7.7h2.6v5.3h-2.6c-1.4,0-2.6,1.2-2.6,2.6s1.2,2.6,2.6,2.6h10.3
				c1.4,0,2.6-1.2,2.6-2.6s-1.2-2.6-2.6-2.6h-2.6v-5.3h2.6c4.3,0,7.7-3.5,7.7-7.7v-5.2c0-4.3-3.5-7.7-7.7-7.7h-2.6v-5.2H76
				c1.4,0,2.6,1.2,2.6,2.6v2.6H76c-4.3,0-7.7,3.5-7.7,7.7v5.2c0,4.3,3.5,7.7,7.7,7.7h2.6v5.3H76c-1.4,0-2.6,1.2-2.6,2.6
				S74.5,94,76,94h10.3c1.4,0,2.6-1.2,2.6-2.6s-1.2-2.6-2.6-2.6h-2.6v-5.3h2.6c4.3,0,7.7-3.5,7.7-7.7v-5.2
				C94,66.4,90.5,62.9,86.3,62.9z M24,68c1.4,0,2.6,1.2,2.6,2.6v5.2c0,1.4-1.2,2.6-2.6,2.6H13.7c-1.4,0-2.6-1.2-2.6-2.6v-5.2
				c0-1.4,1.2-2.6,2.6-2.6H24z M34.5,32c-1.4,0-2.6-1.2-2.6-2.6V13.7c0-1.4,1.2-2.6,2.6-2.6h30.9c1.4,0,2.6,1.2,2.6,2.6v15.6
				c0,1.4-1.2,2.6-2.6,2.6C59.3,32,40.7,32,34.5,32z M55.2,68c1.4,0,2.6,1.2,2.6,2.6v5.2c0,1.4-1.2,2.6-2.6,2.6H44.8
				c-1.4,0-2.6-1.2-2.6-2.6v-5.2c0-1.4,1.2-2.6,2.6-2.6H55.2z M47.4,42.3v-5.2h5.2v5.2H47.4z M88.8,75.8c0,1.4-1.2,2.6-2.6,2.6H76
				c-1.4,0-2.6-1.2-2.6-2.6v-5.2c0-1.4,1.2-2.6,2.6-2.6h10.3c1.4,0,2.6,1.2,2.6,2.6V75.8z"/>
		</g>
	</g>
</g>
<g id="Layer_4" class="st0">
	<g class="st1">
		<g>
			<path fill="#266300" d="M34.7,75c0-0.1-0.1-0.2-0.1-0.3c0-0.1-0.1-0.2-0.2-0.3c-0.1-0.1-0.1-0.2-0.2-0.3s-0.2-0.2-0.3-0.2
				c-0.1-0.1-0.2-0.1-0.3-0.2c-0.1,0-0.2-0.1-0.3-0.1c-0.2,0-0.5,0-0.7,0c-0.1,0-0.2,0.1-0.3,0.1c-0.1,0-0.2,0.1-0.3,0.2
				c-0.1,0.1-0.2,0.1-0.3,0.2c-0.1,0.1-0.2,0.2-0.2,0.3c-0.1,0.1-0.1,0.2-0.2,0.3c0,0.1-0.1,0.2-0.1,0.3c0,0.1,0,0.2,0,0.4
				c0,0.1,0,0.2,0,0.4c0,0.1,0.1,0.2,0.1,0.3c0,0.1,0.1,0.2,0.2,0.3c0.1,0.1,0.1,0.2,0.2,0.3c0.1,0.1,0.2,0.2,0.3,0.2
				c0.1,0.1,0.2,0.1,0.3,0.2c0.1,0,0.2,0.1,0.3,0.1c0.1,0,0.2,0,0.4,0s0.2,0,0.4,0c0.1,0,0.2-0.1,0.3-0.1c0.1,0,0.2-0.1,0.3-0.2
				c0.1-0.1,0.2-0.1,0.3-0.2s0.2-0.2,0.2-0.3c0.1-0.1,0.1-0.2,0.2-0.3c0-0.1,0.1-0.2,0.1-0.3c0-0.1,0-0.2,0-0.4
				C34.7,75.2,34.7,75.1,34.7,75z"/>
		</g>
	</g>
	<g class="st1">
		<g>
			<path fill="#266300" d="M87.5,75.5C87.4,75.5,87.4,75.5,87.5,75.5c-1.7-4-5.7-5.5-10.4-3.9l-12.8,3.5c-0.7-2.2-2.6-4.1-5.2-5.1c0,0,0,0,0,0
				L45,65.3c-1.2-1.5-4.8-5.4-11.7-5.4c-4.8,0-9,3.3-11.5,6.9h-17c-1,0-1.8,0.8-1.8,1.8v23.1c0,1,0.8,1.8,1.8,1.8h10.9
				c1,0,1.8-0.8,1.8-1.8v-1.6h5.1c1,0,1.8-0.8,1.8-1.8v-0.5c3,0.3,4,0.8,6.7,2.4c2.1,1.2,5.3,3.1,11,5.6c0,0,0.1,0,0.1,0
				c1.1,0.4,3.3,1.1,5.9,1.1c1.8,0,3.9-0.3,6.1-1.3l28.3-10.1c0.1,0,0.1,0,0.1-0.1C85.5,84.3,89.5,80.8,87.5,75.5z M13.9,89.9H6.7
				V70.5h7.2V89.9z M20.9,86.5h-3.3V70.5h3.3V86.5z M81.3,82.1L53,92.3c0,0-0.1,0-0.1,0c0,0,0,0-0.1,0c-3.9,1.8-7.7,0.7-9.1,0.2
				c-5.5-2.5-8.5-4.2-10.7-5.4c-3-1.7-4.5-2.6-8.5-2.9V69.3c1.7-2.9,5.1-5.8,8.8-5.8c6.2,0,8.9,4.1,9,4.2c0.2,0.4,0.6,0.6,1,0.8
				l14.6,5c2.3,0.9,3.6,2.9,3,4.9c-0.3,0.9-0.9,1.7-1.7,2.1c-0.8,0.5-1.8,0.6-2.7,0.3L40,75.6c-1-0.3-2,0.2-2.3,1.2
				c-0.3,1,0.2,2,1.2,2.3l16.5,5.2c0,0,0,0,0.1,0c0.7,0.2,1.3,0.3,2,0.3c1.2,0,2.4-0.3,3.5-0.9c1.7-0.9,2.9-2.5,3.4-4.4
				c0-0.1,0.1-0.3,0.1-0.4l13.8-3.8c2-0.7,4.6-0.9,5.8,1.8C85.2,80,82.1,81.8,81.3,82.1z"/>
		</g>
	</g>
	<g class="st1">
		<g>
			<path fill="#266300" d="M68.9,27.1c0-0.1-0.1-0.2-0.1-0.3c0-0.1-0.1-0.2-0.2-0.3c-0.1-0.1-0.1-0.2-0.2-0.3c-0.1-0.1-0.2-0.2-0.3-0.2
				c-0.1-0.1-0.2-0.1-0.3-0.2c-0.1,0-0.2-0.1-0.3-0.1c-0.2,0-0.5,0-0.7,0c-0.1,0-0.2,0.1-0.3,0.1c-0.1,0-0.2,0.1-0.3,0.2
				c-0.1,0.1-0.2,0.1-0.3,0.2c-0.1,0.1-0.2,0.2-0.2,0.3c-0.1,0.1-0.1,0.2-0.2,0.3c0,0.1-0.1,0.2-0.1,0.3c0,0.1,0,0.2,0,0.4
				s0,0.2,0,0.4c0,0.1,0.1,0.2,0.1,0.3c0,0.1,0.1,0.2,0.2,0.3c0.1,0.1,0.1,0.2,0.2,0.3c0.1,0.1,0.2,0.2,0.3,0.2
				c0.1,0.1,0.2,0.1,0.3,0.2c0.1,0,0.2,0.1,0.3,0.1s0.2,0,0.4,0c0.1,0,0.2,0,0.4,0c0.1,0,0.2-0.1,0.3-0.1c0.1,0,0.2-0.1,0.3-0.2
				c0.1-0.1,0.2-0.1,0.3-0.2c0.1-0.1,0.2-0.2,0.2-0.3c0.1-0.1,0.1-0.2,0.2-0.3c0-0.1,0.1-0.2,0.1-0.3c0-0.1,0-0.2,0-0.4
				S68.9,27.3,68.9,27.1z"/>
		</g>
	</g>
	<g class="st1">
		<g>
			<path fill="#266300" d="M95.2,9.2H84.3c-1,0-1.8,0.8-1.8,1.8v1.6h-5.1c-1,0-1.8,0.8-1.8,1.8V15c-3-0.3-4-0.8-6.7-2.4c-2.1-1.2-5.3-3.1-11-5.6
				c0,0-0.1,0-0.1,0c-1.9-0.7-6.8-2.2-12,0.2l-7.4,2.6L32,3.5c-0.7-0.7-1.9-0.7-2.6,0L9,24c-0.7,0.7-0.8,1.8,0,2.6l34.9,34.9
				c0.6,0.6,1.9,0.7,2.6,0l18.7-18.7c0.5,0,1,0.1,1.5,0.1c4.8,0,9-3.3,11.5-6.9h17c1,0,1.8-0.8,1.8-1.8V11.1
				C97,10,96.2,9.2,95.2,9.2z M30.7,7.4l4.2,4.2c-1.2,0.8-2.7,1.2-4.2,1.2c-1.5,0-2.9-0.4-4.2-1.2L30.7,7.4z M17.1,29.5l-4.2-4.2
				l4.2-4.2c0.8,1.2,1.2,2.7,1.2,4.2C18.3,26.8,17.8,28.2,17.1,29.5z M45.2,57.6L41,53.4c2.6-1.6,5.8-1.6,8.4,0L45.2,57.6z
				 M52.1,50.8c-4.1-2.9-9.6-2.9-13.7,0L19.7,32.1c1.4-2,2.2-4.3,2.2-6.8c0-2.5-0.8-4.9-2.2-6.8l4.2-4.2c2,1.4,4.3,2.2,6.8,2.2
				s4.9-0.8,6.8-2.2l4,4c-0.9,0.1-1.7,0.4-2.5,0.8c-1.3,0.7-2.3,1.8-3,3.2c-2.1,0.4-4,1.4-5.5,2.9c-4.1,4.1-4.1,10.7,0,14.8
				c2,2,4.7,3.1,7.4,3.1c2.7,0,5.4-1,7.4-3.1c1.3-1.3,2.3-3,2.7-4.7l6.2,2.1c-0.7,3.2,0,6.6,1.9,9.3L52.1,50.8z M40.9,32.7
				C40.9,32.7,40.9,32.8,40.9,32.7l3.7,1.3c-0.3,1.3-0.9,2.4-1.8,3.3c-2.6,2.6-7,2.6-9.6,0c-2.6-2.6-2.6-7,0-9.6
				c0.6-0.6,1.4-1.1,2.2-1.5C35.7,29.1,37.8,31.6,40.9,32.7z M58.9,44c-0.7-1.2-1.1-2.5-1.2-3.8c0.9,0.6,2,1.3,3.2,1.8L58.9,44z
				 M75.5,33.5c-1.7,2.9-5.1,5.8-8.8,5.8c-0.7,0-1.3,0-1.9-0.1c0,0,0,0,0,0c-4-0.6-6.1-2.8-6.8-3.7c0-0.1-0.2-0.3-0.2-0.3
				c-0.2-0.4-0.6-0.7-1-0.8l-14.6-5c-2.3-0.9-3.6-2.9-3-4.9c0,0,0,0,0,0c0,0,0,0,0,0c0.3-0.9,0.9-1.7,1.7-2.1
				c0.8-0.5,1.8-0.6,2.7-0.3L60,27.2c1,0.3,2-0.2,2.3-1.2c0.3-1-0.2-2-1.2-2.3L48,19.5l-0.1-0.1c0,0,0,0,0,0l-6.8-6.8l5.8-2.1
				c0,0,0,0,0.1,0c0,0,0,0,0,0c0,0,0,0,0.1,0c3.9-1.8,7.7-0.7,9.1-0.2c5.5,2.5,8.5,4.2,10.7,5.4c3,1.7,4.5,2.6,8.5,2.9V33.5z
				 M82.4,32.4h-3.3V16.3h3.3V32.4z M93.3,32.4h-7.2V12.9h7.2V32.4z"/>
		</g>
	</g>
</g>
<g id="Layer_5" class="st0">
	<g class="st1">
		<path fill="#266300" d="M77.9,26.6H41.4c-1.2,0-2.1,1-2.1,2.1v16.6c0,1.2,1,2.1,2.1,2.1h36.5c1.2,0,2.1-1,2.1-2.1V28.7
			C80.1,27.5,79.1,26.6,77.9,26.6z M75.8,43.3H43.6V30.8h32.2V43.3z"/>
		<path fill="#266300" d="M95.8,20.6c0-4.7-3.8-8.6-8.6-8.6H32.1c-4.7,0-8.6,3.8-8.6,8.6v7.4H12.7c-4.7,0-8.6,3.8-8.6,8.6l0,0v39.7
			C4.2,82.7,9.5,88,16,88l0,0h65.6c7.9,0,14.2-6.4,14.2-14.2v0V20.6z M23.6,76.2c0,4.2-3.4,7.5-7.5,7.5s-7.5-3.4-7.5-7.5V36.5
			c0-2.4,1.9-4.3,4.3-4.3h10.8V76.2z M91.6,73.8c0,5.5-4.5,10-10,10c0,0,0,0,0,0H25.1c1.7-2.1,2.7-4.8,2.7-7.5V20.6
			c0-2.4,1.9-4.3,4.3-4.3h55.2c2.4,0,4.3,1.9,4.3,4.3L91.6,73.8z"/>
		<path fill="#266300" d="M77.9,56H41.4c-1.2,0-2.1,1-2.1,2.1c0,1.2,1,2.1,2.1,2.1h36.5c1.2,0,2.1-1,2.1-2.1C80.1,57,79.1,56,77.9,56z"/>
		<path fill="#266300" d="M77.9,68.8H41.4c-1.2,0-2.1,1-2.1,2.1c0,1.2,1,2.1,2.1,2.1h36.5c1.2,0,2.1-1,2.1-2.1C80.1,69.8,79.1,68.8,77.9,68.8z"/>
	</g>
</g>
<g id="Layer_6" class="st0">
	<g class="st1">
		<g>
			<g>
				<path fill="#266300" d="M20.9,71.4H10c-3.3,0-6-2.7-6-6V61c0-3.3,2.7-6,6-6h10.9c1.1,0,1.9,0.9,1.9,1.9v12.6C22.8,70.6,22,71.4,20.9,71.4z
					 M10,58.8c-1.2,0-2.2,1-2.2,2.1v4.5c0,1.2,1,2.1,2.2,2.1h9v-8.8H10z"/>
			</g>
			<g>
				<path fill="#266300" d="M36.9,82.9c-1,0-2-0.4-2.8-1.1L19.8,71c-0.5-0.4-0.8-0.9-0.8-1.5V56.9c0-0.6,0.3-1.2,0.8-1.5l14.4-10.9
					c1.2-1,3-1.3,4.5-0.6c1.6,0.7,2.6,2.2,2.6,4v30.6c0,1.7-1,3.3-2.6,4C38.1,82.8,37.5,82.9,36.9,82.9z M22.8,68.6l13.7,10.3
					c0.3,0.2,0.5,0.3,0.7,0.2c0.1-0.1,0.3-0.2,0.3-0.5V47.9c0-0.3-0.2-0.4-0.3-0.5c-0.2-0.1-0.4-0.1-0.5,0.1L22.8,57.9V68.6z"/>
			</g>
			<g>
				<path fill="#266300" d="M17.4,84.3c-1.9,0-3.6-1.2-4.3-3L9.1,70.2c-0.2-0.6-0.1-1.2,0.2-1.8c0.4-0.5,0.9-0.8,1.6-0.8h5.6c0.8,0,1.5,0.5,1.8,1.3
					l3.4,9.3c0.5,1.4,0.3,2.9-0.5,4.2C20.2,83.6,18.9,84.3,17.4,84.3z M13.6,71.4l3.1,8.5c0.1,0.3,0.4,0.5,0.7,0.5
					c0.3,0,0.5-0.2,0.6-0.3c0.1-0.1,0.2-0.3,0.1-0.6l-2.9-8.1H13.6z"/>
			</g>
			<g>
				<path fill="#266300" d="M39.4,69.7c-0.5,0-1-0.2-1.3-0.5c-0.4-0.4-0.6-0.9-0.6-1.4v-9.2c0-0.5,0.2-1,0.6-1.4c0.4-0.4,0.9-0.6,1.4-0.5
					c4.4,0.2,7.8,3,7.8,6.5C47.3,66.7,43.8,69.6,39.4,69.7C39.4,69.7,39.4,69.7,39.4,69.7z M41.3,60.9v4.6c1.3-0.5,2.2-1.4,2.2-2.3
					C43.5,62.4,42.6,61.4,41.3,60.9z"/>
			</g>
		</g>
		<g>
			<path fill="#266300" d="M76.3,75h-37c-1.1,0-1.9-0.9-1.9-1.9s0.9-1.9,1.9-1.9h37c1.1,0,1.9,0.9,1.9,1.9S77.4,75,76.3,75z"/>
		</g>
		<g>
			<path fill="#266300" d="M30,52c-1.1,0-1.9-0.9-1.9-1.9V16.8c0-2.8,2.3-5.1,5.1-5.1h34.1c2.8,0,5.1,2.3,5.1,5.1V34c0,1.1-0.9,1.9-1.9,1.9
				s-1.9-0.9-1.9-1.9V16.8c0-0.7-0.6-1.3-1.3-1.3H33.2c-0.7,0-1.3,0.6-1.3,1.3v33.2C31.9,51.1,31,52,30,52z"/>
		</g>
		<g>
			<path fill="#266300" d="M76.3,75c-4.3,0-7.8-3.5-7.8-7.8V34c0-1.1,0.9-1.9,1.9-1.9h17.8c1.1,0,1.9,0.9,1.9,1.9s-0.9,1.9-1.9,1.9H72.3v31.2
				c0,2.2,1.8,4,4,4s4-1.8,4-4c0-1.1,0.9-1.9,1.9-1.9s1.9,0.9,1.9,1.9C84.2,71.5,80.6,75,76.3,75z"/>
		</g>
		<g>
			<path fill="#266300" d="M90.9,83.8H53.4c-2.8,0-5.1-2.3-5.1-5.1v-5.7c0-1.1,0.9-1.9,1.9-1.9s1.9,0.9,1.9,1.9v5.7c0,0.7,0.6,1.3,1.3,1.3h37.5
				c0.7,0,1.3-0.6,1.3-1.3V39.9c0-2.2-1.8-4-4-4s-4,1.8-4,4v27.2c0,1.1-0.9,1.9-1.9,1.9s-1.9-0.9-1.9-1.9V39.9
				c0-4.3,3.5-7.8,7.8-7.8c4.3,0,7.8,3.5,7.8,7.8v38.8C96,81.6,93.7,83.8,90.9,83.8z"/>
		</g>
		<g>
			<g>
				<path fill="#266300" d="M63.5,25.8H38.9c-1.1,0-1.9-0.9-1.9-1.9s0.9-1.9,1.9-1.9h24.6c1.1,0,1.9,0.9,1.9,1.9S64.5,25.8,63.5,25.8z"/>
			</g>
			<g>
				<path fill="#266300" d="M63.5,37.6H38.9c-1.1,0-1.9-0.9-1.9-1.9s0.9-1.9,1.9-1.9h24.6c1.1,0,1.9,0.9,1.9,1.9S64.5,37.6,63.5,37.6z"/>
			</g>
			<g>
				<path fill="#266300" d="M63.5,49.4H46.8c-1.1,0-1.9-0.9-1.9-1.9s0.9-1.9,1.9-1.9h16.7c1.1,0,1.9,0.9,1.9,1.9S64.5,49.4,63.5,49.4z"/>
			</g>
			<g>
				<path fill="#266300" d="M63.5,61.3H50.7c-1.1,0-1.9-0.9-1.9-1.9s0.9-1.9,1.9-1.9h12.8c1.1,0,1.9,0.9,1.9,1.9S64.5,61.3,63.5,61.3z"/>
			</g>
		</g>
	</g>
</g>
<g id="Layer_7" class="st0">
	<g class="st1">
		<g>
			<path fill="#266300" class="st2" d="M59.5,4v14c0,2.2,1.8,4,4,4h14"/>
			<path fill="#266300" class="st2" d="M77.5,40.4V23.7c0-1.1-0.4-2.1-1.2-2.8L60.7,5.2C59.9,4.4,58.9,4,57.9,4H13.5c-2.2,0-4,1.8-4,4v84
				c0,2.2,1.8,4,4,4h60.1c2.2,0,4-1.8,4-4V54"/>
		</g>
		<path fill="#266300" class="st2" d="M88.5,43.8l-6.8-7.4l5.1-4.6c1.3-1.2,3.3-1.1,4.5,0.2l2.5,2.7c1.2,1.3,1.1,3.3-0.2,4.5L88.5,43.8z"/>
		<polyline fill="#266300" class="st2" points="87.8,44.3 67.6,62.9 56.3,67 56,66.7 60.8,55.5 81.7,36.6 		"/>
		<line fill="#266300" class="st2" x1="67" y1="61.8" x2="61" y2="55.3"/>
		<line fill="#266300" class="st2" x1="17.5" y1="50" x2="56" y2="50"/>
		<line fill="#266300" class="st2" x1="17.5" y1="86" x2="56" y2="86"/>
		<line fill="#266300" class="st2" x1="17.5" y1="62" x2="36.7" y2="62"/>
		<line fill="#266300" class="st2" x1="17.5" y1="74" x2="45.5" y2="74"/>
	</g>
</g>
<g id="Layer_8" class="st0">
	<g class="st1">
		<g transform="translate(-237.fff, -189.fff)">
			<g transform="translate(240.fff, 190.fff)">
				<path fill="#266300" d="M83.3,8.4C83.3,6,81.4,4,79,4H14c-2.4,0-4.3,1.9-4.3,4.3v82.3c0,2.4,1.9,4.3,4.3,4.3h43.4l4.3-4.3H14V8.3h65v65l4.3-4.4
					V8.4z"/>
				<polygon points="83.3,65.9 83.3,72.1 60.4,95 54.3,95 				"/>
				<path fill="#266300" d="M83.3,69H61.6c-2.4,0-4.3,2-4.3,4.3V95l4.3-4.3V73.3H79L83.3,69z"/>
				<path fill="#266300" d="M30.7,42.2l8.9,7.9c1.1,1,3,0.6,3.5-0.9l7.2-19.7l6.8,8.2c1,1.2,2.9,1,3.6-0.4l10.6-20.6l-3.9-2l-9.1,17.6l-7.1-8.6
					c-1.1-1.3-3.1-0.9-3.7,0.6L40,44.7l-8.5-7.6c-1-0.9-2.7-0.6-3.3,0.6l-8.3,15.1l3.8,2.1L30.7,42.2z"/>
				<rect fill="#266300" x="22.7" y="64.7" width="26" height="4.3"/>
				<rect fill="#266300" x="22.7" y="77.7" width="26" height="4.3"/>
			</g>
		</g>
	</g>
</g>
<g id="Layer_9" class="st0">
	<g class="st1">
		<g>
			<path fill="#266300" d="M92,66.2c0,5.3-4.4,9.7-9.7,9.7H17.7c-5.4,0-9.7-4.3-9.7-9.7c0-5.3,4.3-9.7,9.7-9.7c0,0,0-19.4,0-19.4
				C17.7,19.2,32.2,4.8,50,4.8c17.8,0,32.3,14.5,32.3,32.3v19.4C87.6,56.5,92,60.8,92,66.2z M82.3,62.9c-3.6,0-6.5-2.9-6.5-6.5V37.1
				c0-14.3-11.6-25.8-25.8-25.8c-14.3,0-25.8,11.6-25.8,25.8v19.4c0,3.6-2.9,6.5-6.5,6.5c-1.8,0-3.2,1.5-3.2,3.2
				c0,1.8,1.5,3.2,3.2,3.2h64.6c1.8,0,3.2-1.5,3.2-3.2C85.5,64.4,84.1,62.9,82.3,62.9z M35.5,80.7h6.5c0,4.5,3.6,8.1,8.1,8.1
				s8.1-3.6,8.1-8.1h6.5c0,8-6.5,14.5-14.5,14.5S35.5,88.7,35.5,80.7z"/>
		</g>
	</g>
</g>
<g id="Layer_10">
	<g>
		<path fill="#266300" d="M50,8.4c-11.8,0-23.6,4.5-32.5,13.5c-18,18-18,47.3,0,65.3c1.3,1.3,2.8,2.6,4.2,3.7c1.3,1,3.4,0.7,4.3-0.6
			c5.4-7.4,14.1-12.2,24-12.2c9.9,0,18.6,4.8,24,12.2c0.9,1.3,3,1.6,4.3,0.6c1.4-1.1,2.9-2.4,4.2-3.7c18-18,18-47.3,0-65.3
			C73.5,12.9,61.8,8.4,50,8.4L50,8.4z M50,14.6c10.2,0,20.4,3.9,28.2,11.7c15.6,15.7,15.6,40.9,0,56.6c-0.5,0.5-1,0.9-1.6,1.4
			C70.1,76.8,60.6,72,50,72s-20.1,4.8-26.6,12.2c-0.5-0.5-1-0.9-1.6-1.4C6.2,67.2,6.2,42,21.8,26.3C29.6,18.5,39.8,14.6,50,14.6
			L50,14.6z M71.6,29.8c-0.8,0-1.6,0.4-2.1,0.9L56.2,44.1c-1.8-1.1-3.9-1.7-6.2-1.7c-6.7,0-12.3,5.5-12.3,12.3
			C37.7,61.4,43.3,67,50,67c6.7,0,12.3-5.5,12.3-12.3c0-2.3-0.7-4.4-1.7-6.3L73.9,35c0.9-0.8,1.2-2.3,0.7-3.4
			C74.1,30.5,72.9,29.7,71.6,29.8L71.6,29.8z M50,48.5c3.4,0,6.1,2.7,6.1,6.1c0,3.5-2.7,6.2-6.1,6.2c-3.4,0-6.1-2.7-6.1-6.2
			C43.9,51.2,46.6,48.5,50,48.5L50,48.5z"/>
	</g>
</g>
</svg>
