<svg viewBox="-33 0 512 512.002"  xmlns="http://www.w3.org/2000/svg">
    <path fill="#fff" d="m136.289062 271h180c8.292969 0 15-6.710938 15-15v-181c0-8.289062-6.707031-15-15-15h-45v-15c0-24.8125-20.1875-45-45-45s-45 20.1875-45 45v15h-45c-8.289062 0-15 6.710938-15 15v181c0 8.289062 6.710938 15 15 15zm75-226c0-8.277344 6.738282-15 15-15 8.261719 0 15 6.722656 15 15v15h-30zm0 0"/>
    <path fill="#fff" d="m444.816406 248.234375c-2.695312-4.480469-7.589844-7.234375-12.832031-7.234375-26.429687 0-50.675781 14.667969-62.945313 38.078125l-46.011718 87.8125c-7.820313 14.882813-23.085938 24.109375-39.871094 24.109375h-101.867188c-8.289062 0-15-6.710938-15-15s6.710938-15 15-15h101.863282c5.597656 0 10.695312-3.074219 13.304687-8.042969 2.597657-4.960937 10.445313-19.941406 17.191407-32.816406 2.125-4.054687 1.976562-8.925781-.394532-12.84375-2.375-3.914063-6.621094-6.296875-11.199218-6.296875h-155.921876c-20.039062 0-38.847656 7.808594-53.027343 21.972656l-88.710938 88.710938c-5.859375 5.859375-5.859375 15.351562 0 21.210937l75 74.710938c2.929688 2.929687 6.769531 4.398437 10.605469 4.398437s7.675781-1.46875 10.605469-4.398437l56.894531-56.605469h125.652344c39.171875 0 74.824218-21.5625 93.019531-56.265625l69.082031-131.761719c2.460938-4.644531 2.285156-10.238281-.4375-14.738281zm0 0"/>
</svg>