<?xml version="1.0" encoding="iso-8859-1"?>
<!-- Generator: Adobe Illustrator 19.0.0, SVG Export Plug-In . SVG Version: 6.00 Build 0)  -->
<svg version="1.1" id="Capa_1" xmlns="http://www.w3.org/2000/svg" xmlns:xlink="http://www.w3.org/1999/xlink" x="0px" y="0px"
	 viewBox="0 0 477.44 477.44" style="enable-background:new 0 0 477.44 477.44;" xml:space="preserve" fill="#fff">
<g>
	<g>
		<g>
			<path d="M156.886,388.011l-15.188-12.971c-11.423,0.006-22.733,2.268-33.28,6.656c-2.884,1.125-5.68,2.466-8.363,4.011
				c-16.896,12.289-19.029,14.08-19.798,14.763c-5.029,5.043-9.414,10.689-13.055,16.81c-2.762,4.514-5.077,9.288-6.912,14.252
				l-11.179,34.73c-1.426,4.529,1.09,9.356,5.62,10.782c0.832,0.262,1.7,0.396,2.573,0.397h53.845
				c2.057-30.781,15.216-59.769,37.035-81.579C150.999,393.131,153.814,390.485,156.886,388.011z"/>
			<path d="M428.332,466.261l-11.264-35.157c-1.86-4.802-4.144-9.429-6.827-13.825c-3.621-6.109-8.008-11.73-13.055-16.725
				c-0.769-0.767-2.902-2.559-19.798-14.847c-2.7-1.537-5.493-2.905-8.363-4.096c-10.564-4.321-21.866-6.552-33.28-6.571
				l-15.189,12.971c3.071,2.475,5.888,5.121,8.703,7.851c21.818,21.81,34.978,50.798,37.035,81.579h53.845
				c4.748-0.005,8.593-3.858,8.589-8.606C428.728,467.961,428.594,467.094,428.332,466.261z"/>
			<path d="M201.686,419.072c-6.33,3.521-12.132,7.917-17.237,13.056c-12.293,12.15-20.061,28.138-22.016,45.311h57.259
				l-12.202-61.183C205.526,417.109,203.564,418.048,201.686,419.072z"/>
			<path d="M317.143,407.979c-4.605-4.665-9.633-8.894-15.019-12.63c-13.96-9.754-29.999-16.124-46.848-18.603
				c-10.97-1.706-22.138-1.706-33.108,0c-50.904,7.695-89.836,49.383-94.037,100.693h17.152c2.019-21.718,11.591-42.04,27.05-57.428
				c6.264-6.233,13.356-11.574,21.077-15.872c5.717-3.159,11.753-5.705,18.005-7.595h0.427c0.171-0.085,0.256-0.171,0.427-0.171
				c0.454-0.043,0.911-0.043,1.365,0c0.511-0.043,1.025-0.043,1.535,0c0.555,0.119,1.098,0.291,1.621,0.513
				c0.503,0.147,0.99,0.347,1.451,0.597c0.463,0.294,0.892,0.637,1.28,1.024c0.411,0.326,0.784,0.698,1.109,1.109
				c0.316,0.494,0.601,1.007,0.853,1.536c0.171,0.427,0.427,0.683,0.598,1.109v0.426c0.085,0.171,0.171,0.256,0.171,0.427
				l14.848,74.325h3.242l14.848-74.325c0-0.171,0.085-0.256,0.171-0.427v-0.427c0.171-0.427,0.427-0.683,0.598-1.109
				c0.252-0.53,0.537-1.043,0.853-1.536c0.307-0.404,0.682-0.751,1.109-1.024c0.363-0.437,0.796-0.812,1.28-1.109
				c0.439-0.234,0.895-0.434,1.365-0.597c0.556-0.21,1.127-0.381,1.707-0.513c0.511-0.043,1.025-0.043,1.535,0
				c0.454-0.043,0.911-0.043,1.365,0c0.171,0,0.256,0.085,0.427,0.171h0.428c6.291,1.897,12.357,4.472,18.092,7.68
				c7.697,4.262,14.762,9.575,20.992,15.787c15.459,15.388,25.031,35.711,27.05,57.43h17.152
				C347.274,451.176,335.855,426.521,317.143,407.979L317.143,407.979z"/>
			<path d="M275.841,419.157c-1.911-1.07-3.876-2.038-5.889-2.901l-12.202,61.184h57.259c-1.955-17.173-9.723-33.162-22.016-45.312
				C287.922,427.01,282.147,422.642,275.841,419.157z"/>
			<path d="M138.113,166.143c-1.543,4.021-2.156,8.339-1.791,12.63c0,26.709,3.754,38.656,5.802,42.325
				c1.405-1.125,2.641-2.448,3.67-3.925c0.506-16.582-1.129-33.16-4.864-49.323C140.1,167.117,139.146,166.538,138.113,166.143z"/>
			<path d="M317.484,119.467H159.959c12.459,9.046,40.96,17.067,78.763,17.067C276.438,136.533,305.025,128.512,317.484,119.467z"/>
			<path d="M320.044,365.995l-22.016-22.016l-23.04,19.797c10.998,3.262,21.504,7.998,31.231,14.08L320.044,365.995z"/>
			<path d="M253.824,359.424l37.205-31.915c0.05-7.474,0.535-14.939,1.451-22.357c0.085-0.769,0.256-1.621,0.341-2.389
				c-5.205,4.779-10.665,9.643-16.81,14.677c-21.773,17.554-52.849,17.519-74.581-0.085c-6.145-4.949-11.605-9.813-16.811-14.592
				c0.085,0.769,0.256,1.621,0.341,2.475c0.918,7.389,1.403,14.826,1.451,22.272l37.205,31.915
				C233.65,358.229,243.791,358.229,253.824,359.424z"/>
			<path d="M157.398,365.995l13.825,11.861c9.727-6.082,20.233-10.818,31.231-14.08l-23.04-19.797L157.398,365.995z"/>
			<path d="M331.649,217.173c1.028,1.478,2.264,2.8,3.67,3.925c2.048-3.669,5.802-15.616,5.802-42.325
				c0.364-4.291-0.248-8.609-1.792-12.629c-1.001,0.424-1.947,0.968-2.817,1.621C332.786,183.959,331.152,200.564,331.649,217.173z"
				/>
			<path d="M324.055,138.667c0-1.024-0.171-2.048-0.171-3.072c-18.176,11.179-49.323,18.005-85.163,18.005
				c-35.84,0-66.987-6.827-85.163-18.005c0,1.024-0.171,2.048-0.171,3.072c0.028,5.708,0.802,11.389,2.304,16.896
				c6.764,24.972,8.961,50.961,6.485,76.715c-0.171,1.707-0.256,3.669-0.256,5.547c0,16.47,17.835,40.022,50.261,66.304
				c15.469,12.544,37.608,12.544,53.077,0c32.426-26.283,50.261-49.835,50.261-66.304c0-1.878-0.085-3.841-0.256-5.632
				c-2.483-25.758-0.256-51.754,6.571-76.715C323.274,149.988,324.02,144.341,324.055,138.667z M230.188,229.973h17.067
				c4.713,0,8.533,3.82,8.533,8.533s-3.821,8.533-8.533,8.533h-17.067c-4.713,0-8.533-3.82-8.533-8.533
				S225.475,229.973,230.188,229.973z M204.588,187.307v8.533c0,4.713-3.821,8.533-8.533,8.533c-4.713,0-8.533-3.82-8.533-8.533
				v-8.533h-8.533c-4.713,0-8.533-3.82-8.533-8.533s3.82-8.533,8.533-8.533h34.133c4.713,0,8.533,3.82,8.533,8.533
				s-3.82,8.533-8.533,8.533H204.588z M255.788,281.173h-34.133c-4.713,0-8.533-3.821-8.533-8.533s3.82-8.533,8.533-8.533h34.133
				c4.713,0,8.533,3.82,8.533,8.533S260.501,281.173,255.788,281.173z M298.454,187.307h-8.533v8.533
				c0,4.713-3.82,8.533-8.533,8.533s-8.533-3.82-8.533-8.533v-8.533h-8.533c-4.713,0-8.533-3.82-8.533-8.533s3.82-8.533,8.533-8.533
				h34.133c4.713,0,8.533,3.82,8.533,8.533S303.167,187.307,298.454,187.307z"/>
			<path d="M127.788,85.333c0.013-1.115,0.245-2.217,0.683-3.243c0.412-1.045,1.02-2.001,1.792-2.816
				c0.405-0.367,0.833-0.709,1.279-1.025c0.476-0.323,0.993-0.581,1.536-0.768c0.484-0.246,1.001-0.418,1.536-0.511
				c2.785-0.586,5.677,0.282,7.679,2.304c1.616,1.605,2.536,3.781,2.561,6.059c-0.034,4.699-3.835,8.499-8.533,8.533
				c-2.038,0.024-4.013-0.705-5.547-2.048c3.53,4.132,7.54,7.828,11.947,11.008c0.69-0.232,1.407-0.375,2.133-0.427h187.733
				c0.726,0.051,1.443,0.195,2.133,0.427c4.596-3.299,8.779-7.138,12.459-11.435c-3.365,3.3-8.752,3.3-12.117,0
				c-0.754-0.83-1.36-1.782-1.792-2.816c-0.911-2.066-0.911-4.42,0-6.485c0.412-1.045,1.02-2.001,1.792-2.816
				c2.049-2.002,4.955-2.864,7.765-2.304c0.535,0.093,1.052,0.266,1.536,0.512c0.544,0.187,1.06,0.445,1.536,0.768
				c0.447,0.315,0.874,0.657,1.28,1.024c0.754,0.83,1.36,1.782,1.792,2.816c0.911,2.066,0.911,4.42,0,6.485
				c-0.204,0.509-0.461,0.995-0.767,1.451l-0.001,0.001c6.181-6.992,9.714-15.931,9.984-25.259C358.188,29.696,303.49,0,238.721,0
				S119.255,29.696,119.255,64.768c0.25,9.343,3.75,18.306,9.898,25.345C128.278,88.67,127.807,87.02,127.788,85.333z
				 M317.996,62.208c3.319-3.346,8.722-3.368,12.068-0.05c1.628,1.614,2.537,3.816,2.524,6.108c0.007,2.267-0.882,4.445-2.475,6.059
				c-1.614,1.592-3.792,2.481-6.059,2.475c-1.115-0.013-2.217-0.245-3.243-0.683c-1.034-0.432-1.987-1.038-2.816-1.792
				c-1.606-1.604-2.498-3.788-2.475-6.058C315.537,66.004,316.423,63.835,317.996,62.208z M312.997,79.225
				c1.628,1.614,2.537,3.816,2.524,6.108c0.023,2.27-0.869,4.454-2.475,6.059c-3.319,3.346-8.722,3.368-12.068,0.05
				c-1.628-1.614-2.537-3.816-2.524-6.108c0.016-2.262,0.902-4.432,2.475-6.059C304.248,75.929,309.651,75.906,312.997,79.225z
				 M283.863,62.208c0.405-0.367,0.832-0.709,1.279-1.025c0.476-0.322,0.993-0.58,1.537-0.767c0.484-0.246,1.001-0.419,1.536-0.512
				c2.81-0.573,5.721,0.291,7.765,2.304c1.559,1.636,2.443,3.799,2.475,6.059c0.007,2.267-0.882,4.445-2.475,6.059
				c-0.83,0.753-1.782,1.359-2.816,1.791v0.001c-4.29,1.837-9.257-0.151-11.094-4.44c-0.461-1.077-0.694-2.239-0.682-3.411
				C281.42,66.007,282.304,63.844,283.863,62.208z M272.855,76.8c4.713,0,8.533,3.82,8.533,8.533
				c0.023,2.27-0.869,4.454-2.475,6.059c-3.319,3.346-8.722,3.368-12.068,0.05c-1.628-1.614-2.537-3.816-2.524-6.108
				C264.321,80.621,268.142,76.8,272.855,76.8z M249.729,62.208c2.016-2,4.895-2.864,7.679-2.304
				c0.565,0.08,1.114,0.253,1.622,0.512c0.524,0.17,1.015,0.43,1.451,0.768c0.49,0.293,0.947,0.636,1.365,1.024
				c1.559,1.636,2.442,3.799,2.475,6.059c0.045,4.667-3.702,8.488-8.369,8.533c-0.055,0-0.109,0-0.164,0
				c-1.115-0.013-2.217-0.245-3.243-0.683c-1.034-0.432-1.987-1.038-2.816-1.792c-1.606-1.604-2.498-3.788-2.475-6.058
				C247.287,66.007,248.171,63.844,249.729,62.208z M232.663,79.275c2.452-2.424,6.123-3.131,9.301-1.792
				c2.142,0.778,3.83,2.466,4.607,4.608c1.362,3.175,0.652,6.86-1.792,9.301h0.001c-3.365,3.3-8.752,3.3-12.117,0
				c-1.593-1.614-2.482-3.792-2.475-6.059c-0.029-1.12,0.205-2.23,0.683-3.243C231.283,81.046,231.891,80.09,232.663,79.275z
				 M215.596,62.209c3.319-3.346,8.722-3.368,12.068-0.05c1.628,1.614,2.537,3.815,2.524,6.108c0.045,4.667-3.702,8.488-8.369,8.533
				c-0.055,0-0.11,0-0.164,0c-2.27,0.023-4.454-0.869-6.059-2.475C212.296,70.961,212.296,65.573,215.596,62.209z M196.738,82.091
				c0.412-1.045,1.02-2.001,1.792-2.816c2.022-1.989,4.896-2.852,7.679-2.304c0.565,0.08,1.113,0.253,1.621,0.512
				c0.524,0.17,1.015,0.43,1.451,0.768c0.49,0.293,0.947,0.636,1.365,1.024c1.559,1.636,2.442,3.8,2.475,6.059
				c0.023,2.27-0.869,4.454-2.475,6.059c-3.29,3.358-8.68,3.413-12.038,0.122C196.103,89.059,195.36,85.317,196.738,82.091z
				 M178.988,68.267c0.032-2.259,0.916-4.423,2.475-6.059c2.016-2,4.895-2.864,7.679-2.304c0.565,0.08,1.113,0.253,1.622,0.512
				c0.524,0.17,1.015,0.43,1.451,0.768c0.478,0.272,0.91,0.617,1.28,1.024c1.616,1.605,2.535,3.781,2.56,6.059
				c-0.034,4.699-3.835,8.499-8.533,8.533c-4.667,0.045-8.488-3.702-8.533-8.369C178.987,68.376,178.987,68.321,178.988,68.267z
				 M164.397,79.275c3.421-3.158,8.695-3.158,12.117,0c0.754,0.83,1.36,1.782,1.792,2.816c0.438,1.026,0.67,2.127,0.683,3.243
				c0.007,2.267-0.882,4.445-2.475,6.059c-3.365,3.3-8.752,3.3-12.117,0c-1.593-1.614-2.482-3.792-2.475-6.059
				c-0.029-1.12,0.205-2.23,0.683-3.243C163.016,81.046,163.625,80.09,164.397,79.275z M147.329,62.208
				c0.83-0.753,1.782-1.359,2.816-1.792c2.06-0.938,4.425-0.938,6.485,0c1.044,0.412,2,1.021,2.816,1.793
				c1.558,1.636,2.442,3.799,2.475,6.058c-0.013,1.115-0.245,2.217-0.683,3.243c-0.432,1.034-1.038,1.986-1.791,2.816
				c-2.442,2.444-6.126,3.154-9.301,1.792c-2.143-0.777-3.83-2.465-4.607-4.607c-0.479-1.013-0.713-2.124-0.683-3.243
				C144.887,66.007,145.771,63.844,147.329,62.208z"/>
		</g>
	</g>
</g>
<g>
</g>
<g>
</g>
<g>
</g>
<g>
</g>
<g>
</g>
<g>
</g>
<g>
</g>
<g>
</g>
<g>
</g>
<g>
</g>
<g>
</g>
<g>
</g>
<g>
</g>
<g>
</g>
<g>
</g>
</svg>
