<?xml version="1.0" encoding="utf-8"?>
<!-- Generator: Adobe Illustrator 23.0.6, SVG Export Plug-In . SVG Version: 6.00 Build 0)  -->
<svg version="1.1" id="Layer_1" xmlns="http://www.w3.org/2000/svg" xmlns:xlink="http://www.w3.org/1999/xlink" x="0px" y="0px"
	 viewBox="0 0 524.5 525.4" style="enable-background:new 0 0 524.5 525.4;" xml:space="preserve">
<style type="text/css">
	.st0{opacity:0.12;fill:#8BF448;enable-background:new    ;}
	.st1{fill:#8CC83B;}
	.st2{fill:#FEFEFE;}
	.st3{fill:#D8F49D;}
</style>
<g>
	<circle class="st0" cx="261" cy="261.6" r="259.1"/>
</g>
<g>
	<path class="st1" d="M313.1,523.4c-67.5,0-135-0.1-202.5,0.1c-4.6,0-5.9-1.2-5.6-5.7c0.4-7,0.3-14,0-21c-0.2-4.1,0.6-6,5.3-5.5
		c4.6,0.5,9.3-0.2,14,0.2c3.9,0.3,4.9-0.9,4.9-4.9c-0.1-48.8-0.1-97.7-0.1-146.5c0-28-0.1-56,0.1-84c0-4.1-1.2-5-5-4.8
		c-5.3,0.3-10.7,0-16,0.1c-2.3,0.1-3.2-0.5-3.2-3c0.1-19.3,0.1-38.7,0-58c0-3,1.4-3.1,3.7-3c10.5,0.1,21-0.1,31.5,0.1
		c3.7,0.1,5.2-0.6,5-4.8c-0.3-10.5,0-21-0.2-31.5c-0.1-3.1,0.8-3.9,3.9-3.9c13.2,0.2,26.3-0.1,39.5,0.2c4.1,0.1,5-1.3,4.8-5
		c-0.3-4.8,0.2-9.7-0.2-14.5c-0.3-3.7,0.8-4.7,4.6-4.7c27.5,0.2,55,0.1,82.5,0.1c49.3,0,98.7,0.1,148-0.1c4.2,0,5.4,1.1,5.1,5.2
		c-0.4,4.6,0.1,9.3-0.2,14c-0.2,3.7,0.7,5.1,4.8,5c13-0.3,26,0,39-0.2c3.5-0.1,4.5,0.9,4.4,4.4c-0.2,10.3,0.2,20.7-0.2,31
		c-0.1,4.2,1.3,4.9,5,4.8c10.3-0.2,20.7,0,31-0.2c3.2-0.1,4.2,0.8,4.2,4.1c-0.2,18.7-0.2,37.3,0,56c0,3.4-1,4.2-4.2,4.1
		c-4.8-0.2-9.7,0.2-14.5-0.2c-4.2-0.3-5.5,0.7-5.5,5.3c0.2,38.7,0.1,77.3,0.1,116c0,38,0.1,76-0.1,114c0,3.9,1,5.2,4.9,4.9
		c4.8-0.4,9.7,0.2,14.5-0.2c4.2-0.4,4.9,1.3,4.8,5c-0.3,7.5-0.3,15,0,22.5c0.2,3.7-0.8,4.7-4.6,4.7c-32.3-0.2-64.7-0.1-97-0.1
		C384.1,523.4,348.6,523.4,313.1,523.4z"/>
	<path class="st2" d="M313.1,251.4c57,0,114,0.1,171-0.1c4.2,0,5.1,1.1,5.1,5.2c-0.1,76.6-0.1,153.3,0,229.9c0,4.3-1.2,5.2-5.3,5.1
		c-9.8-0.3-19.7-0.3-29.5,0c-4.3,0.1-5.5-0.8-5.5-5.3c0.2-57.7,0.1-115.3,0.3-173c0-4.8-1.1-6-5.9-5.9c-33.8,0.2-67.7,0.2-101.5,0
		c-4.1,0-4.8,1.2-4.8,5c0.1,58,0,116,0.2,174c0,4-0.7,5.3-5,5.3c-63.5-0.2-127-0.1-190.5,0c-3.7,0-4.7-0.8-4.7-4.6
		c0.1-77,0.1-154,0-230.9c0-3.8,0.9-4.6,4.7-4.6C198.8,251.5,255.9,251.4,313.1,251.4z"/>
	<path class="st2" d="M313.1,243.4c-35.8,0-71.6-0.1-107.4,0.1c-3.7,0-4.7-0.8-4.7-4.6c0.2-34.5,0.1-69,0-103.4
		c0-3.3,0.9-4.1,4.1-4.1c72,0.1,143.9,0.1,215.9,0c3.2,0,4.2,0.7,4.2,4.1c-0.1,34.6-0.2,69.3,0,103.9c0,3.9-1.5,4.1-4.6,4.1
		C384.7,243.4,348.9,243.4,313.1,243.4z"/>
	<path class="st3" d="M441.1,403.9c0,27.3-0.1,54.7,0.1,82c0,4.2-0.7,5.7-5.4,5.6c-28.7-0.2-57.3-0.2-86,0c-3.6,0-4.9-0.7-4.8-4.6
		c0.1-55.7,0.1-111.3,0-167c0-3.9,1.3-4.6,4.9-4.6c28.8,0.1,57.7,0.2,86.5,0c4.2,0,4.8,1.5,4.8,5.1
		C441,348.3,441.1,376.1,441.1,403.9z"/>
	<path class="st3" d="M312.8,515.4c-64.7,0-129.3,0-194,0.1c-4.5,0-6-1-5.9-5.8c0.3-10.3,0.1-10.3,10.7-10.3
		c127.6,0,255.3,0,382.9,0c6.5,0,6.5,0,6.5,6.4c0,9.6,0,9.6-9.8,9.6C439.8,515.4,376.3,515.4,312.8,515.4z"/>
	<path class="st3" d="M152.8,243.4c-11.8,0-23.7-0.1-35.5,0.1c-3.2,0-4.4-0.8-4.3-4.2c0.2-13.3,0.1-26.7,0-40c0-3.1,1.1-4,4.1-3.9
		c24,0.1,48,0.1,72,0c3,0,4.1,0.8,4.1,3.9c-0.1,13.3-0.2,26.7,0,40c0,3.4-1.1,4.2-4.3,4.2C176.8,243.3,164.8,243.4,152.8,243.4z"/>
	<path class="st3" d="M473,243.4c-11.8,0-23.7-0.1-35.5,0.1c-3.5,0.1-4.5-1.1-4.5-4.5c0.2-13,0.2-26,0-39c0-3.4,0.8-4.6,4.4-4.6
		c23.8,0.1,47.6,0.1,71.5,0c3.3,0,4.3,1,4.2,4.3c-0.2,13.2-0.2,26.3,0,39.5c0.1,3.7-1.4,4.4-4.7,4.4
		C496.6,243.3,484.8,243.4,473,243.4z"/>
	<path class="st3" d="M173.1,155.4c5.5,0,11,0.1,16.5,0c2.5-0.1,3.6,0.6,3.5,3.3c-0.1,8.5-0.1,17,0,25.5c0,2.8-1.2,3.3-3.6,3.2
		c-11-0.1-22-0.1-33,0c-2.5,0-3.6-0.6-3.5-3.3c0.1-8.5,0.1-17,0-25.5c0-2.8,1.2-3.3,3.6-3.2C162.1,155.5,167.6,155.4,173.1,155.4z"
		/>
	<path class="st3" d="M453.1,155.4c5.5,0,11,0.1,16.5,0c2.5-0.1,3.6,0.6,3.5,3.3c-0.1,8.5-0.1,17,0,25.5c0,2.8-1.2,3.3-3.6,3.2
		c-11-0.1-22-0.1-33,0c-2.5,0-3.6-0.6-3.5-3.3c0.1-8.5,0.1-17,0-25.5c0-2.8,1.2-3.3,3.6-3.2C442.1,155.5,447.6,155.4,453.1,155.4z"
		/>
	<path class="st1" d="M240.5,427.4c-22.3,0-44.6-0.1-67,0.1c-3.8,0-4.7-1-4.6-4.7c0.3-7.8,0.2-15.7,0-23.5c-0.1-2.9,0.4-4.1,3.7-4
		c4.1,0.1,9.5,2,11.8-1c2-2.5,0.5-7.7,0.5-11.7c0-23.7,0.1-47.3-0.1-71c0-3.5,0.9-4.4,4.4-4.4c34.5,0.1,69,0.1,103.4,0
		c3.6,0,4.3,1,4.3,4.4c-0.1,26.1,0,52.3-0.2,78.4c0,3.9,0.5,5.5,5,5.3c11.1-0.3,11.1-0.1,11.1,10.9c0,5.7-0.2,11.3,0.1,17
		c0.2,3.3-0.9,4.1-4.2,4.1C286.2,427.4,263.4,427.4,240.5,427.4z"/>
	<path class="st1" d="M307.7,226.1c-13.1,5.9-25.8,4.3-37.1-6.6c-2.2-2.1-2.2-3.4,0-5.5c3.2-3.2,6.9-5.7,11.3-7.9
		c-3.8-4.1-7.4-8.1-10.1-12.8c-3.6-6.1-5.6-12.7-6.5-19.7c-0.4-2.8,0.6-3.4,3.2-3.2c10.4,0.8,19.6,4.8,28.3,11.6
		c0.6-6,1-11.5,2.3-16.9c2.2-8.3,5.8-15.8,11.3-22.6c2.1-2.6,3.3-2.8,5.5-0.1c8.4,10.2,12.2,22,13.2,34.9c0.1,1.3,0,2.6,0,4.8
		c7.7-5.6,15.3-9.8,24.2-11.2c8.3-1.3,8.3-1.4,7,6.5c-1.8,11.3-7.8,20.3-15.9,28.5c4.2,2.5,8.3,4.8,11.6,8.4
		c1.7,1.8,1.8,2.9,0.1,4.8c-8.8,9.6-22.5,12.8-34.8,8.1c-1.2-0.5-2.4-1.1-3.3-1.5c-3,2.8,3.6,10.6-5.5,9.7
		C304.8,234.7,312,228.5,307.7,226.1z"/>
	<path class="st1" d="M225.1,147.4c0,8,0,8-8,8s-8,0-8-8s0-8,8-8S225.1,139.4,225.1,147.4z"/>
	<path class="st1" d="M409.4,219.4c7.7,0,7.7,0,7.7,7.8c0,8.2,0,8.2-8.3,8.2c-7.7,0-7.7,0-7.7-7.8
		C401.1,219.4,401.1,219.4,409.4,219.4z"/>
	<path class="st1" d="M369.1,403.5c0,4.3-0.1,8.7,0,13c0.2,3.6-2.3,2.9-4.3,3c-2.2,0.1-3.8-0.1-3.8-3.1c0.2-8.7,0.2-17.3,0-26
		c-0.1-3.6,2.3-2.9,4.3-3c2.2-0.1,3.9,0.1,3.8,3.1C368.9,394.8,369.1,399.1,369.1,403.5z"/>
	<path class="st2" d="M241.1,315.4c14.6,0,29.3,0.1,43.9-0.1c3.2,0,4.2,0.8,4.1,4.1c-0.1,24-0.1,47.9,0,71.9c0,3.3-0.9,4.1-4.1,4.1
		c-29.3-0.1-58.6-0.1-87.9,0c-3.3,0-4.1-0.8-4.1-4.1c0.1-24,0.1-47.9,0-71.9c0-3.3,0.9-4.2,4.1-4.1
		C211.8,315.5,226.4,315.4,241.1,315.4z"/>
	<path class="st3" d="M241.1,419.4c-19.7,0-39.3-0.1-59,0.1c-3.8,0-5.2-0.8-5.1-4.9c0.2-11.1,0-11.1,10.9-11.1
		c37.3,0,74.6,0.1,112-0.1c4,0,5.5,0.9,5.4,5.2c-0.2,10.9,0,10.9-11.1,10.9C276.4,419.4,258.8,419.4,241.1,419.4z"/>
	<path class="st3" d="M313.1,201.7c-6.5-7.1-9.2-15.4-8.1-25.2c1-8.5,3.1-16.5,8.1-24.4c5.2,8.1,7.3,16.4,8.2,25.4
		C322.2,187.1,319,194.8,313.1,201.7z"/>
	<path class="st3" d="M351.7,179.7c-1.8,7.6-6.5,13.1-11,19c-5.4,7-13.4,5.1-20.2,8.1C323.2,195.2,338.9,181.7,351.7,179.7z"/>
	<path class="st3" d="M306.2,207.5c-6.1-3.9-12.7-1.3-17.5-5.8c-6.5-6.1-12-12.8-14.3-21.7C285.5,179.9,302.8,195.4,306.2,207.5z"/>
	<path class="st3" d="M279.8,216.8c6-6.2,18.6-5.9,25.3-1.9c2.6,1.6,1.8,2.5-0.3,3.7C297.4,223.2,286.6,222.4,279.8,216.8z"/>
	<path class="st3" d="M347.2,216.7c-8.7,5.7-16.8,6.2-25.2,2.2c-1-0.5-2.4-0.9-2.6-2.1c-0.1-1.4,1.4-1.8,2.4-2.2
		C330.3,210.5,338.5,211.1,347.2,216.7z"/>
</g>
</svg>
