<svg xmlns="http://www.w3.org/2000/svg" width="16.69" height="15.06" viewBox="0 0 16.69 15.06">
  <defs>
    <style>
      .cls-1 {
        fill: #ff8338;
        fill-rule: evenodd;
      }
    </style>
  </defs>
  <path id="ic_error" class="cls-1" d="M8855.5,4617.05l7.55,13.43a0.821,0.821,0,0,1-.29,1.11,0.679,0.679,0,0,1-.39.11h-15.12a0.8,0.8,0,0,1-.79-0.81,0.869,0.869,0,0,1,.11-0.41l7.55-13.43a0.782,0.782,0,0,1,1.09-.29A0.806,0.806,0,0,1,8855.5,4617.05Zm-6.87,13.03h12.36l-6.18-10.99Zm5.39-2.45h1.58v1.63h-1.58v-1.63Zm0-5.69h1.58v4.07h-1.58v-4.07Z" transform="translate(-8846.47 -4616.66)"/>
</svg>
