<?xml version="1.0" encoding="utf-8"?>
<!-- Generator: Adobe Illustrator 23.0.6, SVG Export Plug-In . SVG Version: 6.00 Build 0)  -->
<svg version="1.1" id="Layer_1" xmlns="http://www.w3.org/2000/svg" xmlns:xlink="http://www.w3.org/1999/xlink" x="0px" y="0px"
	 viewBox="0 0 66 86" style="enable-background:new 0 0 66 86;" xml:space="preserve">
<style type="text/css">
	.st0{fill:#FE5722;}
	.st1{fill:#FAE7E4;}
</style>
<path class="st0" d="M64.8,23.7c0-2.2-0.6-3.7-2.2-5.3C57.4,13.3,52.2,8.1,47.1,2.9c-1.7-1.7-3.4-2.3-5.7-2.2
	C29.2,0.7,17,0.8,4.9,0.6C1.1,0.5,0.6,1.9,0.7,5.1c0.2,12.5,0.1,25,0.1,37.5c0,12.8,0.1,25.6-0.1,38.5c0,2.8,0.7,3.7,3.6,3.7
	c19-0.1,38-0.1,56.9,0c2.9,0,3.6-0.8,3.6-3.6C64.7,61.9,64.7,42.8,64.8,23.7z"/>
<path class="st1" d="M59.9,22.7c-4.4,0-9.5-0.1-14.6,0c-1.9,0-2.7-0.6-2.6-2.6c0.1-5.1,0-10.2,0-15.5C48.6,10.8,54.3,16.7,59.9,22.7
	z"/>
<g>
	<path class="st1" d="M17.3,53.7v5.4h-3.6V43.4h6c1.9,0,3.3,0.5,4.4,1.4s1.6,2.2,1.6,3.7s-0.5,2.8-1.6,3.7s-2.6,1.4-4.4,1.4H17.3z
		 M17.3,50.9h2.3c0.8,0,1.4-0.2,1.8-0.6s0.6-1,0.6-1.7c0-0.7-0.2-1.3-0.6-1.7c-0.4-0.4-1-0.7-1.8-0.7h-2.3V50.9z"/>
	<path class="st1" d="M27.7,59.1V43.4h5.7c1.8,0,3.4,0.6,4.6,1.8s1.9,2.7,1.9,4.6v2.8c0,1.9-0.6,3.4-1.9,4.6s-2.8,1.8-4.6,1.8H27.7z
		 M31.3,46.2v10h2.1c0.8,0,1.5-0.3,2-1c0.5-0.7,0.8-1.5,0.8-2.6v-2.8c0-1.1-0.3-1.9-0.8-2.6c-0.5-0.7-1.2-1-2-1H31.3z"/>
	<path class="st1" d="M51.4,52.8h-5.7v6.3H42V43.4h10.4v2.8h-6.8V50h5.7V52.8z"/>
</g>
</svg>
